<svg width="874" height="815" viewBox="0 0 874 815" fill="none" xmlns="http://www.w3.org/2000/svg">
<circle cx="438" cy="408" r="378.5" fill="white" stroke="#595959" stroke-width="3"/>
<path d="M743 599.537C728.564 583.376 717.414 571.1 707.565 552.679M495.972 75C554.72 92.7798 584.152 119.014 631.997 187.368C659.454 247.474 668.209 327.615 682.494 479.89C686.71 497.375 690.82 511.603 695.019 523.563M631.997 545.4C655.504 549.678 669.448 543.23 695.019 523.563M695.019 523.563C699.06 535.074 703.184 544.484 707.565 552.679M631.997 589.074C660.716 565.488 677.228 557.122 707.565 552.679" stroke="#595959" stroke-width="4" stroke-linecap="round"/>
<path d="M125.202 337.496C148.338 278.253 136.893 260.859 102 239.231C110.586 217.898 117.941 208.162 133.39 192.828C145.328 183.576 186.01 185.141 313.999 198.742C415.311 195.101 456.011 190.103 517.808 179.18C569.116 191.928 607.948 248.667 587.413 279.265C508.077 271.678 496.537 152.163 216 299.078C215.089 337.19 214.881 366.289 204 365.5C192.931 359.09 189.125 339.838 185.253 315.659C178.052 359.693 170.183 373.718 146.583 372.071C131.351 367.363 125.476 361.307 125.202 337.496Z" fill="white"/>
<path d="M185.253 315.659C178.052 359.693 170.183 373.718 146.583 372.071C131.351 367.363 125.476 361.307 125.202 337.496C148.338 278.253 136.893 260.859 102 239.231C110.586 217.898 117.941 208.162 133.39 192.828C145.328 183.576 186.01 185.141 313.999 198.742C415.311 195.101 456.011 190.103 517.808 179.18C569.116 191.928 607.948 248.667 587.413 279.265C508.077 271.678 496.537 152.163 216 299.078M185.253 315.659C189.125 339.838 192.931 359.09 204 365.5C214.881 366.289 215.089 337.19 216 299.078M185.253 315.659C195.847 309.789 206.091 304.268 216 299.078" stroke="#595959" stroke-width="4" stroke-linecap="round"/>
<path d="M276 283.5L304.531 287.896L294.072 260.989L276 283.5ZM290.641 280.675C293.771 279.566 296.85 278.522 299.883 277.542L298.346 272.784C295.266 273.779 292.143 274.838 288.97 275.962L290.641 280.675ZM309.194 274.696C312.367 273.782 315.496 272.941 318.588 272.169L317.378 267.318C314.225 268.104 311.039 268.961 307.811 269.891L309.194 274.696ZM328.071 269.999C331.28 269.332 334.459 268.741 337.618 268.224L336.81 263.29C333.58 263.819 330.331 264.423 327.054 265.104L328.071 269.999ZM347.228 266.869C350.457 266.487 353.675 266.181 356.894 265.948L356.533 260.961C353.239 261.199 349.945 261.513 346.641 261.903L347.228 266.869ZM366.59 265.463C369.811 265.374 373.046 265.355 376.303 265.402L376.376 260.403C373.05 260.354 369.745 260.374 366.451 260.465L366.59 265.463ZM386.024 265.737C389.225 265.909 392.457 266.142 395.732 266.432L396.174 261.452C392.844 261.156 389.554 260.92 386.292 260.745L386.024 265.737ZM405.419 267.443C408.597 267.823 411.821 268.252 415.1 268.729L415.82 263.781C412.502 263.298 409.235 262.863 406.011 262.479L405.419 267.443ZM424.741 270.242C427.896 270.771 431.105 271.34 434.374 271.948L435.288 267.032C431.992 266.419 428.754 265.845 425.567 265.311L424.741 270.242ZM443.974 273.804C447.119 274.435 450.322 275.098 453.587 275.791L454.625 270.9C451.344 270.203 448.123 269.537 444.957 268.902L443.974 273.804ZM463.142 277.865C464.73 278.216 466.333 278.574 467.951 278.939L469.049 274.061C467.426 273.695 465.817 273.336 464.223 272.983L463.142 277.865Z" fill="#007AFF"/>
<path d="M536.5 296.5L551.906 320.913L565.345 295.364L536.5 296.5ZM548.348 306.102C551.176 307.913 553.871 309.799 556.446 311.782L559.497 307.82C556.799 305.743 553.985 303.775 551.044 301.892L548.348 306.102ZM563.962 318.173C566.337 320.405 568.609 322.766 570.791 325.279L574.566 322.001C572.273 319.36 569.885 316.878 567.386 314.53L563.962 318.173ZM576.894 333.038C578.755 335.647 580.553 338.409 582.299 341.345L586.596 338.789C584.784 335.741 582.91 332.862 580.964 330.135L576.894 333.038ZM587.068 350.057C588.512 352.915 589.922 355.92 591.306 359.084L595.887 357.081C594.469 353.838 593.02 350.75 591.531 347.803L587.068 350.057ZM595.105 368.343C596.268 371.357 597.416 374.5 598.552 377.78L603.276 376.144C602.123 372.813 600.956 369.615 599.77 366.543L595.105 368.343ZM601.695 387.296C602.673 390.394 603.645 393.603 604.615 396.929L609.415 395.53C608.436 392.171 607.453 388.927 606.463 385.79L601.695 387.296ZM607.343 406.617C608.204 409.775 609.064 413.03 609.926 416.384L614.769 415.139C613.901 411.763 613.035 408.486 612.167 405.303L607.343 406.617ZM612.373 426.142C612.771 427.767 613.169 429.413 613.569 431.082L618.431 429.918C618.03 428.241 617.629 426.587 617.23 424.953L612.373 426.142Z" fill="#007AFF"/>
<path d="M332.431 433.323C344.278 452.522 342.062 475.29 332.431 488.936C367.823 523.856 401.855 522.547 450.489 523C483.559 522.434 520.98 514.132 597 480.05C593.477 421.471 594.543 397.206 552.251 350.212C525.497 320.482 441.597 295.413 377.732 295.413C350.691 295.413 251.729 278.357 241 334.934C247.323 356.074 291.675 413.797 332.431 433.323Z" fill="white"/>
<path d="M332.431 433.323C344.278 452.522 342.062 475.29 332.431 488.936C367.823 523.856 401.855 522.547 450.489 523C483.559 522.434 520.98 514.132 597 480.05C593.477 421.471 594.543 397.206 552.251 350.212C525.497 320.482 441.597 295.413 377.732 295.413C350.691 295.413 251.729 278.357 241 334.934C247.323 356.074 291.675 413.797 332.431 433.323ZM332.431 433.323L350.691 439.984" stroke="#FDB209" stroke-width="4" stroke-linecap="round"/>
<path d="M192.029 483.048C151.375 432.786 144.656 413.985 161.858 397.993C189.435 389.625 205.045 392.476 233.908 449.026C223.777 416.838 221.646 403.43 224.451 388.372C232.257 381.382 251.62 383.282 278.702 444.955C286.76 445.58 295.661 446.92 306.407 449.026C347.821 478.872 367.943 498.858 426.64 510.528C462.017 513.751 486.538 512.063 577.944 473.452C616.527 463.197 624.671 473.145 627.929 503.985C627.694 591.207 629.922 639.043 659 712.917L616.221 742.577C531.682 660.909 485.628 627.511 409.979 627.861C303.3 642.956 248.727 648.818 224.451 623.063C203.572 616.72 200.239 563.909 192.029 483.048Z" fill="white"/>
<path d="M233.908 449.026C205.045 392.476 189.435 389.625 161.858 397.993C144.656 413.985 151.375 432.786 192.029 483.048C200.239 563.909 203.572 616.72 224.451 623.063C248.727 648.818 303.3 642.956 409.979 627.861C485.628 627.511 531.682 660.909 616.221 742.577L659 712.917C629.922 639.043 627.694 591.207 627.929 503.985C624.671 473.145 616.527 463.197 577.944 473.452C486.538 512.063 462.017 513.751 426.64 510.528C367.943 498.858 347.821 478.872 306.407 449.026C295.661 446.92 286.76 445.58 278.702 444.955M233.908 449.026C223.777 416.838 221.646 403.43 224.451 388.372C232.257 381.382 251.62 383.282 278.702 444.955M233.908 449.026C250.559 445.221 263.037 443.738 278.702 444.955" stroke="#595959" stroke-width="4" stroke-linecap="round"/>
<path d="M237.5 306.999C227.416 331.829 223.369 345.552 224.5 368.999" stroke="#007AFF" stroke-width="5" stroke-linecap="round" stroke-dasharray="10 10"/>
<path d="M239.816 307.94C240.336 306.66 239.72 305.202 238.441 304.683C237.161 304.163 235.703 304.779 235.184 306.058L239.816 307.94ZM224.5 368.999L226.282 370.752L227.05 369.972L226.997 368.879L224.5 368.999ZM86 393.5L111.257 407.48L110.735 378.617L86 393.5ZM91.1288 395.907C92.5086 395.855 93.5848 394.694 93.5328 393.315C93.4807 391.935 92.32 390.859 90.9403 390.911L91.1288 395.907ZM100.93 390.324C99.5532 390.426 98.5201 391.625 98.6225 393.002C98.725 394.379 99.9242 395.412 101.301 395.31L100.93 390.324ZM111.458 394.449C112.833 394.32 113.843 393.101 113.714 391.726C113.585 390.351 112.366 389.342 110.991 389.471L111.458 394.449ZM121.016 388.457C119.643 388.605 118.65 389.838 118.798 391.211C118.946 392.583 120.179 393.576 121.552 393.428L121.016 388.457ZM131.627 392.279C132.998 392.115 133.976 390.87 133.812 389.499C133.647 388.128 132.402 387.15 131.032 387.315L131.627 392.279ZM141.034 386.058C139.665 386.238 138.701 387.493 138.881 388.862C139.061 390.231 140.317 391.195 141.686 391.015L141.034 386.058ZM151.738 389.637C153.104 389.441 154.054 388.175 153.858 386.808C153.663 385.441 152.397 384.492 151.03 384.687L151.738 389.637ZM161.007 383.198C159.643 383.411 158.709 384.689 158.921 386.053C159.134 387.417 160.412 388.351 161.776 388.139L161.007 383.198ZM171.792 386.509C173.153 386.277 174.068 384.986 173.837 383.625C173.605 382.264 172.314 381.348 170.952 381.58L171.792 386.509ZM180.865 379.807C179.508 380.062 178.615 381.369 178.87 382.726C179.126 384.083 180.433 384.976 181.79 384.721L180.865 379.807ZM191.769 382.731C193.12 382.445 193.983 381.118 193.696 379.767C193.41 378.416 192.083 377.553 190.732 377.84L191.769 382.731ZM200.5 375.611C199.16 375.942 198.342 377.297 198.673 378.638C199.004 379.978 200.359 380.796 201.7 380.465L200.5 375.611ZM211.629 377.733C212.948 377.323 213.685 375.922 213.275 374.603C212.865 373.285 211.464 372.548 210.145 372.958L211.629 377.733ZM219.228 369.511C217.991 370.124 217.485 371.624 218.097 372.861C218.71 374.099 220.21 374.605 221.447 373.992L219.228 369.511ZM226.83 363.628C226.81 362.247 225.675 361.144 224.294 361.164C222.914 361.183 221.811 362.319 221.83 363.699L226.83 363.628ZM222.136 352.824C222.032 354.201 223.065 355.401 224.442 355.504C225.818 355.608 227.018 354.575 227.122 353.198L222.136 352.824ZM228.45 342.892C228.7 341.535 227.802 340.231 226.444 339.981C225.086 339.73 223.783 340.628 223.532 341.986L228.45 342.892ZM226.045 331.381C225.665 332.708 226.433 334.092 227.761 334.472C229.088 334.852 230.472 334.083 230.852 332.756L226.045 331.381ZM234.093 322.762C234.557 321.462 233.879 320.032 232.579 319.567C231.278 319.103 229.848 319.781 229.384 321.082L234.093 322.762ZM233.188 311.033C232.68 312.317 233.309 313.769 234.592 314.277C235.876 314.785 237.329 314.156 237.837 312.872L233.188 311.033ZM101.301 395.31C104.434 395.077 107.84 394.788 111.458 394.449L110.991 389.471C107.401 389.807 104.026 390.093 100.93 390.324L101.301 395.31ZM121.552 393.428C124.814 393.076 128.184 392.692 131.627 392.279L131.032 387.315C127.608 387.726 124.258 388.107 121.016 388.457L121.552 393.428ZM141.686 391.015C145.011 390.578 148.371 390.118 151.738 389.637L151.03 384.687C147.683 385.166 144.342 385.623 141.034 386.058L141.686 391.015ZM161.776 388.139C165.147 387.614 168.495 387.07 171.792 386.509L170.952 381.58C167.681 382.137 164.356 382.677 161.007 383.198L161.776 388.139ZM181.79 384.721C185.225 384.074 188.564 383.41 191.769 382.731L190.732 377.84C187.569 378.51 184.268 379.167 180.865 379.807L181.79 384.721ZM201.7 380.465C205.303 379.574 208.64 378.662 211.629 377.733L210.145 372.958C207.272 373.851 204.033 374.738 200.5 375.611L201.7 380.465ZM221.447 373.992C223.394 373.028 225.093 371.961 226.282 370.752L222.718 367.246C222.101 367.873 220.978 368.645 219.228 369.511L221.447 373.992ZM226.997 368.879C226.91 367.07 226.854 365.323 226.83 363.628L221.83 363.699C221.855 365.455 221.913 367.259 222.003 369.119L226.997 368.879ZM227.122 353.198C227.388 349.654 227.829 346.261 228.45 342.892L223.532 341.986C222.879 345.531 222.415 349.102 222.136 352.824L227.122 353.198ZM230.852 332.756C231.767 329.555 232.845 326.258 234.093 322.762L229.384 321.082C228.108 324.655 226.996 328.056 226.045 331.381L230.852 332.756ZM237.837 312.872C238.468 311.277 239.128 309.635 239.816 307.94L235.184 306.058C234.491 307.765 233.825 309.421 233.188 311.033L237.837 312.872Z" fill="#007AFF"/>
<path d="M261.215 290.426C261.676 291.013 261.792 291.91 261.451 293.143C261.111 294.367 260.34 295.834 259.178 297.452C256.858 300.682 253.042 304.42 248.277 307.882C243.511 311.344 238.731 313.852 234.866 315.115C232.931 315.747 231.254 316.059 229.937 316.037C228.611 316.016 227.747 315.663 227.286 315.076C226.825 314.488 226.709 313.592 227.051 312.359C227.391 311.134 228.161 309.667 229.323 308.049C231.644 304.819 235.46 301.082 240.225 297.619C244.991 294.157 249.771 291.65 253.635 290.386C255.57 289.754 257.248 289.443 258.565 289.464C259.89 289.485 260.755 289.838 261.215 290.426Z" fill="#FDB209" stroke="#FDB209"/>
<path d="M258.769 292.312C259.121 292.762 259.218 293.471 258.925 294.489C258.634 295.497 257.983 296.714 257.001 298.063C255.04 300.757 251.827 303.886 247.822 306.796C243.816 309.707 239.808 311.823 236.579 312.9C234.961 313.439 233.567 313.708 232.48 313.701C231.383 313.694 230.7 313.41 230.347 312.961C229.995 312.511 229.898 311.801 230.191 310.784C230.482 309.776 231.133 308.559 232.115 307.21C234.076 304.516 237.289 301.387 241.294 298.476C245.3 295.566 249.308 293.45 252.537 292.373C254.155 291.834 255.549 291.564 256.636 291.571C257.733 291.578 258.416 291.863 258.769 292.312Z" fill="#DE9A00" stroke="#FDB209"/>
<path d="M266.43 286.549C267.056 287.352 267.183 288.565 266.707 290.19C266.235 291.806 265.192 293.734 263.64 295.852C260.539 300.085 255.478 304.986 249.187 309.535C242.895 314.084 236.596 317.398 231.51 319.084C228.964 319.929 226.75 320.356 225.007 320.342C223.254 320.329 222.08 319.873 221.453 319.07C220.827 318.267 220.7 317.054 221.175 315.429C221.648 313.813 222.691 311.885 224.243 309.766C227.343 305.534 232.404 300.633 238.696 296.084C244.988 291.534 251.287 288.221 256.373 286.535C258.918 285.69 261.132 285.263 262.875 285.277C264.629 285.29 265.803 285.746 266.43 286.549Z" stroke="black"/>
</svg>
