<svg width="874" height="815" viewBox="0 0 874 815" fill="none" xmlns="http://www.w3.org/2000/svg">
<circle cx="437" cy="408" r="378.5" fill="#EBEBEB" stroke="#595959" stroke-width="3"/>
<path d="M694.019 523.563C668.448 543.23 651.507 549.778 628 545.5L630.997 589.074C659.716 565.488 676.228 557.122 706.566 552.679C702.184 544.484 698.06 535.074 694.019 523.563Z" fill="#007AFF"/>
<path d="M742 599.537C727.564 583.376 716.414 571.1 706.566 552.679M494.972 75C553.72 92.7799 583.152 119.014 630.997 187.368C658.454 247.474 667.209 327.615 681.494 479.89C685.71 497.375 689.82 511.603 694.019 523.563M694.019 523.563C668.448 543.23 651.507 549.778 628 545.5L630.997 589.074C659.716 565.488 676.228 557.122 706.566 552.679M694.019 523.563C698.06 535.074 702.184 544.484 706.566 552.679" stroke="#595959" stroke-width="4" stroke-linecap="round"/>
<path d="M124.202 337.496C147.338 278.253 135.893 260.859 101 239.231C109.586 217.898 116.941 208.162 132.39 192.828C144.328 183.576 185.01 185.141 312.999 198.742C414.311 195.101 455.011 190.103 516.808 179.18C568.116 191.928 606.948 248.667 586.413 279.265C507.077 271.678 495.537 152.163 215 299.078C214.089 337.19 213.881 366.289 203 365.5C191.931 359.09 188.125 339.838 184.253 315.659C177.052 359.693 169.183 373.718 145.583 372.071C130.351 367.363 124.476 361.307 124.202 337.496Z" fill="white"/>
<path d="M184.253 315.659C177.052 359.693 169.183 373.718 145.583 372.071C130.351 367.363 124.476 361.307 124.202 337.496C147.338 278.253 135.893 260.859 101 239.231C109.586 217.898 116.941 208.162 132.39 192.828C144.328 183.576 185.01 185.141 312.999 198.742C414.311 195.101 455.011 190.103 516.808 179.18C568.116 191.928 606.948 248.667 586.413 279.265C507.077 271.678 495.537 152.163 215 299.078M184.253 315.659C188.125 339.838 191.931 359.09 203 365.5C213.881 366.289 214.089 337.19 215 299.078M184.253 315.659C194.847 309.789 205.091 304.268 215 299.078" stroke="#595959" stroke-width="4" stroke-linecap="round"/>
<path d="M226 322.5C264.5 269.671 357.061 256.948 422 269.671" stroke="#007AFF" stroke-width="5" stroke-linecap="round" stroke-dasharray="10 10"/>
<path d="M341.431 425.867C353.278 445.065 351.062 467.833 341.431 481.479C376.823 516.399 410.855 515.09 459.489 515.543C492.559 514.977 529.98 506.676 606 472.593C602.477 414.014 601.5 343.911 563.5 327.477C525.5 311.044 419.5 283.61 370.5 320.043C324.354 354.355 260.729 263.467 250 320.043C256.323 341.183 300.675 406.341 341.431 425.867Z" fill="white"/>
<path d="M341.431 425.867C353.278 445.065 351.062 467.833 341.431 481.479C376.823 516.399 410.855 515.09 459.489 515.543C492.559 514.977 529.98 506.676 606 472.593C602.477 414.014 601.5 343.911 563.5 327.477C525.5 311.044 419.5 283.61 370.5 320.043C324.354 354.355 260.729 263.467 250 320.043C256.323 341.183 300.675 406.341 341.431 425.867ZM341.431 425.867L359.691 432.528" stroke="#FDB209" stroke-width="4" stroke-linecap="round"/>
<path d="M192.029 483.049C151.375 432.787 144.656 413.986 161.858 397.994C189.435 389.626 205.045 392.477 233.908 449.027C223.777 416.839 221.646 403.431 224.451 388.373C232.257 381.383 251.62 383.283 278.702 444.956C286.76 445.581 295.661 446.921 306.407 449.027C347.821 478.873 367.943 498.859 426.64 510.529C462.017 513.752 486.538 512.064 577.944 473.453C616.527 463.198 624.671 473.146 627.929 503.986C627.694 591.208 629.922 639.044 659 712.918L616.221 742.578C531.682 660.91 485.628 627.512 409.979 627.862C303.3 642.957 248.727 648.819 224.451 623.064C203.572 616.721 200.239 563.91 192.029 483.049Z" fill="white"/>
<path d="M233.908 449.027C205.045 392.477 189.435 389.626 161.858 397.994C144.656 413.986 151.375 432.787 192.029 483.049C200.239 563.91 203.572 616.721 224.451 623.064C248.727 648.819 303.3 642.957 409.979 627.862C485.628 627.512 531.682 660.91 616.221 742.578L659 712.918C629.922 639.044 627.694 591.208 627.929 503.986C624.671 473.146 616.527 463.198 577.944 473.453C486.538 512.064 462.017 513.752 426.64 510.529C367.943 498.859 347.821 478.873 306.407 449.027C295.661 446.921 286.76 445.581 278.702 444.956M233.908 449.027C223.777 416.839 221.646 403.431 224.451 388.373C232.257 381.383 251.62 383.283 278.702 444.956M233.908 449.027C250.559 445.222 263.037 443.739 278.702 444.956" stroke="#595959" stroke-width="4" stroke-linecap="round"/>
</svg>
