<svg width="167" height="72" viewBox="0 0 167 72" fill="none" xmlns="http://www.w3.org/2000/svg">
<path d="M2.5 26V46.5M10.5 29V41.5M18.5 13.5V59" stroke="white" stroke-width="4" stroke-linecap="round"/>
<path d="M26.5 2V49M35 23V70M43 10V61M51 27V42" stroke="white" stroke-width="4" stroke-linecap="round"/>
<path d="M59 25V47M67.5 28.5V42M75.5 13V59.5M83.5 2V48.5M91.5 23V69.5M100 9.5V61.5M107.5 26.5V42M116 25V47M124 28.5V42M132.5 13V59.5M140.5 2V49M148.5 22.5V69.5M156.5 9.5V61.5M165 26.5V42" stroke="white" stroke-width="4" stroke-linecap="round"/>
</svg>
