<svg width="874" height="815" viewBox="0 0 874 815" fill="none" xmlns="http://www.w3.org/2000/svg">
<circle cx="438" cy="408" r="378.5" fill="white" stroke="#595959" stroke-width="3"/>
<path d="M743 599.537C728.564 583.376 717.414 571.1 707.565 552.679M495.972 75C554.72 92.7798 584.152 119.014 631.997 187.368C659.454 247.474 668.209 327.615 682.494 479.89C686.71 497.375 690.82 511.603 695.019 523.563M631.997 545.4C655.504 549.678 669.448 543.23 695.019 523.563M695.019 523.563C699.06 535.074 703.184 544.484 707.565 552.679M631.997 589.074C660.716 565.488 677.228 557.122 707.565 552.679" stroke="#595959" stroke-width="4" stroke-linecap="round"/>
<path d="M125.202 337.496C148.338 278.253 136.893 260.859 102 239.231C110.586 217.898 117.941 208.162 133.39 192.828C145.328 183.576 186.01 185.141 313.999 198.742C415.311 195.101 456.011 190.103 517.808 179.18C569.116 191.928 607.948 248.667 587.413 279.265C508.077 271.678 496.537 152.163 216 299.078C215.089 337.19 214.881 366.289 204 365.5C192.931 359.09 189.125 339.838 185.253 315.659C178.052 359.693 170.183 373.718 146.583 372.071C131.351 367.363 125.476 361.307 125.202 337.496Z" fill="white"/>
<path d="M185.253 315.659C178.052 359.693 170.183 373.718 146.583 372.071C131.351 367.363 125.476 361.307 125.202 337.496C148.338 278.253 136.893 260.859 102 239.231C110.586 217.898 117.941 208.162 133.39 192.828C145.328 183.576 186.01 185.141 313.999 198.742C415.311 195.101 456.011 190.103 517.808 179.18C569.116 191.928 607.948 248.667 587.413 279.265C508.077 271.678 496.537 152.163 216 299.078M185.253 315.659C189.125 339.838 192.931 359.09 204 365.5C214.881 366.289 215.089 337.19 216 299.078M185.253 315.659C195.847 309.789 206.091 304.268 216 299.078" stroke="#595959" stroke-width="4" stroke-linecap="round"/>
<path d="M222 371.999L247.343 358.176L222.701 343.14L222 371.999ZM462.265 246.889C463.584 247.295 464.983 246.554 465.389 245.235C465.795 243.915 465.055 242.516 463.735 242.11L462.265 246.889ZM226.667 369.15C227.395 367.976 227.034 366.435 225.861 365.707C224.687 364.979 223.146 365.34 222.418 366.514L226.667 369.15ZM227.72 358.243C226.958 359.394 227.273 360.946 228.424 361.708C229.576 362.47 231.127 362.155 231.889 361.003L227.72 358.243ZM237.349 353.015C238.145 351.887 237.876 350.327 236.748 349.531C235.62 348.735 234.06 349.005 233.264 350.133L237.349 353.015ZM239.047 342.191C238.218 343.295 238.44 344.862 239.544 345.691C240.648 346.52 242.215 346.298 243.044 345.194L239.047 342.191ZM248.971 337.547C249.833 336.468 249.657 334.895 248.579 334.033C247.5 333.171 245.927 333.346 245.065 334.425L248.971 337.547ZM251.316 326.843C250.421 327.895 250.549 329.473 251.601 330.367C252.652 331.262 254.23 331.134 255.125 330.082L251.316 326.843ZM261.503 322.81C262.429 321.787 262.35 320.206 261.326 319.279C260.303 318.353 258.722 318.432 257.795 319.456L261.503 322.81ZM264.502 312.272C263.544 313.266 263.573 314.849 264.568 315.807C265.562 316.764 267.145 316.735 268.103 315.74L264.502 312.272ZM274.921 308.883C275.91 307.919 275.931 306.337 274.967 305.348C274.004 304.359 272.421 304.338 271.432 305.301L274.921 308.883ZM278.584 298.556C277.565 299.487 277.493 301.068 278.423 302.088C279.354 303.108 280.935 303.18 281.955 302.249L278.584 298.556ZM289.202 295.851C290.252 294.955 290.377 293.377 289.481 292.326C288.584 291.276 287.006 291.152 285.956 292.048L289.202 295.851ZM293.545 285.791C292.465 286.65 292.286 288.223 293.146 289.304C294.006 290.384 295.579 290.562 296.659 289.702L293.545 285.791ZM304.323 283.818C305.433 282.996 305.667 281.431 304.846 280.321C304.024 279.211 302.459 278.977 301.349 279.799L304.323 283.818ZM309.365 274.088C308.226 274.869 307.935 276.425 308.715 277.564C309.496 278.703 311.052 278.993 312.191 278.213L309.365 274.088ZM320.258 272.906C321.426 272.169 321.775 270.625 321.038 269.457C320.301 268.29 318.757 267.94 317.59 268.677L320.258 272.906ZM326.02 263.585C324.824 264.275 324.414 265.804 325.105 267C325.795 268.196 327.324 268.605 328.52 267.915L326.02 263.585ZM336.971 263.261C338.194 262.62 338.666 261.109 338.025 259.886C337.384 258.663 335.873 258.192 334.65 258.832L336.971 263.261ZM343.476 254.444C342.227 255.032 341.691 256.521 342.279 257.77C342.867 259.019 344.356 259.556 345.605 258.968L343.476 254.444ZM354.414 255.059C355.688 254.527 356.29 253.063 355.759 251.789C355.227 250.515 353.763 249.912 352.489 250.444L354.414 255.059ZM361.68 246.86C360.382 247.331 359.712 248.765 360.183 250.063C360.654 251.361 362.088 252.031 363.385 251.561L361.68 246.86ZM372.509 248.502C373.828 248.095 374.569 246.696 374.163 245.377C373.756 244.057 372.357 243.317 371.038 243.723L372.509 248.502ZM380.548 241.062C379.209 241.399 378.396 242.758 378.733 244.097C379.07 245.436 380.429 246.248 381.768 245.911L380.548 241.062ZM391.155 243.818C392.51 243.555 393.395 242.243 393.132 240.887C392.869 239.532 391.557 238.646 390.201 238.91L391.155 243.818ZM399.965 237.302C398.597 237.486 397.638 238.745 397.822 240.114C398.007 241.482 399.266 242.441 400.634 242.257L399.965 237.302ZM410.181 241.258C411.558 241.156 412.591 239.957 412.489 238.58C412.387 237.203 411.188 236.169 409.812 236.271L410.181 241.258ZM419.707 235.85C418.327 235.865 417.22 236.996 417.235 238.377C417.25 239.757 418.381 240.864 419.761 240.849L419.707 235.85ZM429.342 241.058C430.72 241.134 431.899 240.077 431.975 238.699C432.051 237.32 430.994 236.141 429.616 236.066L429.342 241.058ZM439.494 236.942C438.124 236.774 436.876 237.748 436.707 239.118C436.538 240.488 437.512 241.736 438.882 241.905L439.494 236.942ZM448.338 243.404C449.693 243.668 451.005 242.783 451.269 241.427C451.533 240.072 450.648 238.76 449.292 238.496L448.338 243.404ZM458.959 240.733C457.626 240.375 456.254 241.165 455.896 242.498C455.537 243.831 456.327 245.203 457.66 245.562L458.959 240.733ZM231.889 361.003C233.674 358.307 235.495 355.644 237.349 353.015L233.264 350.133C231.381 352.802 229.532 355.506 227.72 358.243L231.889 361.003ZM243.044 345.194C244.987 342.608 246.963 340.058 248.971 337.547L245.065 334.425C243.026 336.975 241.02 339.564 239.047 342.191L243.044 345.194ZM255.125 330.082C257.221 327.617 259.347 325.193 261.503 322.81L257.795 319.456C255.605 321.877 253.445 324.34 251.316 326.843L255.125 330.082ZM268.103 315.74C270.348 313.409 272.621 311.123 274.921 308.883L271.432 305.301C269.094 307.579 266.783 309.903 264.502 312.272L268.103 315.74ZM281.955 302.249C284.346 300.067 286.762 297.933 289.202 295.851L285.956 292.048C283.474 294.167 281.016 296.337 278.584 298.556L281.955 302.249ZM296.659 289.702C299.192 287.686 301.747 285.724 304.323 283.818L301.349 279.799C298.725 281.74 296.123 283.738 293.545 285.791L296.659 289.702ZM312.191 278.213C314.861 276.384 317.551 274.614 320.258 272.906L317.59 268.677C314.829 270.419 312.086 272.224 309.365 274.088L312.191 278.213ZM328.52 267.915C331.322 266.297 334.14 264.745 336.971 263.261L334.65 258.832C331.757 260.349 328.88 261.933 326.02 263.585L328.52 267.915ZM345.605 258.968C348.53 257.591 351.467 256.287 354.414 255.059L352.489 250.444C349.472 251.702 346.467 253.036 343.476 254.444L345.605 258.968ZM363.385 251.561C366.42 250.46 369.462 249.439 372.509 248.502L371.038 243.723C367.91 244.685 364.79 245.732 361.68 246.86L363.385 251.561ZM381.768 245.911C384.895 245.124 388.025 244.426 391.155 243.818L390.201 238.91C386.98 239.535 383.762 240.253 380.548 241.062L381.768 245.911ZM400.634 242.257C403.82 241.826 407.003 241.493 410.181 241.258L409.812 236.271C406.532 236.514 403.249 236.858 399.965 237.302L400.634 242.257ZM419.761 240.849C422.964 240.815 426.159 240.884 429.342 241.058L429.616 236.066C426.322 235.885 423.018 235.814 419.707 235.85L419.761 240.849ZM438.882 241.905C442.049 242.295 445.202 242.794 448.338 243.404L449.292 238.496C446.042 237.864 442.774 237.347 439.494 236.942L438.882 241.905ZM457.66 245.562C459.2 245.976 460.735 246.418 462.265 246.889L463.735 242.11C462.148 241.622 460.556 241.163 458.959 240.733L457.66 245.562Z" fill="#007AFF"/>
<path d="M340.944 410.752C352.858 430.197 346.686 465.756 337 479.577C372.592 514.944 406.815 513.618 455.721 514.077C488.978 513.504 533.553 505.595 610 471.077C606.457 411.748 601.272 358.7 558.743 311.104C531.838 280.994 448.035 235.954 386 252.577C337.708 265.517 276.789 293.277 266 350.577C272.359 371.987 299.96 390.976 340.944 410.752Z" fill="white"/>
<path d="M340.944 410.752C352.858 430.197 346.686 465.756 337 479.577C372.592 514.944 406.815 513.618 455.721 514.077C488.978 513.504 533.553 505.595 610 471.077C606.457 411.748 601.272 358.7 558.743 311.104C531.838 280.994 448.035 235.954 386 252.577C337.708 265.517 276.789 293.277 266 350.577C272.359 371.987 299.96 390.976 340.944 410.752ZM340.944 410.752L359.308 417.498" stroke="#FDB209" stroke-width="4" stroke-linecap="round"/>
<path d="M192.029 483.048C151.375 432.786 144.656 413.985 161.858 397.993C189.435 389.625 205.045 392.476 233.908 449.026C223.777 416.838 221.646 403.43 224.451 388.372C232.257 381.382 251.62 383.282 278.702 444.955C286.76 445.58 295.661 446.92 306.407 449.026C347.821 478.872 367.943 498.858 426.64 510.528C462.017 513.751 486.538 512.063 577.944 473.452C616.527 463.197 624.671 473.145 627.929 503.985C627.694 591.207 629.922 639.043 659 712.917L616.221 742.577C531.682 660.909 485.628 627.511 409.979 627.861C303.3 642.956 248.727 648.818 224.451 623.063C203.572 616.72 200.239 563.909 192.029 483.048Z" fill="white"/>
<path d="M233.908 449.026C205.045 392.476 189.435 389.625 161.858 397.993C144.656 413.985 151.375 432.786 192.029 483.048C200.239 563.909 203.572 616.72 224.451 623.063C248.727 648.818 303.3 642.956 409.979 627.861C485.628 627.511 531.682 660.909 616.221 742.577L659 712.917C629.922 639.043 627.694 591.207 627.929 503.985C624.671 473.145 616.527 463.197 577.944 473.452C486.538 512.063 462.017 513.751 426.64 510.528C367.943 498.858 347.821 478.872 306.407 449.026C295.661 446.92 286.76 445.58 278.702 444.955M233.908 449.026C223.777 416.838 221.646 403.43 224.451 388.372C232.257 381.382 251.62 383.282 278.702 444.955M233.908 449.026C250.559 445.221 263.037 443.738 278.702 444.955" stroke="#595959" stroke-width="4" stroke-linecap="round"/>
<path d="M412.315 237.927C412.429 238.687 412.132 239.536 411.359 240.446C410.587 241.355 409.38 242.274 407.805 243.141C404.659 244.872 400.139 246.342 394.994 247.12C389.849 247.898 385.097 247.83 381.579 247.106C379.818 246.744 378.394 246.223 377.388 245.583C376.38 244.942 375.845 244.219 375.73 243.459C375.615 242.699 375.913 241.85 376.686 240.94C377.458 240.031 378.664 239.112 380.239 238.246C383.386 236.514 387.906 235.044 393.051 234.266C398.196 233.488 402.948 233.556 406.466 234.28C408.227 234.643 409.651 235.164 410.657 235.804C411.664 236.445 412.2 237.167 412.315 237.927Z" fill="#FDB209" stroke="#FDB209"/>
<path d="M409.622 238.423C409.711 239.01 409.477 239.685 408.833 240.429C408.19 241.17 407.181 241.926 405.859 242.642C403.217 244.073 399.42 245.294 395.097 245.948C390.773 246.602 386.785 246.557 383.839 245.971C382.363 245.678 381.177 245.254 380.343 244.736C379.508 244.217 379.084 243.641 378.996 243.053C378.907 242.466 379.141 241.791 379.785 241.048C380.428 240.306 381.437 239.551 382.759 238.834C385.401 237.404 389.198 236.182 393.521 235.528C397.845 234.874 401.833 234.919 404.779 235.505C406.255 235.798 407.441 236.222 408.275 236.74C409.11 237.26 409.534 237.835 409.622 238.423Z" fill="#DE9A00" stroke="#FDB209"/>
<path d="M417.991 236.996C418.144 238.025 417.722 239.157 416.681 240.349C415.642 241.538 414.03 242.732 411.942 243.855C407.769 246.097 401.794 247.998 395.007 249.007C388.22 250.015 381.95 249.934 377.305 249.002C374.981 248.535 373.092 247.861 371.752 247.025C370.409 246.188 369.676 245.228 369.523 244.199C369.37 243.17 369.793 242.038 370.833 240.846C371.873 239.657 373.484 238.463 375.573 237.34C379.745 235.098 385.721 233.197 392.508 232.188C399.294 231.18 405.565 231.261 410.209 232.193C412.533 232.66 414.423 233.334 415.763 234.17C417.105 235.007 417.838 235.967 417.991 236.996Z" stroke="black"/>
</svg>
