<svg width="874" height="815" viewBox="0 0 874 815" fill="none" xmlns="http://www.w3.org/2000/svg">
<circle cx="438" cy="408" r="378.5" fill="white" stroke="#595959" stroke-width="3"/>
<path d="M743 599.537C728.564 583.376 717.414 571.1 707.565 552.679M495.972 75C554.72 92.7798 584.152 119.014 631.997 187.368C659.454 247.474 668.209 327.615 682.494 479.89C686.71 497.375 690.82 511.603 695.019 523.563M631.997 545.4C655.504 549.678 669.448 543.23 695.019 523.563M695.019 523.563C699.06 535.074 703.184 544.484 707.565 552.679M631.997 589.074C660.716 565.488 677.228 557.122 707.565 552.679" stroke="#595959" stroke-width="4" stroke-linecap="round"/>
<path d="M125.202 337.496C148.338 278.253 136.893 260.859 102 239.231C110.586 217.898 117.941 208.162 133.39 192.828C145.328 183.576 186.01 185.141 313.999 198.742C415.311 195.101 456.011 190.103 517.808 179.18C569.116 191.928 607.948 248.667 587.413 279.265C508.077 271.678 496.537 152.163 216 299.078C215.089 337.19 214.881 366.289 204 365.5C192.931 359.09 189.125 339.838 185.253 315.659C178.052 359.693 170.183 373.718 146.583 372.071C131.351 367.363 125.476 361.307 125.202 337.496Z" fill="white"/>
<path d="M185.253 315.659C178.052 359.693 170.183 373.718 146.583 372.071C131.351 367.363 125.476 361.307 125.202 337.496C148.338 278.253 136.893 260.859 102 239.231C110.586 217.898 117.941 208.162 133.39 192.828C145.328 183.576 186.01 185.141 313.999 198.742C415.311 195.101 456.011 190.103 517.808 179.18C569.116 191.928 607.948 248.667 587.413 279.265C508.077 271.678 496.537 152.163 216 299.078M185.253 315.659C189.125 339.838 192.931 359.09 204 365.5C214.881 366.289 215.089 337.19 216 299.078M185.253 315.659C195.847 309.789 206.091 304.268 216 299.078" stroke="#595959" stroke-width="4" stroke-linecap="round"/>
<path d="M455.5 244L480.315 258.749L480.68 229.883L455.5 244ZM641.576 466.114C641.915 467.452 643.275 468.262 644.614 467.924C645.952 467.585 646.762 466.225 646.424 464.886L641.576 466.114ZM460.34 246.561C461.72 246.604 462.874 245.521 462.917 244.141C462.961 242.761 461.877 241.607 460.497 241.564L460.34 246.561ZM470.42 242.251C469.047 242.103 467.814 243.096 467.666 244.469C467.518 245.842 468.511 247.075 469.884 247.223L470.42 242.251ZM479.344 248.617C480.701 248.871 482.008 247.978 482.262 246.621C482.517 245.264 481.623 243.957 480.266 243.703L479.344 248.617ZM489.97 245.92C488.637 245.56 487.264 246.349 486.904 247.681C486.544 249.014 487.333 250.387 488.666 250.747L489.97 245.92ZM497.795 253.599C499.096 254.062 500.525 253.382 500.988 252.081C501.45 250.78 500.771 249.351 499.47 248.888L497.795 253.599ZM508.71 252.574C507.448 252.015 505.971 252.585 505.411 253.847C504.852 255.109 505.422 256.586 506.684 257.145L508.71 252.574ZM515.294 261.343C516.513 261.993 518.027 261.531 518.676 260.313C519.326 259.094 518.864 257.58 517.646 256.931L515.294 261.343ZM526.245 261.902C525.073 261.171 523.531 261.527 522.8 262.698C522.069 263.87 522.425 265.412 523.597 266.143L526.245 261.902ZM531.572 271.49C532.694 272.295 534.255 272.038 535.06 270.916C535.865 269.794 535.608 268.232 534.486 267.427L531.572 271.49ZM542.362 273.446C541.29 272.575 539.716 272.739 538.845 273.811C537.975 274.883 538.138 276.457 539.21 277.327L542.362 273.446ZM546.51 283.601C547.532 284.53 549.114 284.453 550.042 283.431C550.97 282.409 550.893 280.828 549.871 279.9L546.51 283.601ZM557.021 286.735C556.047 285.756 554.464 285.752 553.485 286.726C552.506 287.699 552.502 289.282 553.476 290.261L557.021 286.735ZM560.116 297.26C561.043 298.283 562.624 298.361 563.648 297.434C564.671 296.507 564.749 294.926 563.822 293.903L560.116 297.26ZM570.289 301.362C569.407 300.3 567.831 300.154 566.769 301.036C565.707 301.919 565.561 303.495 566.443 304.557L570.289 301.362ZM572.469 312.116C573.308 313.212 574.877 313.42 575.973 312.581C577.07 311.741 577.278 310.172 576.438 309.076L572.469 312.116ZM582.286 317.011C581.487 315.885 579.926 315.62 578.8 316.419C577.674 317.218 577.409 318.778 578.208 319.904L582.286 317.011ZM583.674 327.896C584.434 329.048 585.985 329.366 587.138 328.605C588.29 327.845 588.608 326.294 587.847 325.142L583.674 327.896ZM593.139 333.443C592.415 332.268 590.875 331.902 589.699 332.626C588.524 333.35 588.158 334.89 588.882 336.066L593.139 333.443ZM593.844 344.394C594.534 345.59 596.062 346 597.258 345.311C598.455 344.621 598.865 343.092 598.176 341.896L593.844 344.394ZM602.971 350.483C602.314 349.269 600.797 348.817 599.582 349.474C598.368 350.131 597.916 351.648 598.573 352.862L602.971 350.483ZM603.08 361.455C603.706 362.686 605.211 363.176 606.442 362.55C607.673 361.924 608.163 360.419 607.537 359.188L603.08 361.455ZM611.886 368C611.29 366.754 609.797 366.228 608.551 366.825C607.306 367.421 606.78 368.914 607.377 370.16L611.886 368ZM611.472 378.964C612.04 380.222 613.521 380.781 614.779 380.213C616.037 379.645 616.597 378.164 616.028 376.906L611.472 378.964ZM619.973 385.897C619.432 384.627 617.963 384.036 616.693 384.578C615.423 385.119 614.832 386.588 615.374 387.858L619.973 385.897ZM619.091 396.833C619.606 398.114 621.062 398.734 622.343 398.219C623.624 397.703 624.245 396.247 623.729 394.966L619.091 396.833ZM627.304 404.106C626.813 402.815 625.369 402.166 624.079 402.657C622.788 403.147 622.139 404.591 622.63 405.882L627.304 404.106ZM625.996 414.999C626.463 416.299 627.894 416.974 629.194 416.508C630.493 416.042 631.169 414.61 630.703 413.311L625.996 414.999ZM633.932 422.576C633.489 421.268 632.07 420.567 630.762 421.009C629.455 421.452 628.753 422.871 629.196 424.179L633.932 422.576ZM632.232 433.417C632.651 434.733 634.058 435.459 635.373 435.04C636.688 434.62 637.415 433.214 636.995 431.898L632.232 433.417ZM639.896 441.275C639.499 439.952 638.106 439.202 636.783 439.598C635.46 439.995 634.71 441.388 635.106 442.711L639.896 441.275ZM637.821 452.055C638.194 453.384 639.575 454.159 640.904 453.785C642.233 453.412 643.008 452.031 642.634 450.702L637.821 452.055ZM645.209 460.176C644.858 458.84 643.492 458.042 642.156 458.392C640.821 458.743 640.022 460.109 640.373 461.445L645.209 460.176ZM469.884 247.223C473.087 247.568 476.241 248.035 479.344 248.617L480.266 243.703C477.035 243.097 473.753 242.611 470.42 242.251L469.884 247.223ZM488.666 250.747C491.76 251.583 494.803 252.536 497.795 253.599L499.47 248.888C496.357 247.782 493.191 246.79 489.97 245.92L488.666 250.747ZM506.684 257.145C509.604 258.439 512.474 259.841 515.294 261.343L517.646 256.931C514.721 255.372 511.743 253.918 508.71 252.574L506.684 257.145ZM523.597 266.143C526.303 267.833 528.961 269.617 531.572 271.49L534.486 267.427C531.792 265.494 529.045 263.65 526.245 261.902L523.597 266.143ZM539.21 277.327C541.689 279.34 544.122 281.433 546.51 283.601L549.871 279.9C547.418 277.672 544.915 275.519 542.362 273.446L539.21 277.327ZM553.476 290.261C555.733 292.529 557.946 294.864 560.116 297.26L563.822 293.903C561.601 291.452 559.334 289.06 557.021 286.735L553.476 290.261ZM566.443 304.557C568.492 307.025 570.501 309.546 572.469 312.116L576.438 309.076C574.432 306.456 572.382 303.883 570.289 301.362L566.443 304.557ZM578.208 319.904C580.069 322.528 581.891 325.193 583.674 327.896L587.847 325.142C586.034 322.394 584.18 319.682 582.286 317.011L578.208 319.904ZM588.882 336.066C590.573 338.812 592.227 341.59 593.844 344.394L598.176 341.896C596.536 339.052 594.857 336.232 593.139 333.443L588.882 336.066ZM598.573 352.862C600.112 355.707 601.614 358.573 603.08 361.455L607.537 359.188C606.052 356.27 604.531 353.366 602.971 350.483L598.573 352.862ZM607.377 370.16C608.778 373.085 610.143 376.021 611.472 378.964L616.028 376.906C614.684 373.93 613.304 370.959 611.886 368L607.377 370.16ZM615.374 387.858C616.649 390.85 617.888 393.843 619.091 396.833L623.729 394.966C622.514 391.946 621.262 388.921 619.973 385.897L615.374 387.858ZM622.63 405.882C623.789 408.932 624.911 411.973 625.996 414.999L630.703 413.311C629.607 410.256 628.474 407.186 627.304 404.106L622.63 405.882ZM629.196 424.179C630.246 427.283 631.258 430.365 632.232 433.417L636.995 431.898C636.013 428.818 634.992 425.709 633.932 422.576L629.196 424.179ZM635.106 442.711C636.053 445.868 636.957 448.985 637.821 452.055L642.634 450.702C641.763 447.604 640.851 444.46 639.896 441.275L635.106 442.711ZM640.373 461.445C640.785 463.017 641.187 464.573 641.576 466.114L646.424 464.886C646.03 463.332 645.625 461.762 645.209 460.176L640.373 461.445Z" fill="#007AFF"/>
<path d="M455.5 244L480.315 258.749L480.68 229.883L455.5 244ZM641.576 466.114C641.915 467.452 643.275 468.262 644.614 467.924C645.952 467.585 646.762 466.225 646.424 464.886L641.576 466.114ZM460.34 246.561C461.72 246.604 462.874 245.521 462.917 244.141C462.961 242.761 461.877 241.607 460.497 241.564L460.34 246.561ZM470.42 242.251C469.047 242.103 467.814 243.096 467.666 244.469C467.518 245.842 468.511 247.075 469.884 247.223L470.42 242.251ZM479.344 248.617C480.701 248.871 482.008 247.978 482.262 246.621C482.517 245.264 481.623 243.957 480.266 243.703L479.344 248.617ZM489.97 245.92C488.637 245.56 487.264 246.349 486.904 247.681C486.544 249.014 487.333 250.387 488.666 250.747L489.97 245.92ZM497.795 253.599C499.096 254.062 500.525 253.382 500.988 252.081C501.45 250.78 500.771 249.351 499.47 248.888L497.795 253.599ZM508.71 252.574C507.448 252.015 505.971 252.585 505.411 253.847C504.852 255.109 505.422 256.586 506.684 257.145L508.71 252.574ZM515.294 261.343C516.513 261.993 518.027 261.531 518.676 260.313C519.326 259.094 518.864 257.58 517.646 256.931L515.294 261.343ZM526.245 261.902C525.073 261.171 523.531 261.527 522.8 262.698C522.069 263.87 522.425 265.412 523.597 266.143L526.245 261.902ZM531.572 271.49C532.694 272.295 534.255 272.038 535.06 270.916C535.865 269.794 535.608 268.232 534.486 267.427L531.572 271.49ZM542.362 273.446C541.29 272.575 539.716 272.739 538.845 273.811C537.975 274.883 538.138 276.457 539.21 277.327L542.362 273.446ZM546.51 283.601C547.532 284.53 549.114 284.453 550.042 283.431C550.97 282.409 550.893 280.828 549.871 279.9L546.51 283.601ZM557.021 286.735C556.047 285.756 554.464 285.752 553.485 286.726C552.506 287.699 552.502 289.282 553.476 290.261L557.021 286.735ZM560.116 297.26C561.043 298.283 562.624 298.361 563.648 297.434C564.671 296.507 564.749 294.926 563.822 293.903L560.116 297.26ZM570.289 301.362C569.407 300.3 567.831 300.154 566.769 301.036C565.707 301.919 565.561 303.495 566.443 304.557L570.289 301.362ZM572.469 312.116C573.308 313.212 574.877 313.42 575.973 312.581C577.07 311.741 577.278 310.172 576.438 309.076L572.469 312.116ZM582.286 317.011C581.487 315.885 579.926 315.62 578.8 316.419C577.674 317.218 577.409 318.778 578.208 319.904L582.286 317.011ZM583.674 327.896C584.434 329.048 585.985 329.366 587.138 328.605C588.29 327.845 588.608 326.294 587.847 325.142L583.674 327.896ZM593.139 333.443C592.415 332.268 590.875 331.902 589.699 332.626C588.524 333.35 588.158 334.89 588.882 336.066L593.139 333.443ZM593.844 344.394C594.534 345.59 596.062 346 597.258 345.311C598.455 344.621 598.865 343.092 598.176 341.896L593.844 344.394ZM602.971 350.483C602.314 349.269 600.797 348.817 599.582 349.474C598.368 350.131 597.916 351.648 598.573 352.862L602.971 350.483ZM603.08 361.455C603.706 362.686 605.211 363.176 606.442 362.55C607.673 361.924 608.163 360.419 607.537 359.188L603.08 361.455ZM611.886 368C611.29 366.754 609.797 366.228 608.551 366.825C607.306 367.421 606.78 368.914 607.377 370.16L611.886 368ZM611.472 378.964C612.04 380.222 613.521 380.781 614.779 380.213C616.037 379.645 616.597 378.164 616.028 376.906L611.472 378.964ZM619.973 385.897C619.432 384.627 617.963 384.036 616.693 384.578C615.423 385.119 614.832 386.588 615.374 387.858L619.973 385.897ZM619.091 396.833C619.606 398.114 621.062 398.734 622.343 398.219C623.624 397.703 624.245 396.247 623.729 394.966L619.091 396.833ZM627.304 404.106C626.813 402.815 625.369 402.166 624.079 402.657C622.788 403.147 622.139 404.591 622.63 405.882L627.304 404.106ZM625.996 414.999C626.463 416.299 627.894 416.974 629.194 416.508C630.493 416.042 631.169 414.61 630.703 413.311L625.996 414.999ZM633.932 422.576C633.489 421.268 632.07 420.567 630.762 421.009C629.455 421.452 628.753 422.871 629.196 424.179L633.932 422.576ZM632.232 433.417C632.651 434.733 634.058 435.459 635.373 435.04C636.688 434.62 637.415 433.214 636.995 431.898L632.232 433.417ZM639.896 441.275C639.499 439.952 638.106 439.202 636.783 439.598C635.46 439.995 634.71 441.388 635.106 442.711L639.896 441.275ZM637.821 452.055C638.194 453.384 639.575 454.159 640.904 453.785C642.233 453.412 643.008 452.031 642.634 450.702L637.821 452.055ZM645.209 460.176C644.858 458.84 643.492 458.042 642.156 458.392C640.821 458.743 640.022 460.109 640.373 461.445L645.209 460.176ZM469.884 247.223C473.087 247.568 476.241 248.035 479.344 248.617L480.266 243.703C477.035 243.097 473.753 242.611 470.42 242.251L469.884 247.223ZM488.666 250.747C491.76 251.583 494.803 252.536 497.795 253.599L499.47 248.888C496.357 247.782 493.191 246.79 489.97 245.92L488.666 250.747ZM506.684 257.145C509.604 258.439 512.474 259.841 515.294 261.343L517.646 256.931C514.721 255.372 511.743 253.918 508.71 252.574L506.684 257.145ZM523.597 266.143C526.303 267.833 528.961 269.617 531.572 271.49L534.486 267.427C531.792 265.494 529.045 263.65 526.245 261.902L523.597 266.143ZM539.21 277.327C541.689 279.34 544.122 281.433 546.51 283.601L549.871 279.9C547.418 277.672 544.915 275.519 542.362 273.446L539.21 277.327ZM553.476 290.261C555.733 292.529 557.946 294.864 560.116 297.26L563.822 293.903C561.601 291.452 559.334 289.06 557.021 286.735L553.476 290.261ZM566.443 304.557C568.492 307.025 570.501 309.546 572.469 312.116L576.438 309.076C574.432 306.456 572.382 303.883 570.289 301.362L566.443 304.557ZM578.208 319.904C580.069 322.528 581.891 325.193 583.674 327.896L587.847 325.142C586.034 322.394 584.18 319.682 582.286 317.011L578.208 319.904ZM588.882 336.066C590.573 338.812 592.227 341.59 593.844 344.394L598.176 341.896C596.536 339.052 594.857 336.232 593.139 333.443L588.882 336.066ZM598.573 352.862C600.112 355.707 601.614 358.573 603.08 361.455L607.537 359.188C606.052 356.27 604.531 353.366 602.971 350.483L598.573 352.862ZM607.377 370.16C608.778 373.085 610.143 376.021 611.472 378.964L616.028 376.906C614.684 373.93 613.304 370.959 611.886 368L607.377 370.16ZM615.374 387.858C616.649 390.85 617.888 393.843 619.091 396.833L623.729 394.966C622.514 391.946 621.262 388.921 619.973 385.897L615.374 387.858ZM622.63 405.882C623.789 408.932 624.911 411.973 625.996 414.999L630.703 413.311C629.607 410.256 628.474 407.186 627.304 404.106L622.63 405.882ZM629.196 424.179C630.246 427.283 631.258 430.365 632.232 433.417L636.995 431.898C636.013 428.818 634.992 425.709 633.932 422.576L629.196 424.179ZM635.106 442.711C636.053 445.868 636.957 448.985 637.821 452.055L642.634 450.702C641.763 447.604 640.851 444.46 639.896 441.275L635.106 442.711ZM640.373 461.445C640.785 463.017 641.187 464.573 641.576 466.114L646.424 464.886C646.03 463.332 645.625 461.762 645.209 460.176L640.373 461.445Z" fill="#007AFF"/>
<path d="M340.944 410.752C352.858 430.197 346.686 465.756 337 479.577C372.592 514.944 406.815 513.618 455.721 514.077C488.978 513.504 533.553 505.595 610 471.077C606.457 411.748 601.272 358.7 558.743 311.104C531.838 280.994 448.035 235.954 386 252.577C337.708 265.517 276.789 293.277 266 350.577C272.359 371.987 299.96 390.976 340.944 410.752Z" fill="white"/>
<path d="M340.944 410.752C352.858 430.197 346.686 465.756 337 479.577C372.592 514.944 406.815 513.618 455.721 514.077C488.978 513.504 533.553 505.595 610 471.077C606.457 411.748 601.272 358.7 558.743 311.104C531.838 280.994 448.035 235.954 386 252.577C337.708 265.517 276.789 293.277 266 350.577C272.359 371.987 299.96 390.976 340.944 410.752ZM340.944 410.752L359.308 417.498" stroke="#FDB209" stroke-width="4" stroke-linecap="round"/>
<path d="M192.029 483.048C151.375 432.786 144.656 413.985 161.858 397.993C189.435 389.625 205.045 392.476 233.908 449.026C223.777 416.838 221.646 403.43 224.451 388.372C232.257 381.382 251.62 383.282 278.702 444.955C286.76 445.58 295.661 446.92 306.407 449.026C347.821 478.872 367.943 498.858 426.64 510.528C462.017 513.751 486.538 512.063 577.944 473.452C616.527 463.197 624.671 473.145 627.929 503.985C627.694 591.207 629.922 639.043 659 712.917L616.221 742.577C531.682 660.909 485.628 627.511 409.979 627.861C303.3 642.956 248.727 648.818 224.451 623.063C203.572 616.72 200.239 563.909 192.029 483.048Z" fill="white"/>
<path d="M233.908 449.026C205.045 392.476 189.435 389.625 161.858 397.993C144.656 413.985 151.375 432.786 192.029 483.048C200.239 563.909 203.572 616.72 224.451 623.063C248.727 648.818 303.3 642.956 409.979 627.861C485.628 627.511 531.682 660.909 616.221 742.577L659 712.917C629.922 639.043 627.694 591.207 627.929 503.985C624.671 473.145 616.527 463.197 577.944 473.452C486.538 512.063 462.017 513.751 426.64 510.528C367.943 498.858 347.821 478.872 306.407 449.026C295.661 446.92 286.76 445.58 278.702 444.955M233.908 449.026C223.777 416.838 221.646 403.43 224.451 388.372C232.257 381.382 251.62 383.282 278.702 444.955M233.908 449.026C250.559 445.221 263.037 443.738 278.702 444.955" stroke="#595959" stroke-width="4" stroke-linecap="round"/>
<path d="M412.315 237.927C412.429 238.687 412.132 239.536 411.359 240.446C410.587 241.355 409.38 242.274 407.805 243.141C404.659 244.872 400.139 246.342 394.994 247.12C389.849 247.898 385.097 247.83 381.579 247.106C379.818 246.744 378.394 246.223 377.388 245.583C376.38 244.942 375.845 244.219 375.73 243.459C375.615 242.699 375.913 241.85 376.686 240.94C377.458 240.031 378.664 239.112 380.239 238.246C383.386 236.514 387.906 235.044 393.051 234.266C398.196 233.488 402.948 233.556 406.466 234.28C408.227 234.643 409.651 235.164 410.657 235.804C411.664 236.445 412.2 237.167 412.315 237.927Z" fill="#FDB209" stroke="#FDB209"/>
<path d="M409.622 238.423C409.711 239.01 409.477 239.685 408.833 240.429C408.19 241.17 407.181 241.926 405.859 242.642C403.217 244.073 399.42 245.294 395.097 245.948C390.773 246.602 386.785 246.557 383.839 245.971C382.363 245.678 381.177 245.254 380.343 244.736C379.508 244.217 379.084 243.641 378.996 243.053C378.907 242.466 379.141 241.791 379.785 241.048C380.428 240.306 381.437 239.551 382.759 238.834C385.401 237.404 389.198 236.182 393.521 235.528C397.845 234.874 401.833 234.919 404.779 235.505C406.255 235.798 407.441 236.222 408.275 236.74C409.11 237.26 409.534 237.835 409.622 238.423Z" fill="#DE9A00" stroke="#FDB209"/>
<path d="M417.991 236.996C418.144 238.025 417.722 239.157 416.681 240.349C415.642 241.538 414.03 242.732 411.942 243.855C407.769 246.097 401.794 247.998 395.007 249.007C388.22 250.015 381.95 249.934 377.305 249.002C374.981 248.535 373.092 247.861 371.752 247.025C370.409 246.188 369.676 245.228 369.523 244.199C369.37 243.17 369.793 242.038 370.833 240.846C371.873 239.657 373.484 238.463 375.573 237.34C379.745 235.098 385.721 233.197 392.508 232.188C399.294 231.18 405.565 231.261 410.209 232.193C412.533 232.66 414.423 233.334 415.763 234.17C417.105 235.007 417.838 235.967 417.991 236.996Z" stroke="black"/>
</svg>
