<svg width="137" height="100" viewBox="0 0 137 100" fill="none" xmlns="http://www.w3.org/2000/svg">
<path d="M67.0421 37C56.5316 38.2703 45.7021 37.1469 33.5 33.6137C26.1728 82.1661 30.111 104.144 82 95C119.531 81.2815 124.139 66.1981 100.5 24.995C88.8765 31.651 78.137 35.6591 67.0421 37Z" fill="white"/>
<path d="M9.5 24.5C18.1644 28.4301 26.0856 31.4668 33.5 33.6137M9.5 24.5C9.73921 21.8666 9.05206 20.6775 6.5 19M9.5 24.5C6.8457 27.9134 5.39677 29.2665 3 29M125.5 8C116.517 14.8563 108.309 20.5232 100.5 24.995M125.5 8C124.058 6.32457 123.506 5.30204 124 3M125.5 8C127.971 10.5509 129.917 10.6857 134 9.5M67.0421 37C67.5227 48.1731 68.5555 53.9352 73 62.5M67.0421 37C56.5316 38.2703 45.7022 37.1469 33.5 33.6137M67.0421 37C78.137 35.6591 88.8765 31.651 100.5 24.995M33.5 33.6137C26.1728 82.1661 30.111 104.144 82 95C119.531 81.2815 124.139 66.1981 100.5 24.995" stroke="white" stroke-width="5" stroke-linecap="round"/>
<path d="M74.9997 67.5C68.1043 57.6062 66.1565 45.0036 67 35" stroke="#007CF3" stroke-width="3" stroke-linecap="round"/>
</svg>
