<svg width="874" height="815" viewBox="0 0 874 815" fill="none" xmlns="http://www.w3.org/2000/svg">
<circle cx="438" cy="408" r="378.5" fill="white" stroke="#595959" stroke-width="3"/>
<path d="M743 599.537C728.564 583.376 717.414 571.1 707.565 552.679M495.972 75C554.72 92.7798 584.152 119.014 631.997 187.368C659.454 247.474 668.209 327.615 682.494 479.89C686.71 497.375 690.82 511.603 695.019 523.563M631.997 545.4C655.504 549.678 669.448 543.23 695.019 523.563M695.019 523.563C699.06 535.074 703.184 544.484 707.565 552.679M631.997 589.074C660.716 565.488 677.228 557.122 707.565 552.679" stroke="#595959" stroke-width="4" stroke-linecap="round"/>
<path d="M125.202 337.496C148.338 278.253 136.893 260.859 102 239.231C110.586 217.898 117.941 208.162 133.39 192.828C145.328 183.576 186.01 185.141 313.999 198.742C415.311 195.101 456.011 190.103 517.808 179.18C569.116 191.928 607.948 248.667 587.413 279.265C508.077 271.678 496.537 152.163 216 299.078C215.089 337.19 214.881 366.289 204 365.5C192.931 359.09 189.125 339.838 185.253 315.659C178.052 359.693 170.183 373.718 146.583 372.071C131.351 367.363 125.476 361.307 125.202 337.496Z" fill="white"/>
<path d="M185.253 315.659C178.052 359.693 170.183 373.718 146.583 372.071C131.351 367.363 125.476 361.307 125.202 337.496C148.338 278.253 136.893 260.859 102 239.231C110.586 217.898 117.941 208.162 133.39 192.828C145.328 183.576 186.01 185.141 313.999 198.742C415.311 195.101 456.011 190.103 517.808 179.18C569.116 191.928 607.948 248.667 587.413 279.265C508.077 271.678 496.537 152.163 216 299.078M185.253 315.659C189.125 339.838 192.931 359.09 204 365.5C214.881 366.289 215.089 337.19 216 299.078M185.253 315.659C195.847 309.789 206.091 304.268 216 299.078" stroke="#595959" stroke-width="4" stroke-linecap="round"/>
<path d="M222 380L237.757 355.812L208.932 354.26L222 380ZM225.527 365.567C225.853 362.257 226.234 359.068 226.674 355.995L221.724 355.288C221.274 358.438 220.883 361.7 220.551 365.078L225.527 365.567ZM228.284 346.513C228.933 343.255 229.658 340.147 230.461 337.183L225.635 335.876C224.8 338.957 224.049 342.176 223.38 345.537L228.284 346.513ZM233.323 328.106C234.448 325.019 235.678 322.118 237.013 319.392L232.523 317.193C231.104 320.088 229.806 323.153 228.625 326.394L233.323 328.106ZM241.691 311.184C243.457 308.516 245.36 306.053 247.403 303.78L243.685 300.437C241.472 302.899 239.419 305.558 237.521 308.425L241.691 311.184ZM254.184 297.33C256.591 295.375 259.158 293.6 261.889 291.991L259.351 287.683C256.413 289.414 253.64 291.331 251.032 293.449L254.184 297.33ZM270.293 287.773C273.124 286.569 276.104 285.497 279.237 284.546L277.785 279.761C274.495 280.76 271.346 281.892 268.336 283.172L270.293 287.773ZM288.453 282.185C291.474 281.54 294.617 280.983 297.883 280.508L297.163 275.56C293.799 276.05 290.548 276.625 287.409 277.295L288.453 282.185ZM307.45 279.375C310.566 279.083 313.779 278.851 317.093 278.674L316.825 273.681C313.452 273.862 310.172 274.098 306.984 274.397L307.45 279.375ZM326.772 278.311C329.922 278.24 333.154 278.209 336.467 278.214L336.475 273.215C333.125 273.209 329.854 273.24 326.659 273.312L326.772 278.311ZM346.167 278.326C349.332 278.391 352.567 278.483 355.87 278.599L356.046 273.602C352.721 273.485 349.462 273.392 346.27 273.327L346.167 278.326ZM365.578 278.999C368.758 279.147 371.997 279.314 375.297 279.497L375.573 274.504C372.261 274.321 369.007 274.154 365.811 274.005L365.578 278.999ZM385.033 280.068C388.233 280.266 391.487 280.476 394.794 280.696L395.125 275.707C391.812 275.487 388.551 275.276 385.342 275.078L385.033 280.068ZM404.496 281.357C407.683 281.579 410.917 281.808 414.198 282.043L414.554 277.055C411.271 276.821 408.034 276.591 404.844 276.369L404.496 281.357ZM423.939 282.743C427.155 282.976 430.415 283.212 433.718 283.45L434.078 278.463C430.775 278.225 427.516 277.989 424.299 277.756L423.939 282.743ZM443.397 284.144C445.029 284.261 446.672 284.377 448.324 284.494L448.676 279.506C447.025 279.39 445.383 279.273 443.752 279.157L443.397 284.144Z" fill="#007AFF"/>
<path d="M480 285L499.201 306.556L508.268 279.15L480 285ZM493.945 292.485C497.247 293.718 500.45 294.981 503.559 296.279L505.485 291.665C502.313 290.341 499.052 289.055 495.695 287.801L493.945 292.485ZM513.01 300.475C516.176 301.972 519.239 303.518 522.209 305.124L524.587 300.726C521.533 299.075 518.389 297.487 515.147 295.955L513.01 300.475ZM531.102 310.288C534.034 312.117 536.872 314.022 539.626 316.014L542.556 311.962C539.707 309.902 536.774 307.933 533.748 306.045L531.102 310.288ZM547.719 322.323C550.328 324.514 552.861 326.804 555.328 329.204L558.814 325.62C556.26 323.135 553.637 320.764 550.935 318.494L547.719 322.323ZM562.426 336.616C564.671 339.13 566.865 341.756 569.014 344.502L572.952 341.42C570.737 338.591 568.475 335.883 566.155 333.285L562.426 336.616ZM575.122 352.8C577.037 355.562 578.922 358.436 580.781 361.429L585.028 358.791C583.127 355.73 581.197 352.786 579.231 349.951L575.122 352.8ZM586.034 370.317C587.689 373.254 589.327 376.296 590.955 379.448L595.397 377.154C593.744 373.951 592.077 370.856 590.391 367.863L586.034 370.317ZM595.557 388.716C597.013 391.762 598.464 394.902 599.912 398.141L604.477 396.1C603.012 392.824 601.543 389.646 600.067 386.559L595.557 388.716ZM604.061 407.7C605.374 410.813 606.687 414.01 608.004 417.294L612.645 415.434C611.318 412.124 609.993 408.899 608.668 405.757L604.061 407.7ZM611.797 426.974C612.417 428.589 613.038 430.225 613.66 431.88L618.34 430.12C617.714 428.455 617.089 426.81 616.466 425.183L611.797 426.974Z" fill="#007AFF"/>
<path d="M332.431 433.323C344.278 452.522 342.062 475.29 332.431 488.936C367.823 523.856 401.855 522.547 450.489 523C483.559 522.434 520.98 514.132 597 480.05C593.477 421.471 594.543 397.206 552.251 350.212C525.497 320.482 441.597 295.413 377.732 295.413C350.691 295.413 251.729 278.357 241 334.934C247.323 356.074 291.675 413.797 332.431 433.323Z" fill="white"/>
<path d="M332.431 433.323C344.278 452.522 342.062 475.29 332.431 488.936C367.823 523.856 401.855 522.547 450.489 523C483.559 522.434 520.98 514.132 597 480.05C593.477 421.471 594.543 397.206 552.251 350.212C525.497 320.482 441.597 295.413 377.732 295.413C350.691 295.413 251.729 278.357 241 334.934C247.323 356.074 291.675 413.797 332.431 433.323ZM332.431 433.323L350.691 439.984" stroke="#FDB209" stroke-width="4" stroke-linecap="round"/>
<path d="M192.029 483.048C151.375 432.786 144.656 413.985 161.858 397.993C189.435 389.625 205.045 392.476 233.908 449.026C223.777 416.838 221.646 403.43 224.451 388.372C232.257 381.382 251.62 383.282 278.702 444.955C286.76 445.58 295.661 446.92 306.407 449.026C347.821 478.872 367.943 498.858 426.64 510.528C462.017 513.751 486.538 512.063 577.944 473.452C616.527 463.197 624.671 473.145 627.929 503.985C627.694 591.207 629.922 639.043 659 712.917L616.221 742.577C531.682 660.909 485.628 627.511 409.979 627.861C303.3 642.956 248.727 648.818 224.451 623.063C203.572 616.72 200.239 563.909 192.029 483.048Z" fill="white"/>
<path d="M233.908 449.026C205.045 392.476 189.435 389.625 161.858 397.993C144.656 413.985 151.375 432.786 192.029 483.048C200.239 563.909 203.572 616.72 224.451 623.063C248.727 648.818 303.3 642.956 409.979 627.861C485.628 627.511 531.682 660.909 616.221 742.577L659 712.917C629.922 639.043 627.694 591.207 627.929 503.985C624.671 473.145 616.527 463.197 577.944 473.452C486.538 512.063 462.017 513.751 426.64 510.528C367.943 498.858 347.821 478.872 306.407 449.026C295.661 446.92 286.76 445.58 278.702 444.955M233.908 449.026C223.777 416.838 221.646 403.43 224.451 388.372C232.257 381.382 251.62 383.282 278.702 444.955M233.908 449.026C250.559 445.221 263.037 443.738 278.702 444.955" stroke="#595959" stroke-width="4" stroke-linecap="round"/>
<path d="M261.215 290.426C261.676 291.013 261.792 291.91 261.451 293.143C261.111 294.367 260.34 295.834 259.178 297.452C256.858 300.682 253.042 304.42 248.277 307.882C243.511 311.344 238.731 313.852 234.866 315.115C232.931 315.747 231.254 316.059 229.937 316.037C228.611 316.016 227.747 315.663 227.286 315.076C226.825 314.488 226.709 313.592 227.051 312.359C227.391 311.134 228.161 309.667 229.323 308.049C231.644 304.819 235.46 301.082 240.225 297.619C244.991 294.157 249.771 291.65 253.635 290.386C255.57 289.754 257.248 289.443 258.565 289.464C259.89 289.485 260.755 289.838 261.215 290.426Z" fill="#FDB209" stroke="#FDB209"/>
<path d="M258.769 292.312C259.121 292.762 259.218 293.471 258.925 294.489C258.634 295.497 257.983 296.714 257.001 298.063C255.04 300.757 251.827 303.886 247.822 306.796C243.816 309.707 239.808 311.823 236.579 312.9C234.961 313.439 233.567 313.708 232.48 313.701C231.383 313.694 230.7 313.41 230.347 312.961C229.995 312.511 229.898 311.801 230.191 310.784C230.482 309.776 231.133 308.559 232.115 307.21C234.076 304.516 237.289 301.387 241.294 298.476C245.3 295.566 249.308 293.45 252.537 292.373C254.155 291.834 255.549 291.564 256.636 291.571C257.733 291.578 258.416 291.863 258.769 292.312Z" fill="#DE9A00" stroke="#FDB209"/>
<path d="M266.43 286.549C267.056 287.352 267.183 288.565 266.707 290.19C266.235 291.806 265.192 293.734 263.64 295.852C260.539 300.085 255.478 304.986 249.187 309.535C242.895 314.084 236.596 317.398 231.51 319.084C228.964 319.929 226.75 320.356 225.007 320.342C223.254 320.329 222.08 319.873 221.453 319.07C220.827 318.267 220.7 317.054 221.175 315.429C221.648 313.813 222.691 311.885 224.243 309.766C227.343 305.534 232.404 300.633 238.696 296.084C244.988 291.534 251.287 288.221 256.373 286.535C258.918 285.69 261.132 285.263 262.875 285.277C264.629 285.29 265.803 285.746 266.43 286.549Z" stroke="black"/>
</svg>
