<svg width="874" height="815" viewBox="0 0 874 815" fill="none" xmlns="http://www.w3.org/2000/svg">
<circle cx="437" cy="408" r="378.5" fill="#EBEBEB" stroke="#595959" stroke-width="3"/>
<path d="M742 599.537C727.564 583.376 716.414 571.1 706.565 552.679M494.972 75C553.72 92.7798 583.152 119.014 630.997 187.368C658.454 247.474 667.209 327.615 681.494 479.89C685.71 497.375 689.82 511.603 694.019 523.563M630.997 545.4C654.504 549.678 668.448 543.23 694.019 523.563M694.019 523.563C698.06 535.074 702.184 544.484 706.565 552.679M630.997 589.074C659.716 565.488 676.228 557.122 706.565 552.679" stroke="#595959" stroke-width="4" stroke-linecap="round"/>
<path d="M321.5 427C334.191 445.09 345.283 458.169 334.965 471.028C372.878 503.93 397.961 513.573 450.057 514C485.482 513.466 525.567 499.278 607 467.165C603.226 411.969 578.302 391.78 533 347.5C504.341 319.487 435.77 286.164 369.689 301.629C318.247 313.668 227.493 315.691 216 369C222.774 388.918 268.452 368.497 321.5 427Z" fill="white" stroke="#FDB209" stroke-width="4" stroke-linecap="round"/>
<path d="M132.201 325.042C155.336 263.656 143.892 245.633 109 223.223C117.586 201.119 124.94 191.031 140.39 175.142C152.327 165.555 193.008 167.177 320.994 181.27C422.303 177.497 463.003 172.319 524.798 161C576.104 174.21 614.936 233.001 594.401 264.705C515.067 256.844 503.527 133.006 222.997 285.235C222.086 324.725 221.878 354.876 210.998 354.059C199.929 347.417 196.123 327.469 192.251 302.416C185.051 348.042 177.181 362.574 153.582 360.868C138.351 355.989 132.475 349.714 132.201 325.042Z" fill="white"/>
<path d="M192.251 302.416C185.051 348.042 177.181 362.574 153.582 360.868C138.351 355.989 132.475 349.714 132.201 325.042C155.336 263.656 143.892 245.633 109 223.223C117.586 201.119 124.94 191.031 140.39 175.142C152.327 165.555 193.008 167.177 320.994 181.27C422.303 177.497 463.003 172.319 524.798 161C576.104 174.21 614.936 233.001 594.401 264.705C515.067 256.844 503.527 133.006 222.997 285.235M192.251 302.416C196.123 327.469 199.929 347.417 210.998 354.059C221.878 354.876 222.086 324.725 222.997 285.235M192.251 302.416C202.845 296.333 213.089 290.612 222.997 285.235" stroke="#595959" stroke-width="4" stroke-linecap="round"/>
<path d="M188.414 480.017C147.359 429.474 140.574 410.567 157.945 394.485C185.795 386.071 201.56 388.938 230.707 445.804C220.476 413.436 218.324 399.953 221.157 384.81C229.04 377.781 248.594 379.692 275.944 441.71C284.081 442.339 293.071 443.687 303.923 445.804C345.746 475.818 366.067 495.916 425.344 507.651C461.071 510.892 485.834 509.194 578.143 470.367C617.107 460.054 625.332 470.058 628.622 501.071C628.385 588.782 630.635 636.886 660 711.173L616.798 741C531.424 658.874 484.915 625.289 408.518 625.641C300.785 640.821 245.673 646.716 221.157 620.816C200.072 614.438 196.706 561.331 188.414 480.017Z" fill="white"/>
<path d="M230.707 445.804C201.56 388.938 185.795 386.071 157.945 394.485C140.574 410.567 147.359 429.474 188.414 480.017C196.706 561.331 200.072 614.438 221.157 620.816C245.673 646.716 300.785 640.821 408.518 625.641C484.915 625.289 531.424 658.874 616.798 741L660 711.173C630.635 636.886 628.385 588.782 628.622 501.071C625.332 470.058 617.107 460.054 578.143 470.367C485.834 509.194 461.071 510.892 425.344 507.651C366.067 495.916 345.746 475.818 303.923 445.804C293.071 443.687 284.081 442.339 275.944 441.71M230.707 445.804C220.476 413.436 218.324 399.953 221.157 384.81C229.04 377.781 248.594 379.692 275.944 441.71M230.707 445.804C247.523 441.978 260.124 440.487 275.944 441.71" stroke="#595959" stroke-width="4" stroke-linecap="round"/>
<path d="M233 326L231.711 323.858L230.823 324.771L233 326ZM187 376L187.043 378.5L187.533 378.443L187 376ZM113 382L140.036 392.118L135.281 363.645L113 382ZM127.117 382.317C130.22 381.883 133.249 381.499 136.267 381.159L135.707 376.19C132.643 376.536 129.569 376.925 126.424 377.366L127.117 382.317ZM145.444 380.253C148.439 379.999 151.486 379.78 154.647 379.59L154.346 374.599C151.149 374.792 148.06 375.013 145.022 375.271L145.444 380.253ZM163.877 379.126C166.826 379.004 169.899 378.899 173.135 378.807L172.993 373.809C169.739 373.901 166.644 374.007 163.67 374.13L163.877 379.126ZM182.395 378.586C183.908 378.555 185.456 378.527 187.043 378.5L186.957 373.5C185.366 373.528 183.813 373.556 182.294 373.587L182.395 378.586ZM187.533 378.443C189.046 378.112 190.525 377.738 191.983 377.283L190.496 372.51C189.208 372.911 187.875 373.25 186.467 373.557L187.533 378.443ZM200.518 373.371C202.904 371.86 205.275 369.962 207.73 367.541L204.219 363.981C201.983 366.186 199.888 367.852 197.843 369.147L200.518 373.371ZM213.745 360.773C215.435 358.649 217.194 356.266 219.048 353.586L214.936 350.742C213.134 353.346 211.441 355.638 209.833 357.659L213.745 360.773ZM223.931 346.188C225.404 343.863 226.939 341.363 228.547 338.673L224.255 336.108C222.666 338.766 221.154 341.228 219.707 343.512L223.931 346.188ZM233.001 331.056C233.712 329.814 234.438 328.539 235.177 327.229L230.823 324.771C230.089 326.072 229.369 327.338 228.663 328.568L233.001 331.056ZM234.289 328.142C235.835 327.211 237.357 326.302 238.856 325.413L236.307 321.112C234.798 322.007 233.266 322.922 231.711 323.858L234.289 328.142ZM248.035 320.067C251.223 318.246 254.304 316.526 257.289 314.9L254.899 310.509C251.88 312.152 248.77 313.889 245.555 315.726L248.035 320.067ZM266.669 309.946C269.938 308.276 273.095 306.726 276.161 305.286L274.035 300.76C270.915 302.226 267.708 303.8 264.394 305.493L266.669 309.946ZM285.802 300.991C289.152 299.584 292.409 298.309 295.606 297.15L293.901 292.45C290.624 293.638 287.289 294.944 283.866 296.381L285.802 300.991ZM305.587 293.842C308.987 292.821 312.357 291.918 315.737 291.113L314.579 286.249C311.107 287.076 307.644 288.004 304.149 289.053L305.587 293.842ZM326.036 288.956C329.44 288.335 332.899 287.788 336.452 287.297L335.767 282.344C332.152 282.844 328.622 283.402 325.138 284.038L326.036 288.956ZM346.953 286.022C348.686 285.837 350.446 285.66 352.238 285.489L351.762 280.511C349.954 280.684 348.175 280.863 346.422 281.05L346.953 286.022Z" fill="#007AFF"/>
</svg>
