<svg width="874" height="815" viewBox="0 0 874 815" fill="none" xmlns="http://www.w3.org/2000/svg">
<circle cx="438" cy="408" r="378.5" fill="white" stroke="#595959" stroke-width="3"/>
<path d="M743 599.537C728.564 583.376 717.414 571.1 707.565 552.679M495.972 75C554.72 92.7798 584.152 119.014 631.997 187.368C659.454 247.474 668.209 327.615 682.494 479.89C686.71 497.375 690.82 511.603 695.019 523.563M631.997 545.4C655.504 549.678 669.448 543.23 695.019 523.563M695.019 523.563C699.06 535.074 703.184 544.484 707.565 552.679M631.997 589.074C660.716 565.488 677.228 557.122 707.565 552.679" stroke="#595959" stroke-width="4" stroke-linecap="round"/>
<path d="M125.202 337.496C148.338 278.253 136.893 260.859 102 239.231C110.586 217.898 117.941 208.162 133.39 192.828C145.328 183.576 186.01 185.141 313.999 198.742C415.311 195.101 456.011 190.103 517.808 179.18C569.116 191.928 607.948 248.667 587.413 279.265C508.077 271.678 496.537 152.163 216 299.078C215.089 337.19 214.881 366.289 204 365.5C192.931 359.09 189.125 339.838 185.253 315.659C178.052 359.693 170.183 373.718 146.583 372.071C131.351 367.363 125.476 361.307 125.202 337.496Z" fill="white"/>
<path d="M185.253 315.659C178.052 359.693 170.183 373.718 146.583 372.071C131.351 367.363 125.476 361.307 125.202 337.496C148.338 278.253 136.893 260.859 102 239.231C110.586 217.898 117.941 208.162 133.39 192.828C145.328 183.576 186.01 185.141 313.999 198.742C415.311 195.101 456.011 190.103 517.808 179.18C569.116 191.928 607.948 248.667 587.413 279.265C508.077 271.678 496.537 152.163 216 299.078M185.253 315.659C189.125 339.838 192.931 359.09 204 365.5C214.881 366.289 215.089 337.19 216 299.078M185.253 315.659C195.847 309.789 206.091 304.268 216 299.078" stroke="#595959" stroke-width="4" stroke-linecap="round"/>
<path d="M244 321L271.384 311.866L249.782 292.717L244 321ZM463.252 247.011C464.57 247.424 465.973 246.691 466.386 245.373C466.798 244.056 466.065 242.653 464.748 242.24L463.252 247.011ZM249.229 318.869C250.158 317.847 250.082 316.266 249.06 315.337C248.038 314.409 246.457 314.485 245.529 315.507L249.229 318.869ZM252.653 308.03C251.677 309.007 251.679 310.59 252.656 311.565C253.633 312.541 255.216 312.54 256.191 311.563L252.653 308.03ZM263.477 304.588C264.495 303.656 264.564 302.074 263.632 301.056C262.7 300.038 261.118 299.968 260.1 300.901L263.477 304.588ZM267.854 294.103C266.797 294.99 266.659 296.567 267.547 297.625C268.435 298.682 270.012 298.82 271.069 297.932L267.854 294.103ZM278.941 291.597C280.035 290.754 280.237 289.184 279.394 288.09C278.551 286.997 276.981 286.795 275.888 287.638L278.941 291.597ZM284.17 281.513C283.043 282.311 282.777 283.872 283.576 284.998C284.375 286.125 285.935 286.39 287.061 285.592L284.17 281.513ZM295.419 279.912C296.576 279.158 296.903 277.61 296.15 276.453C295.397 275.296 293.848 274.968 292.691 275.722L295.419 279.912ZM301.433 270.27C300.248 270.977 299.86 272.512 300.568 273.698C301.276 274.883 302.81 275.271 303.996 274.563L301.433 270.27ZM312.773 269.552C313.985 268.891 314.432 267.373 313.771 266.161C313.109 264.948 311.591 264.502 310.379 265.163L312.773 269.552ZM319.517 260.407C318.28 261.021 317.774 262.521 318.388 263.758C319.001 264.995 320.501 265.5 321.738 264.887L319.517 260.407ZM330.878 260.576C332.138 260.011 332.702 258.532 332.138 257.272C331.574 256.012 330.095 255.448 328.834 256.012L330.878 260.576ZM338.32 251.99C337.038 252.503 336.415 253.958 336.929 255.24C337.442 256.522 338.898 257.145 340.179 256.631L338.32 251.99ZM349.633 253.066C350.934 252.605 351.616 251.177 351.156 249.875C350.695 248.574 349.267 247.892 347.965 248.352L349.633 253.066ZM357.754 245.118C356.434 245.524 355.692 246.922 356.097 248.242C356.503 249.562 357.901 250.303 359.221 249.898L357.754 245.118ZM368.929 247.148C370.266 246.801 371.068 245.436 370.721 244.1C370.373 242.763 369.009 241.961 367.672 242.308L368.929 247.148ZM377.72 239.941C376.369 240.227 375.505 241.553 375.791 242.904C376.076 244.255 377.403 245.118 378.754 244.833L377.72 239.941ZM388.667 242.982C390.03 242.762 390.956 241.478 390.735 240.115C390.515 238.752 389.231 237.826 387.868 238.046L388.667 242.982ZM398.098 236.653C396.725 236.804 395.735 238.04 395.887 239.412C396.038 240.784 397.274 241.774 398.646 241.623L398.098 236.653ZM408.686 240.784C410.064 240.706 411.119 239.526 411.041 238.147C410.963 236.769 409.783 235.714 408.404 235.792L408.686 240.784ZM418.745 235.5C417.364 235.499 416.244 236.618 416.243 237.999C416.243 239.38 417.361 240.499 418.742 240.5L418.745 235.5ZM428.786 240.805C430.164 240.889 431.349 239.84 431.433 238.462C431.517 237.084 430.468 235.899 429.09 235.815L428.786 240.805ZM439.412 236.775C438.043 236.603 436.792 237.573 436.62 238.943C436.447 240.313 437.418 241.563 438.788 241.736L439.412 236.775ZM448.689 243.325C450.044 243.591 451.358 242.708 451.624 241.353C451.889 239.998 451.006 238.684 449.651 238.419L448.689 243.325ZM459.763 240.781C458.43 240.418 457.056 241.204 456.693 242.536C456.33 243.868 457.116 245.242 458.448 245.605L459.763 240.781ZM256.191 311.563C258.553 309.197 260.983 306.871 263.477 304.588L260.1 300.901C257.552 303.233 255.068 305.611 252.653 308.03L256.191 311.563ZM271.069 297.932C273.638 295.775 276.264 293.662 278.941 291.597L275.888 287.638C273.156 289.745 270.476 291.901 267.854 294.103L271.069 297.932ZM287.061 285.592C289.802 283.649 292.59 281.754 295.419 279.912L292.691 275.722C289.807 277.6 286.965 279.531 284.17 281.513L287.061 285.592ZM303.996 274.563C306.886 272.838 309.813 271.167 312.773 269.552L310.379 265.163C307.362 266.808 304.379 268.511 301.433 270.27L303.996 274.563ZM321.738 264.887C324.758 263.389 327.806 261.951 330.878 260.576L328.834 256.012C325.702 257.415 322.595 258.881 319.517 260.407L321.738 264.887ZM340.179 256.631C343.312 255.376 346.464 254.187 349.633 253.066L347.965 248.352C344.732 249.496 341.515 250.71 338.32 251.99L340.179 256.631ZM359.221 249.898C362.447 248.908 365.685 247.99 368.929 247.148L367.672 242.308C364.356 243.169 361.048 244.107 357.754 245.118L359.221 249.898ZM378.754 244.833C382.057 244.134 385.363 243.517 388.667 242.982L387.868 238.046C384.484 238.594 381.1 239.226 377.72 239.941L378.754 244.833ZM398.646 241.623C402.002 241.253 405.35 240.972 408.686 240.784L408.404 235.792C404.977 235.985 401.54 236.273 398.098 236.653L398.646 241.623ZM418.742 240.5C422.11 240.502 425.459 240.602 428.786 240.805L429.09 235.815C425.66 235.605 422.21 235.502 418.745 235.5L418.742 240.5ZM438.788 241.736C442.119 242.156 445.421 242.684 448.689 243.325L449.651 238.419C446.269 237.755 442.854 237.209 439.412 236.775L438.788 241.736ZM458.448 245.605C460.06 246.044 461.662 246.513 463.252 247.011L464.748 242.24C463.096 241.723 461.434 241.236 459.763 240.781L458.448 245.605Z" fill="#007AFF"/>
<path d="M340.944 410.752C352.858 430.197 346.686 465.756 337 479.577C372.592 514.944 406.815 513.618 455.721 514.077C488.978 513.504 533.553 505.595 610 471.077C606.457 411.748 601.272 358.7 558.743 311.104C531.838 280.994 448.035 235.954 386 252.577C337.708 265.517 276.789 293.277 266 350.577C272.359 371.987 299.96 390.976 340.944 410.752Z" fill="white"/>
<path d="M340.944 410.752C352.858 430.197 346.686 465.756 337 479.577C372.592 514.944 406.815 513.618 455.721 514.077C488.978 513.504 533.553 505.595 610 471.077C606.457 411.748 601.272 358.7 558.743 311.104C531.838 280.994 448.035 235.954 386 252.577C337.708 265.517 276.789 293.277 266 350.577C272.359 371.987 299.96 390.976 340.944 410.752ZM340.944 410.752L359.308 417.498" stroke="#FDB209" stroke-width="4" stroke-linecap="round"/>
<path d="M192.029 483.048C151.375 432.786 144.656 413.985 161.858 397.993C189.435 389.625 205.045 392.476 233.908 449.026C223.777 416.838 221.646 403.43 224.451 388.372C232.257 381.382 251.62 383.282 278.702 444.955C286.76 445.58 295.661 446.92 306.407 449.026C347.821 478.872 367.943 498.858 426.64 510.528C462.017 513.751 486.538 512.063 577.944 473.452C616.527 463.197 624.671 473.145 627.929 503.985C627.694 591.207 629.922 639.043 659 712.917L616.221 742.577C531.682 660.909 485.628 627.511 409.979 627.861C303.3 642.956 248.727 648.818 224.451 623.063C203.572 616.72 200.239 563.909 192.029 483.048Z" fill="white"/>
<path d="M233.908 449.026C205.045 392.476 189.435 389.625 161.858 397.993C144.656 413.985 151.375 432.786 192.029 483.048C200.239 563.909 203.572 616.72 224.451 623.063C248.727 648.818 303.3 642.956 409.979 627.861C485.628 627.511 531.682 660.909 616.221 742.577L659 712.917C629.922 639.043 627.694 591.207 627.929 503.985C624.671 473.145 616.527 463.197 577.944 473.452C486.538 512.063 462.017 513.751 426.64 510.528C367.943 498.858 347.821 478.872 306.407 449.026C295.661 446.92 286.76 445.58 278.702 444.955M233.908 449.026C223.777 416.838 221.646 403.43 224.451 388.372C232.257 381.382 251.62 383.282 278.702 444.955M233.908 449.026C250.559 445.221 263.037 443.738 278.702 444.955" stroke="#595959" stroke-width="4" stroke-linecap="round"/>
<path d="M412.314 237.927C412.429 238.687 412.132 239.536 411.359 240.446C410.587 241.355 409.38 242.274 407.805 243.141C404.659 244.872 400.139 246.342 394.994 247.12C389.849 247.898 385.097 247.83 381.579 247.106C379.818 246.744 378.394 246.223 377.388 245.583C376.38 244.942 375.845 244.219 375.73 243.459C375.615 242.699 375.913 241.85 376.686 240.94C377.458 240.031 378.664 239.112 380.239 238.246C383.386 236.514 387.905 235.044 393.05 234.266C398.195 233.488 402.948 233.556 406.465 234.28C408.226 234.643 409.65 235.164 410.657 235.804C411.664 236.445 412.199 237.167 412.314 237.927Z" fill="#FDB209" stroke="#FDB209"/>
<path d="M409.622 238.423C409.711 239.01 409.477 239.685 408.833 240.429C408.19 241.17 407.181 241.926 405.859 242.642C403.217 244.073 399.42 245.294 395.097 245.948C390.773 246.602 386.785 246.557 383.839 245.971C382.363 245.678 381.177 245.254 380.343 244.736C379.508 244.217 379.084 243.641 378.996 243.053C378.907 242.466 379.141 241.791 379.785 241.048C380.428 240.306 381.437 239.551 382.759 238.834C385.401 237.404 389.198 236.182 393.521 235.528C397.845 234.874 401.833 234.919 404.779 235.505C406.255 235.798 407.441 236.222 408.275 236.74C409.11 237.26 409.534 237.835 409.622 238.423Z" fill="#DE9A00" stroke="#FDB209"/>
<path d="M417.991 236.996C418.144 238.025 417.722 239.157 416.681 240.349C415.642 241.538 414.03 242.732 411.942 243.855C407.769 246.097 401.794 247.998 395.007 249.007C388.22 250.015 381.95 249.934 377.305 249.002C374.981 248.535 373.092 247.861 371.752 247.025C370.409 246.188 369.676 245.228 369.523 244.199C369.37 243.17 369.793 242.038 370.833 240.846C371.873 239.657 373.484 238.463 375.573 237.34C379.745 235.098 385.721 233.197 392.508 232.188C399.294 231.18 405.565 231.261 410.209 232.193C412.533 232.66 414.423 233.334 415.763 234.17C417.105 235.007 417.838 235.967 417.991 236.996Z" stroke="black"/>
</svg>
