<svg width="874" height="815" viewBox="0 0 874 815" fill="none" xmlns="http://www.w3.org/2000/svg">
<circle cx="437" cy="408" r="378.5" fill="#EBEBEB" stroke="#595959" stroke-width="3"/>
<path d="M742 599.537C727.564 583.376 716.414 571.1 706.565 552.679M494.972 75C553.72 92.7798 583.152 119.014 630.997 187.368C658.454 247.474 667.209 327.615 681.494 479.89C685.71 497.375 689.82 511.603 694.019 523.563M630.997 545.4C654.504 549.678 668.448 543.23 694.019 523.563M694.019 523.563C698.06 535.074 702.184 544.484 706.565 552.679M630.997 589.074C659.716 565.488 676.228 557.122 706.565 552.679" stroke="#595959" stroke-width="4" stroke-linecap="round"/>
<path d="M340.944 410.175C352.858 429.62 350.63 452.679 340.944 466.5C376.536 501.866 410.759 500.541 459.666 501C492.922 500.426 530.553 485.175 607 450.657C603.457 391.328 601.272 358.123 558.743 310.527C531.838 280.416 448.035 235.377 386 252C337.708 264.94 276.789 292.699 266 350C272.359 371.41 299.96 390.399 340.944 410.175Z" fill="white"/>
<path d="M340.944 410.175C352.858 429.62 350.63 452.679 340.944 466.5C376.536 501.866 410.759 500.541 459.666 501C492.922 500.426 530.553 485.175 607 450.657C603.457 391.328 601.272 358.123 558.743 310.527C531.838 280.416 448.035 235.377 386 252C337.708 264.94 276.789 292.699 266 350C272.359 371.41 299.96 390.399 340.944 410.175ZM340.944 410.175L359.308 416.921" stroke="#FDB209" stroke-width="4" stroke-linecap="round"/>
<path d="M124.202 337.496C147.338 278.253 135.893 260.859 101 239.231C109.586 217.898 116.941 208.162 132.39 192.828C144.328 183.576 185.01 185.141 312.999 198.742C414.311 195.101 455.011 190.103 516.808 179.18C568.116 191.928 606.948 248.667 586.413 279.265C507.077 271.678 495.537 152.163 215 299.078C214.089 337.19 213.881 366.289 203 365.5C191.931 359.09 188.125 339.838 184.253 315.659C177.052 359.693 169.183 373.718 145.583 372.071C130.351 367.363 124.476 361.307 124.202 337.496Z" fill="white"/>
<path d="M184.253 315.659C177.052 359.693 169.183 373.718 145.583 372.071C130.351 367.363 124.476 361.307 124.202 337.496C147.338 278.253 135.893 260.859 101 239.231C109.586 217.898 116.941 208.162 132.39 192.828C144.328 183.576 185.01 185.141 312.999 198.742C414.311 195.101 455.011 190.103 516.808 179.18C568.116 191.928 606.948 248.667 586.413 279.265C507.077 271.678 495.537 152.163 215 299.078M184.253 315.659C188.125 339.838 191.931 359.09 203 365.5C213.881 366.289 214.089 337.19 215 299.078M184.253 315.659C194.847 309.789 205.091 304.268 215 299.078" stroke="#595959" stroke-width="4" stroke-linecap="round"/>
<path d="M187.437 471.246C146.366 418.823 139.578 399.214 156.957 382.534C184.817 373.807 200.587 376.781 229.746 435.761C219.511 402.19 217.358 388.206 220.192 372.5C228.078 365.209 247.64 367.192 275 431.515C283.141 432.167 292.133 433.565 302.99 435.761C344.829 466.89 365.158 487.736 424.457 499.907C460.197 503.269 484.97 501.508 577.314 461.237C616.293 450.541 624.521 460.917 627.812 493.083C627.575 584.054 629.826 633.946 659.202 710.995L615.984 741.931C530.577 656.752 484.05 621.918 407.625 622.284C299.85 638.028 244.718 644.142 220.192 617.279C199.099 610.663 195.732 555.582 187.437 471.246Z" fill="white"/>
<path d="M229.746 435.761C200.587 376.781 184.817 373.807 156.957 382.534C139.578 399.214 146.366 418.823 187.437 471.246C195.732 555.582 199.099 610.663 220.192 617.279C244.718 644.142 299.85 638.028 407.625 622.284C484.05 621.918 530.577 656.752 615.984 741.931L659.202 710.995C629.826 633.946 627.575 584.054 627.812 493.083C624.521 460.917 616.293 450.541 577.314 461.237C484.97 501.508 460.197 503.269 424.457 499.907C365.158 487.736 344.829 466.89 302.99 435.761C292.133 433.565 283.141 432.167 275 431.515M229.746 435.761C219.511 402.19 217.358 388.206 220.192 372.5C228.078 365.209 247.64 367.192 275 431.515M229.746 435.761C246.568 431.793 259.174 430.246 275 431.515" stroke="#595959" stroke-width="4" stroke-linecap="round"/>
</svg>
