<svg width="874" height="815" viewBox="0 0 874 815" fill="none" xmlns="http://www.w3.org/2000/svg">
<circle cx="437" cy="408" r="378.5" fill="#EBEBEB" stroke="#595959" stroke-width="3"/>
<path d="M742 599.537C727.564 583.376 716.414 571.1 706.565 552.679M494.972 75C553.72 92.7798 583.152 119.014 630.997 187.368C658.454 247.474 667.209 327.615 681.494 479.89C685.71 497.375 689.82 511.603 694.019 523.563M630.997 545.4C654.504 549.678 668.448 543.23 694.019 523.563M694.019 523.563C698.06 535.074 702.184 544.484 706.565 552.679M630.997 589.074C659.716 565.488 676.228 557.122 706.565 552.679" stroke="#595959" stroke-width="4" stroke-linecap="round"/>
<path d="M124.202 337.496C147.338 278.253 135.893 260.859 101 239.231C109.586 217.898 116.941 208.162 132.39 192.828C144.328 183.576 185.01 185.141 312.999 198.742C414.311 195.101 455.011 190.103 516.808 179.18C568.116 191.928 606.948 248.667 586.413 279.265C507.077 271.678 495.537 152.163 215 299.078C214.089 337.19 213.881 366.289 203 365.5C191.931 359.09 188.125 339.838 184.253 315.659C177.052 359.693 169.183 373.718 145.583 372.071C130.351 367.363 124.476 361.307 124.202 337.496Z" fill="white"/>
<path d="M184.253 315.659C177.052 359.693 169.183 373.718 145.583 372.071C130.351 367.363 124.476 361.307 124.202 337.496C147.338 278.253 135.893 260.859 101 239.231C109.586 217.898 116.941 208.162 132.39 192.828C144.328 183.576 185.01 185.141 312.999 198.742C414.311 195.101 455.011 190.103 516.808 179.18C568.116 191.928 606.948 248.667 586.413 279.265C507.077 271.678 495.537 152.163 215 299.078M184.253 315.659C188.125 339.838 191.931 359.09 203 365.5C213.881 366.289 214.089 337.19 215 299.078M184.253 315.659C194.847 309.789 205.091 304.268 215 299.078" stroke="#595959" stroke-width="4" stroke-linecap="round"/>
<path d="M332.431 433.323C344.278 452.522 342.062 475.29 332.431 488.936C367.823 523.856 401.855 522.547 450.489 523C483.559 522.434 520.98 514.132 597 480.05C593.477 421.471 594.543 397.206 552.251 350.212C525.497 320.482 441.597 295.413 377.732 295.413C350.691 295.413 251.729 278.357 241 334.934C247.323 356.074 291.675 413.797 332.431 433.323Z" fill="white"/>
<path d="M332.431 433.323C344.278 452.522 342.062 475.29 332.431 488.936C367.823 523.856 401.855 522.547 450.489 523C483.559 522.434 520.98 514.132 597 480.05C593.477 421.471 594.543 397.206 552.251 350.212C525.497 320.482 441.597 295.413 377.732 295.413C350.691 295.413 251.729 278.357 241 334.934C247.323 356.074 291.675 413.797 332.431 433.323ZM332.431 433.323L350.691 439.984" stroke="#FDB209" stroke-width="4" stroke-linecap="round"/>
<path d="M226 322.501C264.5 269.672 357.061 256.949 422 269.672" stroke="#007AFF" stroke-width="5" stroke-linecap="round" stroke-dasharray="10 10"/>
<path d="M192.029 483.048C151.375 432.786 144.656 413.985 161.858 397.993C189.435 389.625 205.045 392.476 233.908 449.026C223.777 416.838 221.646 403.43 224.451 388.372C232.257 381.382 251.62 383.282 278.702 444.955C286.76 445.58 295.661 446.92 306.407 449.026C347.821 478.872 367.943 498.858 426.64 510.528C462.017 513.751 486.538 512.063 577.944 473.452C616.527 463.197 624.671 473.145 627.929 503.985C627.694 591.207 629.922 639.043 659 712.917L616.221 742.577C531.682 660.909 485.628 627.511 409.979 627.861C303.3 642.956 248.727 648.818 224.451 623.063C203.572 616.72 200.239 563.909 192.029 483.048Z" fill="white"/>
<path d="M233.908 449.026C205.045 392.476 189.435 389.625 161.858 397.993C144.656 413.985 151.375 432.786 192.029 483.048C200.239 563.909 203.572 616.72 224.451 623.063C248.727 648.818 303.3 642.956 409.979 627.861C485.628 627.511 531.682 660.909 616.221 742.577L659 712.917C629.922 639.043 627.694 591.207 627.929 503.985C624.671 473.145 616.527 463.197 577.944 473.452C486.538 512.063 462.017 513.751 426.64 510.528C367.943 498.858 347.821 478.872 306.407 449.026C295.661 446.92 286.76 445.58 278.702 444.955M233.908 449.026C223.777 416.838 221.646 403.43 224.451 388.372C232.257 381.382 251.62 383.282 278.702 444.955M233.908 449.026C250.559 445.221 263.037 443.738 278.702 444.955" stroke="#595959" stroke-width="4" stroke-linecap="round"/>
</svg>
