<svg width="874" height="815" viewBox="0 0 874 815" fill="none" xmlns="http://www.w3.org/2000/svg">
<circle cx="437" cy="408" r="378.5" fill="#EBEBEB" stroke="#595959" stroke-width="3"/>
<path d="M742 599.537C727.564 583.376 716.414 571.1 706.565 552.679M494.972 75C553.72 92.7798 583.152 119.014 630.997 187.368C658.454 247.474 667.209 327.615 681.494 479.89C685.71 497.375 689.82 511.603 694.019 523.563M630.997 545.4C654.504 549.678 668.448 543.23 694.019 523.563M694.019 523.563C698.06 535.074 702.184 544.484 706.565 552.679M630.997 589.074C659.716 565.488 676.228 557.122 706.565 552.679" stroke="#595959" stroke-width="4" stroke-linecap="round"/>
<path d="M323.462 421.66C336.154 438.704 345.154 448.669 334.835 460.784C372.75 491.785 397.834 500.87 449.933 501.272C485.36 500.77 525.448 487.402 606.885 457.144C603.111 405.139 600.783 376.033 555.478 334.313C526.817 307.92 458.242 276.522 392.157 291.093C340.713 302.436 275.36 325.03 263.866 375.257C270.64 394.024 279.802 404.325 323.462 421.66Z" fill="white"/>
<path d="M323.462 421.66C336.154 438.704 345.154 448.669 334.835 460.784C372.75 491.785 397.834 500.87 449.933 501.272C485.36 500.77 525.448 487.402 606.885 457.144C603.111 405.139 600.783 376.033 555.478 334.313C526.817 307.92 458.242 276.522 392.157 291.093C340.713 302.436 275.36 325.03 263.866 375.257C270.64 394.024 279.802 404.325 323.462 421.66ZM323.462 421.66L343.024 427.573" stroke="#FDB209" stroke-width="4" stroke-linecap="round"/>
<path d="M124.201 343.042C147.336 281.656 135.892 263.633 101 241.223C109.586 219.119 116.94 209.031 132.39 193.142C144.327 183.555 185.008 185.177 312.994 199.27C414.303 195.497 455.003 190.319 516.798 179C568.104 192.21 606.936 251.001 586.401 282.705C507.067 274.844 495.527 151.006 214.997 303.235C214.086 342.725 213.878 372.876 202.998 372.059C191.929 365.417 188.123 345.469 184.251 320.416C177.051 366.042 169.181 380.574 145.582 378.868C130.351 373.989 124.475 367.714 124.201 343.042Z" fill="white"/>
<path d="M184.251 320.416C177.051 366.042 169.181 380.574 145.582 378.868C130.351 373.989 124.475 367.714 124.201 343.042C147.336 281.656 135.892 263.633 101 241.223C109.586 219.119 116.94 209.031 132.39 193.142C144.327 183.555 185.008 185.177 312.994 199.27C414.303 195.497 455.003 190.319 516.798 179C568.104 192.21 606.936 251.001 586.401 282.705C507.067 274.844 495.527 151.006 214.997 303.235M184.251 320.416C188.123 345.469 191.929 365.417 202.998 372.059C213.878 372.876 214.086 342.725 214.997 303.235M184.251 320.416C194.845 314.333 205.089 308.612 214.997 303.235" stroke="#595959" stroke-width="4" stroke-linecap="round"/>
<path d="M187.437 471.246C146.366 418.823 139.578 399.214 156.957 382.534C184.817 373.807 200.587 376.781 229.746 435.761C219.511 402.19 217.358 388.206 220.192 372.5C228.078 365.209 247.64 367.192 275 431.515C283.141 432.167 292.133 433.565 302.99 435.761C344.829 466.89 365.158 487.736 424.457 499.907C460.197 503.269 484.97 501.508 577.314 461.237C616.293 450.541 624.521 460.917 627.812 493.083C627.575 584.054 629.826 633.946 659.202 710.995L615.984 741.931C530.577 656.752 484.05 621.918 407.624 622.284C299.85 638.028 244.717 644.142 220.192 617.279C199.099 610.663 195.732 555.582 187.437 471.246Z" fill="white"/>
<path d="M229.746 435.761C200.587 376.781 184.817 373.807 156.957 382.534C139.578 399.214 146.366 418.823 187.437 471.246C195.732 555.582 199.099 610.663 220.192 617.279C244.717 644.142 299.85 638.028 407.624 622.284C484.05 621.918 530.577 656.752 615.984 741.931L659.202 710.995C629.826 633.946 627.575 584.054 627.812 493.083C624.521 460.917 616.293 450.541 577.314 461.237C484.97 501.508 460.197 503.269 424.457 499.907C365.158 487.736 344.829 466.89 302.99 435.761C292.133 433.565 283.141 432.167 275 431.515M229.746 435.761C219.511 402.19 217.358 388.206 220.192 372.5C228.078 365.209 247.64 367.192 275 431.515M229.746 435.761C246.568 431.793 259.174 430.246 275 431.515" stroke="#595959" stroke-width="4" stroke-linecap="round"/>
</svg>
