<svg width="874" height="815" viewBox="0 0 874 815" fill="none" xmlns="http://www.w3.org/2000/svg">
<circle cx="437" cy="408" r="378.5" fill="#EBEBEB" stroke="#595959" stroke-width="3"/>
<path d="M742 599.537C727.564 583.376 716.414 571.1 706.565 552.679M494.972 75C553.72 92.7798 583.152 119.014 630.997 187.368C658.454 247.474 667.209 327.615 681.494 479.89C685.71 497.375 689.82 511.603 694.019 523.563M630.997 545.4C654.504 549.678 668.448 543.23 694.019 523.563M694.019 523.563C698.06 535.074 702.184 544.484 706.565 552.679M630.997 589.074C659.716 565.488 676.228 557.122 706.565 552.679" stroke="#595959" stroke-width="4" stroke-linecap="round"/>
<path d="M321.5 427C334.191 445.09 345.283 458.169 334.965 471.028C372.878 503.93 397.961 513.573 450.057 514C485.482 513.466 525.567 499.278 607 467.165C603.226 411.969 578.302 391.78 533 347.5C504.341 319.487 435.77 286.164 369.689 301.629C318.247 313.668 227.493 315.691 216 369C222.774 388.918 268.452 368.497 321.5 427Z" fill="white" stroke="#FDB209" stroke-width="4" stroke-linecap="round"/>
<path d="M132.201 325.042C155.336 263.656 143.892 245.633 109 223.223C117.586 201.119 124.94 191.031 140.39 175.142C152.327 165.555 193.008 167.177 320.994 181.27C422.303 177.497 463.003 172.319 524.798 161C576.104 174.21 614.936 233.001 594.401 264.705C515.067 256.844 503.527 133.006 222.997 285.235C222.086 324.725 221.878 354.876 210.998 354.059C199.929 347.417 196.123 327.469 192.251 302.416C185.051 348.042 177.181 362.574 153.582 360.868C138.351 355.989 132.475 349.714 132.201 325.042Z" fill="white"/>
<path d="M192.251 302.416C185.051 348.042 177.181 362.574 153.582 360.868C138.351 355.989 132.475 349.714 132.201 325.042C155.336 263.656 143.892 245.633 109 223.223C117.586 201.119 124.94 191.031 140.39 175.142C152.327 165.555 193.008 167.177 320.994 181.27C422.303 177.497 463.003 172.319 524.798 161C576.104 174.21 614.936 233.001 594.401 264.705C515.067 256.844 503.527 133.006 222.997 285.235M192.251 302.416C196.123 327.469 199.929 347.417 210.998 354.059C221.878 354.876 222.086 324.725 222.997 285.235M192.251 302.416C202.845 296.333 213.089 290.612 222.997 285.235" stroke="#595959" stroke-width="4" stroke-linecap="round"/>
<path d="M188.414 480.017C147.359 429.474 140.574 410.567 157.945 394.485C185.795 386.071 201.56 388.938 230.707 445.804C220.476 413.436 218.324 399.953 221.157 384.81C229.04 377.781 248.594 379.692 275.944 441.71C284.081 442.339 293.071 443.687 303.923 445.804C345.746 475.818 366.067 495.916 425.344 507.651C461.071 510.892 485.834 509.194 578.143 470.367C617.107 460.054 625.332 470.058 628.622 501.071C628.385 588.782 630.635 636.886 660 711.173L616.798 741C531.424 658.874 484.915 625.289 408.518 625.641C300.785 640.821 245.673 646.716 221.157 620.816C200.072 614.438 196.706 561.331 188.414 480.017Z" fill="white"/>
<path d="M230.707 445.804C201.56 388.938 185.795 386.071 157.945 394.485C140.574 410.567 147.359 429.474 188.414 480.017C196.706 561.331 200.072 614.438 221.157 620.816C245.673 646.716 300.785 640.821 408.518 625.641C484.915 625.289 531.424 658.874 616.798 741L660 711.173C630.635 636.886 628.385 588.782 628.622 501.071C625.332 470.058 617.107 460.054 578.143 470.367C485.834 509.194 461.071 510.892 425.344 507.651C366.067 495.916 345.746 475.818 303.923 445.804C293.071 443.687 284.081 442.339 275.944 441.71M230.707 445.804C220.476 413.436 218.324 399.953 221.157 384.81C229.04 377.781 248.594 379.692 275.944 441.71M230.707 445.804C247.523 441.978 260.124 440.487 275.944 441.71" stroke="#595959" stroke-width="4" stroke-linecap="round"/>
<path d="M304.5 293.5L332.767 299.358L323.707 271.949L304.5 293.5ZM318.912 291.545C322.007 290.626 325.051 289.767 328.056 288.968L326.77 284.136C323.717 284.948 320.626 285.82 317.488 286.752L318.912 291.545ZM337.263 286.678C340.382 285.957 343.468 285.302 346.536 284.711L345.59 279.802C342.461 280.405 339.314 281.072 336.137 281.806L337.263 286.678ZM355.871 283.101C359.002 282.625 362.127 282.214 365.259 281.868L364.71 276.898C361.51 277.252 358.317 277.671 355.119 278.158L355.871 283.101ZM374.691 281.02C377.82 280.803 380.97 280.647 384.154 280.551L384.003 275.553C380.755 275.651 377.54 275.811 374.345 276.032L374.691 281.02ZM393.636 280.438C396.754 280.457 399.914 280.529 403.13 280.652L403.322 275.656C400.055 275.53 396.84 275.457 393.666 275.439L393.636 280.438ZM412.614 281.154C415.712 281.361 418.867 281.612 422.089 281.905L422.542 276.926C419.283 276.629 416.087 276.375 412.947 276.166L412.614 281.154ZM431.565 282.868C434.656 283.213 437.81 283.593 441.036 284.007L441.673 279.048C438.422 278.63 435.239 278.247 432.119 277.899L431.565 282.868ZM450.475 285.288C453.56 285.728 456.711 286.195 459.932 286.691L460.692 281.749C457.454 281.251 454.285 280.78 451.18 280.338L450.475 285.288ZM469.352 288.184C470.914 288.439 472.493 288.699 474.089 288.966L474.911 284.034C473.31 283.766 471.725 283.505 470.156 283.249L469.352 288.184Z" fill="#007AFF"/>
<path d="M199 351L197.711 348.858L196.823 349.771L199 351ZM146 380L146.043 382.5L146.533 382.443L146 380ZM79 387L106.09 396.974L101.183 368.527L79 387ZM96.0326 386.617C99.8523 385.987 103.436 385.435 107.07 384.956L106.416 379.999C102.711 380.488 99.0708 381.049 95.2187 381.684L96.0326 386.617ZM118.129 383.753C121.536 383.461 125.186 383.217 129.253 383.019L129.01 378.025C124.888 378.226 121.177 378.474 117.702 378.771L118.129 383.753ZM140.438 382.617C142.228 382.572 144.093 382.533 146.043 382.5L145.957 377.5C143.996 377.534 142.117 377.573 140.312 377.619L140.438 382.617ZM146.533 382.443C148.074 382.106 149.687 381.995 151.424 382.008L151.461 377.008C149.498 376.993 147.489 377.116 145.467 377.557L146.533 382.443ZM162.366 382.539C165.969 382.554 169.857 382.168 173.993 380.62L172.241 375.937C168.844 377.209 165.6 377.552 162.386 377.539L162.366 382.539ZM184.053 374.561C186.621 372.388 189.238 369.668 191.919 366.28L187.998 363.177C185.49 366.347 183.1 368.818 180.823 370.744L184.053 374.561ZM198.327 357.057C199.267 355.537 200.217 353.929 201.177 352.229L196.823 349.771C195.894 351.417 194.978 352.966 194.075 354.425L198.327 357.057ZM200.289 353.142C201.956 352.138 203.553 351.155 205.083 350.192L202.42 345.961C200.919 346.906 199.35 347.871 197.711 348.858L200.289 353.142ZM214.507 343.945C217.925 341.55 220.911 339.297 223.547 337.176L220.413 333.28C217.866 335.329 214.969 337.516 211.637 339.851L214.507 343.945ZM232.111 329.673C235.339 326.578 237.816 323.862 239.941 321.517L236.235 318.16C234.123 320.492 231.744 323.098 228.65 326.064L232.111 329.673ZM247.519 314.015C249.86 312.245 252.612 310.813 256.683 309.647L255.306 304.841C250.712 306.156 247.389 307.844 244.502 310.028L247.519 314.015ZM267.244 307.603C268.934 307.382 270.759 307.178 272.738 306.989L272.262 302.011C270.234 302.205 268.351 302.416 266.596 302.645L267.244 307.603Z" fill="#007AFF"/>
</svg>
