<svg width="874" height="815" viewBox="0 0 874 815" fill="none" xmlns="http://www.w3.org/2000/svg">
<circle cx="437" cy="408" r="378.5" fill="#EBEBEB" stroke="#595959" stroke-width="3"/>
<path d="M742 599.537C727.564 583.376 716.414 571.1 706.566 552.679M494.972 75C553.72 92.7799 583.152 119.014 630.997 187.368C658.454 247.474 667.209 327.615 681.494 479.89C685.71 497.375 689.82 511.603 694.019 523.563M694.019 523.563C668.448 543.23 652.007 549.778 628.5 545.5L630.5 589.5C659.219 565.914 676.228 557.122 706.566 552.679M694.019 523.563C698.06 535.074 702.184 544.484 706.566 552.679" stroke="#595959" stroke-width="4" stroke-linecap="round"/>
<path d="M342.431 411.324C354.278 430.523 352.062 453.29 342.431 466.937C377.823 501.856 411.855 500.547 460.489 501.001C493.559 500.435 530.98 492.133 607 458.051C603.477 399.471 575 349.501 542 327.501C509 305.501 482.313 284.023 422 274.501C374.5 267.001 283.729 273.923 273 330.5C279.323 351.64 301.675 391.798 342.431 411.324Z" fill="white"/>
<path d="M342.431 411.324C354.278 430.523 352.062 453.29 342.431 466.937C377.823 501.856 411.855 500.547 460.489 501.001C493.559 500.435 530.98 492.133 607 458.051C603.477 399.471 575 349.501 542 327.501C509 305.501 482.313 284.023 422 274.501C374.5 267.001 283.729 273.923 273 330.5C279.323 351.64 301.675 391.798 342.431 411.324ZM342.431 411.324L360.691 417.985" stroke="#FDB209" stroke-width="4" stroke-linecap="round"/>
<path d="M124.202 337.496C147.338 278.253 135.893 260.859 101 239.231C109.586 217.898 116.941 208.162 132.39 192.828C144.328 183.576 185.01 185.141 312.999 198.742C414.311 195.101 455.011 190.103 516.808 179.18C568.116 191.928 606.948 248.667 586.413 279.265C507.077 271.678 495.537 152.163 215 299.078C214.089 337.19 213.881 366.289 203 365.5C191.931 359.09 188.125 339.838 184.253 315.659C177.052 359.693 169.183 373.718 145.583 372.071C130.351 367.363 124.476 361.307 124.202 337.496Z" fill="white"/>
<path d="M184.253 315.659C177.052 359.693 169.183 373.718 145.583 372.071C130.351 367.363 124.476 361.307 124.202 337.496C147.338 278.253 135.893 260.859 101 239.231C109.586 217.898 116.941 208.162 132.39 192.828C144.328 183.576 185.01 185.141 312.999 198.742C414.311 195.101 455.011 190.103 516.808 179.18C568.116 191.928 606.948 248.667 586.413 279.265C507.077 271.678 495.537 152.163 215 299.078M184.253 315.659C188.125 339.838 191.931 359.09 203 365.5C213.881 366.289 214.089 337.19 215 299.078M184.253 315.659C194.847 309.789 205.091 304.268 215 299.078" stroke="#595959" stroke-width="4" stroke-linecap="round"/>
<path d="M187.437 471.247C146.366 418.824 139.578 399.215 156.957 382.535C184.817 373.808 200.587 376.782 229.746 435.762C219.511 402.191 217.358 388.206 220.192 372.501C228.078 365.21 247.64 367.193 275 431.516C283.141 432.168 292.133 433.566 302.99 435.762C344.829 466.891 365.158 487.737 424.457 499.908C460.197 503.27 484.97 501.509 577.314 461.238C616.293 450.542 624.521 460.918 627.812 493.084C627.575 584.055 629.826 633.947 659.202 710.996L615.984 741.932C530.577 656.753 484.05 621.919 407.625 622.285C299.85 638.029 244.718 644.143 220.192 617.28C199.099 610.664 195.732 555.583 187.437 471.247Z" fill="white"/>
<path d="M229.746 435.762C200.587 376.782 184.817 373.808 156.957 382.535C139.578 399.215 146.366 418.824 187.437 471.247C195.732 555.583 199.099 610.664 220.192 617.28C244.718 644.143 299.85 638.029 407.625 622.285C484.05 621.919 530.577 656.753 615.984 741.932L659.202 710.996C629.826 633.947 627.575 584.055 627.812 493.084C624.521 460.918 616.293 450.542 577.314 461.238C484.97 501.509 460.197 503.27 424.457 499.908C365.158 487.737 344.829 466.891 302.99 435.762C292.133 433.566 283.141 432.168 275 431.516M229.746 435.762C219.511 402.191 217.358 388.206 220.192 372.501C228.078 365.21 247.64 367.193 275 431.516M229.746 435.762C246.568 431.794 259.174 430.247 275 431.516" stroke="#595959" stroke-width="4" stroke-linecap="round"/>
<path d="M674 534.001C594.727 305.936 522.598 244.936 346 254.501" stroke="url(#paint0_linear_226_2602)" stroke-width="5" stroke-linejoin="bevel" stroke-dasharray="10 10"/>
<path d="M282.5 284.5C254.198 338.44 240.545 356.563 221.5 359.5C155.783 368.652 136.548 387.256 104 400.5" stroke="url(#paint1_linear_226_2602)" stroke-width="5" stroke-linejoin="bevel" stroke-dasharray="10 10"/>
<path d="M334.366 259.834C334.69 260.507 334.61 261.408 334.011 262.538C333.416 263.661 332.348 264.928 330.865 266.257C327.903 268.913 323.373 271.741 317.974 274.097C312.575 276.453 307.367 277.873 303.321 278.274C301.296 278.476 299.591 278.419 298.309 278.114C297.019 277.808 296.251 277.278 295.927 276.605C295.604 275.932 295.683 275.031 296.282 273.901C296.878 272.778 297.946 271.511 299.429 270.182C302.39 267.526 306.921 264.697 312.32 262.342C317.719 259.986 322.927 258.566 326.972 258.164C328.998 257.963 330.703 258.02 331.985 258.324C333.275 258.63 334.043 259.161 334.366 259.834Z" fill="#FDB209" stroke="#FDB209"/>
<path d="M331.571 261.151C331.818 261.666 331.761 262.38 331.255 263.31C330.754 264.232 329.856 265.28 328.607 266.387C326.112 268.595 322.301 270.96 317.763 272.94C313.225 274.92 308.856 276.124 305.47 276.481C303.775 276.66 302.355 276.622 301.295 276.382C300.225 276.139 299.619 275.714 299.372 275.199C299.124 274.684 299.182 273.97 299.688 273.04C300.189 272.118 301.086 271.07 302.335 269.963C304.83 267.755 308.641 265.39 313.179 263.41C317.718 261.43 322.087 260.226 325.472 259.869C327.168 259.69 328.587 259.728 329.647 259.968C330.718 260.211 331.323 260.636 331.571 261.151Z" fill="#DE9A00" stroke="#FDB209"/>
<path d="M340.292 257.172C340.731 258.091 340.594 259.303 339.78 260.788C338.971 262.264 337.537 263.922 335.566 265.657C331.627 269.123 325.63 272.82 318.507 275.909C311.383 278.997 304.519 280.878 299.189 281.43C296.522 281.707 294.268 281.648 292.568 281.259C290.859 280.869 289.81 280.171 289.371 279.252C288.932 278.333 289.069 277.121 289.883 275.636C290.693 274.16 292.126 272.502 294.098 270.767C298.037 267.3 304.033 263.604 311.157 260.515C318.28 257.426 325.144 255.546 330.474 254.994C333.142 254.717 335.396 254.776 337.095 255.164C338.805 255.555 339.854 256.253 340.292 257.172Z" stroke="black"/>
<defs>
<linearGradient id="paint0_linear_226_2602" x1="346" y1="242.5" x2="697.5" y2="560.5" gradientUnits="userSpaceOnUse">
<stop stop-color="#007AFF"/>
<stop offset="1" stop-color="#004999" stop-opacity="0"/>
</linearGradient>
<linearGradient id="paint1_linear_226_2602" x1="221.5" y1="281.543" x2="306.665" y2="335.123" gradientUnits="userSpaceOnUse">
<stop stop-color="#007AFF"/>
<stop offset="1" stop-color="#F63A00"/>
</linearGradient>
</defs>
</svg>
