<svg width="874" height="815" viewBox="0 0 874 815" fill="none" xmlns="http://www.w3.org/2000/svg">
<circle cx="437" cy="408" r="378.5" fill="#EBEBEB" stroke="#595959" stroke-width="3"/>
<path d="M344.944 420.081C356.858 439.526 354.63 462.585 344.944 476.406C380.536 511.772 414.759 510.447 463.666 510.906C496.922 510.332 534.053 505.425 610.5 470.907C606.957 411.577 585.529 389.002 543 341.405C516.095 311.295 389 264.905 329 278.405C304.934 283.82 268 272.405 263 324.405C263 350.905 303.959 400.305 344.944 420.081Z" fill="white"/>
<path d="M344.944 420.081C356.858 439.526 354.63 462.585 344.944 476.406C380.536 511.772 414.759 510.447 463.666 510.906C496.922 510.332 534.053 505.425 610.5 470.907C606.957 411.577 585.529 389.002 543 341.405C516.095 311.295 389 264.905 329 278.405C304.934 283.82 268 272.405 263 324.405C263 350.905 303.959 400.305 344.944 420.081ZM344.944 420.081L363.308 426.827" stroke="#FDB209" stroke-width="4" stroke-linecap="round"/>
<path d="M694.019 523.563C668.448 543.23 651.507 549.778 628 545.5L631 589C659.719 565.414 676.228 557.122 706.566 552.679C702.184 544.484 698.06 535.074 694.019 523.563Z" fill="#007AFF"/>
<path d="M742 599.537C727.564 583.376 716.414 571.1 706.566 552.679M494.972 75C553.72 92.7799 583.152 119.014 630.997 187.368C658.454 247.474 667.209 327.615 681.494 479.89C685.71 497.375 689.82 511.603 694.019 523.563M694.019 523.563C668.448 543.23 651.507 549.778 628 545.5L631 589C659.719 565.414 676.228 557.122 706.566 552.679M694.019 523.563C698.06 535.074 702.184 544.484 706.566 552.679" stroke="#595959" stroke-width="4" stroke-linecap="round"/>
<path d="M124.202 337.496C147.338 278.253 135.893 260.859 101 239.231C109.586 217.898 116.941 208.162 132.39 192.828C144.328 183.576 185.01 185.141 312.999 198.742C414.311 195.101 455.011 190.103 516.808 179.18C568.116 191.928 606.948 248.667 586.413 279.265C507.077 271.678 495.537 152.163 215 299.078C214.089 337.19 213.881 366.289 203 365.5C191.931 359.09 188.125 339.838 184.253 315.659C177.052 359.693 169.183 373.718 145.583 372.071C130.351 367.363 124.476 361.307 124.202 337.496Z" fill="white"/>
<path d="M184.253 315.659C177.052 359.693 169.183 373.718 145.583 372.071C130.351 367.363 124.476 361.307 124.202 337.496C147.338 278.253 135.893 260.859 101 239.231C109.586 217.898 116.941 208.162 132.39 192.828C144.328 183.576 185.01 185.141 312.999 198.742C414.311 195.101 455.011 190.103 516.808 179.18C568.116 191.928 606.948 248.667 586.413 279.265C507.077 271.678 495.537 152.163 215 299.078M184.253 315.659C188.125 339.838 191.931 359.09 203 365.5C213.881 366.289 214.089 337.19 215 299.078M184.253 315.659C194.847 309.789 205.091 304.268 215 299.078" stroke="#595959" stroke-width="4" stroke-linecap="round"/>
<path d="M187.437 471.247C146.366 418.824 139.578 399.215 156.957 382.535C184.817 373.808 200.587 376.782 229.746 435.762C219.511 402.191 217.358 388.206 220.192 372.501C228.078 365.21 247.64 367.193 275 431.516C283.141 432.168 292.133 433.566 302.99 435.762C344.829 466.891 365.158 487.737 424.457 499.908C460.197 503.27 484.97 501.509 577.314 461.238C616.293 450.542 624.521 460.918 627.812 493.084C627.575 584.055 629.826 633.947 659.202 710.996L615.984 741.932C530.577 656.753 484.05 621.919 407.625 622.285C299.85 638.029 244.718 644.143 220.192 617.28C199.099 610.664 195.732 555.583 187.437 471.247Z" fill="white"/>
<path d="M229.746 435.762C200.587 376.782 184.817 373.808 156.957 382.535C139.578 399.215 146.366 418.824 187.437 471.247C195.732 555.583 199.099 610.664 220.192 617.28C244.718 644.143 299.85 638.029 407.625 622.285C484.05 621.919 530.577 656.753 615.984 741.932L659.202 710.996C629.826 633.947 627.575 584.055 627.812 493.084C624.521 460.918 616.293 450.542 577.314 461.238C484.97 501.509 460.197 503.27 424.457 499.908C365.158 487.737 344.829 466.891 302.99 435.762C292.133 433.566 283.141 432.168 275 431.516M229.746 435.762C219.511 402.191 217.358 388.206 220.192 372.501C228.078 365.21 247.64 367.193 275 431.516M229.746 435.762C246.568 431.794 259.174 430.247 275 431.516" stroke="#595959" stroke-width="4" stroke-linecap="round"/>
<path d="M673.5 535.999C617.281 335.11 561.848 276.072 426 253.999C359.355 240.839 332.373 248.577 270 284.498C247.3 313.137 229.878 335.735 218.5 364.499C209.7 378.402 201.775 380.095 181.5 370.499" stroke="url(#paint0_linear_226_2777)" stroke-width="5" stroke-linejoin="bevel" stroke-dasharray="10 10"/>
<defs>
<linearGradient id="paint0_linear_226_2777" x1="405.5" y1="260.5" x2="735.24" y2="232.145" gradientUnits="userSpaceOnUse">
<stop stop-color="#007AFF"/>
<stop offset="1" stop-color="#F63A00"/>
</linearGradient>
</defs>
</svg>
