<svg width="874" height="815" viewBox="0 0 874 815" fill="none" xmlns="http://www.w3.org/2000/svg">
<circle cx="438" cy="408" r="378.5" fill="white" stroke="#595959" stroke-width="3"/>
<path d="M743 599.537C728.564 583.376 717.414 571.1 707.565 552.679M495.972 75C554.72 92.7798 584.152 119.014 631.997 187.368C659.454 247.474 668.209 327.615 682.494 479.89C686.71 497.375 690.82 511.603 695.019 523.563M631.997 545.4C655.504 549.678 669.448 543.23 695.019 523.563M695.019 523.563C699.06 535.074 703.184 544.484 707.565 552.679M631.997 589.074C660.716 565.488 677.228 557.122 707.565 552.679" stroke="#595959" stroke-width="4" stroke-linecap="round"/>
<path d="M125.202 337.496C148.338 278.253 136.893 260.859 102 239.231C110.586 217.898 117.941 208.162 133.39 192.828C145.328 183.576 186.01 185.141 313.999 198.742C415.311 195.101 456.011 190.103 517.808 179.18C569.116 191.928 607.948 248.667 587.413 279.265C508.077 271.678 496.537 152.163 216 299.078C215.089 337.19 214.881 366.289 204 365.5C192.931 359.09 189.125 339.838 185.253 315.659C178.052 359.693 170.183 373.718 146.583 372.071C131.351 367.363 125.476 361.307 125.202 337.496Z" fill="white"/>
<path d="M185.253 315.659C178.052 359.693 170.183 373.718 146.583 372.071C131.351 367.363 125.476 361.307 125.202 337.496C148.338 278.253 136.893 260.859 102 239.231C110.586 217.898 117.941 208.162 133.39 192.828C145.328 183.576 186.01 185.141 313.999 198.742C415.311 195.101 456.011 190.103 517.808 179.18C569.116 191.928 607.948 248.667 587.413 279.265C508.077 271.678 496.537 152.163 216 299.078M185.253 315.659C189.125 339.838 192.931 359.09 204 365.5C214.881 366.289 215.089 337.19 216 299.078M185.253 315.659C195.847 309.789 206.091 304.268 216 299.078" stroke="#595959" stroke-width="4" stroke-linecap="round"/>
<path d="M332.431 433.323C344.278 452.522 342.062 475.29 332.431 488.936C367.823 523.856 401.855 522.547 450.489 523C483.559 522.434 520.98 514.132 597 480.05C593.477 421.471 594.543 397.206 552.251 350.212C525.497 320.482 441.597 295.413 377.732 295.413C350.691 295.413 251.729 278.357 241 334.934C247.323 356.074 291.675 413.797 332.431 433.323Z" fill="white"/>
<path d="M332.431 433.323C344.278 452.522 342.062 475.29 332.431 488.936C367.823 523.856 401.855 522.547 450.489 523C483.559 522.434 520.98 514.132 597 480.05C593.477 421.471 594.543 397.206 552.251 350.212C525.497 320.482 441.597 295.413 377.732 295.413C350.691 295.413 251.729 278.357 241 334.934C247.323 356.074 291.675 413.797 332.431 433.323ZM332.431 433.323L350.691 439.984" stroke="#FDB209" stroke-width="4" stroke-linecap="round"/>
<path d="M192.029 483.048C151.375 432.786 144.656 413.985 161.858 397.993C189.435 389.625 205.045 392.476 233.908 449.026C223.777 416.838 221.646 403.43 224.451 388.372C232.257 381.382 251.62 383.282 278.702 444.955C286.76 445.58 295.661 446.92 306.407 449.026C347.821 478.872 367.943 498.858 426.64 510.528C462.017 513.751 486.538 512.063 577.944 473.452C616.527 463.197 624.671 473.145 627.929 503.985C627.694 591.207 629.922 639.043 659 712.917L616.221 742.577C531.682 660.909 485.628 627.511 409.979 627.861C303.3 642.956 248.727 648.818 224.451 623.063C203.572 616.72 200.239 563.909 192.029 483.048Z" fill="white"/>
<path d="M233.908 449.026C205.045 392.476 189.435 389.625 161.858 397.993C144.656 413.985 151.375 432.786 192.029 483.048C200.239 563.909 203.572 616.72 224.451 623.063C248.727 648.818 303.3 642.956 409.979 627.861C485.628 627.511 531.682 660.909 616.221 742.577L659 712.917C629.922 639.043 627.694 591.207 627.929 503.985C624.671 473.145 616.527 463.197 577.944 473.452C486.538 512.063 462.017 513.751 426.64 510.528C367.943 498.858 347.821 478.872 306.407 449.026C295.661 446.92 286.76 445.58 278.702 444.955M233.908 449.026C223.777 416.838 221.646 403.43 224.451 388.372C232.257 381.382 251.62 383.282 278.702 444.955M233.908 449.026C250.559 445.221 263.037 443.738 278.702 444.955" stroke="#595959" stroke-width="4" stroke-linecap="round"/>
<path d="M409.121 273.971C410.486 274.18 411.762 273.244 411.971 271.879C412.18 270.514 411.243 269.238 409.879 269.029L409.121 273.971ZM237.5 307L236.108 304.924L235.472 305.35L235.184 306.06L237.5 307ZM224.5 369L226.282 370.753L227.05 369.973L226.997 368.88L224.5 369ZM177 383L201.953 397.515L202.047 368.648L177 383ZM181.279 385.514C182.66 385.509 183.775 384.386 183.771 383.005C183.766 381.625 182.643 380.509 181.262 380.514L181.279 385.514ZM189.689 380.317C188.31 380.384 187.246 381.557 187.314 382.936C187.381 384.315 188.553 385.378 189.933 385.311L189.689 380.317ZM198.656 384.534C200.024 384.343 200.978 383.08 200.787 381.713C200.597 380.345 199.334 379.391 197.967 379.581L198.656 384.534ZM205.914 377.878C204.594 378.283 203.852 379.681 204.257 381.001C204.662 382.321 206.06 383.063 207.38 382.659L205.914 377.878ZM215.715 379.084C216.915 378.401 217.334 376.874 216.651 375.674C215.968 374.474 214.442 374.055 213.242 374.738L215.715 379.084ZM219.751 370.056C218.712 370.965 218.607 372.545 219.517 373.584C220.426 374.622 222.006 374.727 223.045 373.818L219.751 370.056ZM226.83 363.629C226.81 362.248 225.675 361.145 224.294 361.165C222.914 361.185 221.811 362.32 221.83 363.7L226.83 363.629ZM222.136 352.825C222.032 354.202 223.065 355.402 224.442 355.505C225.818 355.609 227.018 354.576 227.122 353.199L222.136 352.825ZM228.45 342.894C228.7 341.536 227.802 340.232 226.444 339.982C225.086 339.732 223.783 340.629 223.532 341.987L228.45 342.894ZM226.045 331.382C225.665 332.709 226.433 334.093 227.761 334.473C229.088 334.853 230.472 334.084 230.852 332.757L226.045 331.382ZM234.093 322.763C234.557 321.463 233.879 320.033 232.579 319.569C231.278 319.104 229.848 319.782 229.384 321.083L234.093 322.763ZM233.187 311.034C232.68 312.318 233.309 313.77 234.592 314.278C235.876 314.786 237.329 314.157 237.837 312.874L233.187 311.034ZM243.081 306.3C244.236 305.543 244.56 303.994 243.803 302.839C243.047 301.684 241.497 301.361 240.342 302.117L243.081 306.3ZM248.881 296.672C247.708 297.399 247.346 298.94 248.073 300.114C248.8 301.287 250.341 301.649 251.515 300.922L248.881 296.672ZM260.072 295.791C261.267 295.099 261.675 293.569 260.983 292.374C260.292 291.179 258.762 290.771 257.567 291.463L260.072 295.791ZM266.452 286.525C265.233 287.173 264.771 288.687 265.419 289.906C266.068 291.125 267.582 291.587 268.801 290.939L266.452 286.525ZM277.685 286.444C278.93 285.847 279.456 284.354 278.859 283.109C278.262 281.864 276.769 281.338 275.524 281.935L277.685 286.444ZM284.806 277.755C283.533 278.291 282.936 279.756 283.472 281.029C284.007 282.302 285.473 282.899 286.746 282.363L284.806 277.755ZM295.992 278.76C297.292 278.294 297.968 276.863 297.503 275.563C297.037 274.263 295.606 273.587 294.306 274.052L295.992 278.76ZM304.015 270.893C302.69 271.281 301.93 272.669 302.318 273.994C302.706 275.319 304.094 276.079 305.42 275.692L304.015 270.893ZM315.01 273.203C316.357 272.898 317.201 271.559 316.896 270.212C316.591 268.866 315.252 268.022 313.905 268.327L315.01 273.203ZM323.936 266.379C322.573 266.601 321.647 267.885 321.869 269.248C322.09 270.61 323.374 271.536 324.737 271.315L323.936 266.379ZM334.568 270.018C335.941 269.878 336.941 268.65 336.801 267.277C336.66 265.903 335.433 264.904 334.059 265.044L334.568 270.018ZM344.232 264.286C342.853 264.352 341.788 265.523 341.854 266.902C341.92 268.282 343.092 269.346 344.471 269.28L344.232 264.286ZM354.41 269.047C355.791 269.047 356.91 267.927 356.91 266.546C356.91 265.166 355.79 264.047 354.409 264.047L354.41 269.047ZM364.566 264.258C363.186 264.202 362.022 265.275 361.966 266.655C361.91 268.034 362.983 269.198 364.363 269.254L364.566 264.258ZM374.319 269.835C375.696 269.939 376.896 268.906 376.999 267.529C377.103 266.153 376.07 264.953 374.693 264.849L374.319 269.835ZM384.797 265.756C383.424 265.614 382.195 266.612 382.053 267.985C381.911 269.359 382.909 270.587 384.283 270.729L384.797 265.756ZM394.217 271.876C395.587 272.049 396.838 271.079 397.011 269.709C397.185 268.34 396.215 267.089 394.845 266.915L394.217 271.876ZM404.862 268.28C403.496 268.082 402.227 269.028 402.029 270.395C401.83 271.761 402.777 273.03 404.143 273.228L404.862 268.28ZM189.933 385.311C193.048 385.159 195.942 384.911 198.656 384.534L197.967 379.581C195.435 379.934 192.695 380.17 189.689 380.317L189.933 385.311ZM207.38 382.659C210.334 381.753 213.082 380.582 215.715 379.084L213.242 374.738C210.945 376.046 208.536 377.074 205.914 377.878L207.38 382.659ZM223.045 373.818C224.131 372.867 225.207 371.847 226.282 370.753L222.718 367.247C221.721 368.26 220.735 369.194 219.751 370.056L223.045 373.818ZM226.997 368.88C226.91 367.071 226.854 365.324 226.83 363.629L221.83 363.7C221.855 365.456 221.913 367.26 222.003 369.121L226.997 368.88ZM227.122 353.199C227.388 349.655 227.829 346.262 228.45 342.894L223.532 341.987C222.879 345.533 222.415 349.103 222.136 352.825L227.122 353.199ZM230.852 332.757C231.767 329.557 232.845 326.26 234.093 322.763L229.384 321.083C228.108 324.657 226.996 328.057 226.045 331.382L230.852 332.757ZM237.837 312.874C238.468 311.278 239.128 309.637 239.816 307.941L235.184 306.06C234.491 307.766 233.825 309.422 233.187 311.034L237.837 312.874ZM238.892 309.077C240.301 308.132 241.697 307.207 243.081 306.3L240.342 302.117C238.942 303.034 237.531 303.97 236.108 304.924L238.892 309.077ZM251.515 300.922C254.412 299.126 257.262 297.417 260.072 295.791L257.567 291.463C254.712 293.116 251.819 294.852 248.881 296.672L251.515 300.922ZM268.801 290.939C271.798 289.344 274.756 287.847 277.685 286.444L275.524 281.935C272.529 283.37 269.509 284.899 266.452 286.525L268.801 290.939ZM286.746 282.363C289.847 281.058 292.925 279.858 295.992 278.76L294.306 274.052C291.15 275.183 287.988 276.416 284.806 277.755L286.746 282.363ZM305.42 275.692C308.609 274.758 311.801 273.93 315.01 273.203L313.905 268.327C310.595 269.077 307.303 269.931 304.015 270.893L305.42 275.692ZM324.737 271.315C327.978 270.788 331.25 270.358 334.568 270.018L334.059 265.044C330.646 265.393 327.276 265.837 323.936 266.379L324.737 271.315ZM344.471 269.28C347.726 269.124 351.035 269.047 354.41 269.047L354.409 264.047C350.959 264.047 347.571 264.126 344.232 264.286L344.471 269.28ZM364.363 269.254C367.612 269.386 370.928 269.581 374.319 269.835L374.693 264.849C371.25 264.591 367.877 264.393 364.566 264.258L364.363 269.254ZM384.283 270.729C387.522 271.064 390.831 271.447 394.217 271.876L394.845 266.915C391.424 266.482 388.077 266.095 384.797 265.756L384.283 270.729ZM404.143 273.228C405.785 273.467 407.444 273.714 409.121 273.971L409.879 269.029C408.189 268.77 406.517 268.52 404.862 268.28L404.143 273.228Z" fill="#007AFF"/>
<path d="M261.215 290.426C261.676 291.013 261.792 291.91 261.451 293.143C261.111 294.367 260.34 295.834 259.178 297.452C256.858 300.682 253.042 304.42 248.277 307.882C243.511 311.344 238.731 313.852 234.866 315.115C232.931 315.747 231.254 316.059 229.937 316.037C228.611 316.016 227.747 315.663 227.286 315.076C226.825 314.488 226.709 313.592 227.051 312.359C227.391 311.134 228.161 309.667 229.323 308.049C231.644 304.819 235.46 301.082 240.225 297.619C244.991 294.157 249.771 291.65 253.635 290.386C255.57 289.754 257.248 289.443 258.565 289.464C259.89 289.485 260.755 289.838 261.215 290.426Z" fill="#FDB209" stroke="#FDB209"/>
<path d="M258.769 292.312C259.121 292.762 259.218 293.471 258.925 294.489C258.634 295.497 257.983 296.714 257.001 298.063C255.04 300.757 251.827 303.886 247.822 306.796C243.816 309.707 239.808 311.823 236.579 312.9C234.961 313.439 233.567 313.708 232.48 313.701C231.383 313.694 230.7 313.41 230.347 312.961C229.995 312.511 229.898 311.801 230.191 310.784C230.482 309.776 231.133 308.559 232.115 307.21C234.076 304.516 237.289 301.387 241.294 298.476C245.3 295.566 249.308 293.45 252.537 292.373C254.155 291.834 255.549 291.564 256.636 291.571C257.733 291.578 258.416 291.863 258.769 292.312Z" fill="#DE9A00" stroke="#FDB209"/>
<path d="M266.43 286.549C267.056 287.352 267.183 288.565 266.707 290.19C266.235 291.806 265.192 293.734 263.64 295.852C260.539 300.085 255.478 304.986 249.187 309.535C242.895 314.084 236.596 317.398 231.51 319.084C228.964 319.929 226.75 320.356 225.007 320.342C223.254 320.329 222.08 319.873 221.453 319.07C220.827 318.267 220.7 317.054 221.175 315.429C221.648 313.813 222.691 311.885 224.243 309.766C227.343 305.534 232.404 300.633 238.696 296.084C244.988 291.534 251.287 288.221 256.373 286.535C258.918 285.69 261.132 285.263 262.875 285.277C264.629 285.29 265.803 285.746 266.43 286.549Z" stroke="black"/>
</svg>
