<svg width="1104" height="873" viewBox="0 0 1104 873" fill="none" xmlns="http://www.w3.org/2000/svg">
<path d="M556.199 437L554 723" stroke="black" stroke-width="10" stroke-linecap="round"/>
<path d="M448 642.428L514.748 437" stroke="black" stroke-width="10" stroke-linecap="round"/>
<path d="M595 437L661.748 642.428" stroke="black" stroke-width="10" stroke-linecap="round"/>
<path d="M988 294C988 354.199 776.407 444 545 444C313.593 444 120 354.199 120 294C120 233.801 313.593 226 545 226C776.407 226 988 233.801 988 294Z" fill="#713937"/>
<path d="M228.5 376C239.733 371.753 253.707 367.636 268 370C279.215 380.813 292.926 380.538 285.67 402.05C289.582 393.305 300.644 385.394 312.134 385.936C359.809 386.028 356.767 390.024 367.319 395.036C386.862 382.017 445.041 388.208 448.762 394.43C487.5 385.936 536.831 390.964 539.831 396.5C542.831 402.036 541 432.5 539.831 475.5C542 430.5 540.283 399.454 550.5 392.359C563.59 380.541 598.5 395.036 636.5 395.036C639.917 396.195 641.348 404.649 642.026 419.351C642.135 404.028 643.906 394.2 651.5 392.359C665.081 389.068 715.998 393.487 714.5 396.5C719.711 398.491 720.005 414.228 721.682 443.062C719.411 404 721.301 393.965 730 392.359C738.699 390.753 759.44 384.9 782 387.5C788.91 386.777 793.61 402.243 797.995 414.933C791.152 395.129 795.235 380.589 804 378C836.144 367.35 848.506 368.912 868 376L797.995 414.933L721.682 443.062L642.823 464.619L583.275 478L539.831 475.5L448.355 458.731L367.319 434.644L284.723 404.67C262.733 392.517 242.895 384.043 228.5 376Z" fill="#D9D9D9"/>
<path d="M284.723 404.67C294 380.5 279.653 381.234 268 370C253.707 367.636 239.733 371.753 228.5 376C242.895 384.043 262.733 392.517 284.723 404.67ZM284.723 404.67L367.319 434.644M284.723 404.67C287.392 394.957 299.504 385.34 312.134 385.936C359.809 386.028 356.767 390.024 367.319 395.036M367.319 434.644C366.401 420.226 368.784 409.512 367.319 395.036M367.319 434.644L448.355 458.731M367.319 395.036C386.862 382.017 445.041 388.208 448.762 394.43M448.355 458.731C447.6 434.777 447.294 419.249 448.762 394.43M448.355 458.731L539.831 475.5M448.762 394.43C487.5 385.936 536.831 390.964 539.831 396.5C542.831 402.036 541 432.5 539.831 475.5M539.831 475.5C542 430.5 540.283 399.454 550.5 392.359C563.59 380.541 598.5 395.036 636.5 395.036C642.58 397.099 642.372 422.256 642.823 464.619M539.831 475.5L583.275 478L642.823 464.619M642.823 464.619L721.682 443.062M642.823 464.619C642.964 424.491 637.919 395.651 651.5 392.359C665.081 389.068 715.998 393.487 714.5 396.5C719.711 398.491 720.005 414.228 721.682 443.062M721.682 443.062L797.995 414.933M721.682 443.062C719.411 404 721.301 393.965 730 392.359C738.699 390.753 759.44 384.9 782 387.5C788.91 386.777 793.61 402.243 797.995 414.933M797.995 414.933L868 376C848.506 368.912 836.144 367.35 804 378C795.235 380.589 791.152 395.129 797.995 414.933Z" stroke="black"/>
<path d="M198 343.272C192.065 338.656 184.078 317.327 173 282.272L243 272.272L320.5 264.272L415.5 252.272L516.5 243.272L536 254.772L554.5 260.772H571L595 254.772L622.5 243.272L704 254.772L788.5 264.272L865.5 273.272L937.5 281.772C936.305 297.828 934.245 313.709 925 337.772C921.398 343.978 915.571 347.788 903 354.772C882.768 357.899 872.193 358.38 856 354.772C850.405 361.9 847.122 365.796 836 369.272C822.748 373.185 811.001 373.774 783 372.272C776.5 382.772 776.5 382.772 766 387.272C755.5 391.772 726.175 387.739 699 379.272C668.5 398.772 585 400.772 554.5 379.272C516 397.272 438 405.772 415.5 379.272C388.852 389.621 373.528 398.399 349 392.272C339.971 391.426 335.951 388.841 329.5 382.772C314.991 387.578 305.852 389.129 278.5 379.272C269.227 368.741 263.391 363.63 258 348.272C258 348.272 215.337 352.153 198 343.272Z" fill="#D9D9D9"/>
<path d="M258 348.272C258 348.272 215.337 352.153 198 343.272C192.065 338.656 184.078 317.327 173 282.272L243 272.272M258 348.272C251.726 321.88 246.773 307.323 243 272.272M258 348.272C263.391 363.63 269.227 368.741 278.5 379.272C305.852 389.129 314.991 387.578 329.5 382.772M243 272.272L320.5 264.272M329.5 382.772L320.5 264.272M329.5 382.772C335.951 388.841 339.971 391.426 349 392.272C373.528 398.399 388.852 389.621 415.5 379.272M320.5 264.272L415.5 252.272M415.5 379.272V252.272M415.5 379.272C438 405.772 516 397.272 554.5 379.272M415.5 252.272L516.5 243.272L536 254.772L554.5 260.772M554.5 379.272V260.772M554.5 379.272C585 400.772 668.5 398.772 699 379.272M554.5 260.772H571L595 254.772L622.5 243.272L704 254.772M699 379.272L704 254.772M699 379.272C726.175 387.739 755.5 391.772 766 387.272C776.5 382.772 776.5 382.772 783 372.272M704 254.772L788.5 264.272M783 372.272L788.5 264.272M783 372.272C811.001 373.774 822.748 373.185 836 369.272C847.122 365.796 850.405 361.9 856 354.772M788.5 264.272L865.5 273.272M856 354.772L865.5 273.272M856 354.772C872.193 358.38 882.768 357.899 903 354.772C915.571 347.788 921.398 343.978 925 337.772C934.245 313.709 936.305 297.828 937.5 281.772L865.5 273.272" stroke="black"/>
<g filter="url(#filter0_d_26_388)">
<path d="M558 139.272C391.767 28.8262 218.213 175.825 106 290.272L516 244.272C533.479 256.14 535.097 258.655 558 262.772C579.394 259.461 602.191 255.297 623 244.877L998 290.272C780.634 79.2868 684.022 63.9579 558 139.272Z" fill="#D77C86"/>
<path d="M998 290.272C834.703 411.478 733.24 448.518 558 476.772C379.994 450.603 285.985 425.039 106 290.272C174 438.272 257.91 567.864 534 604C810.09 640.136 1013.65 312.498 998 290.272Z" fill="#D77C86"/>
<path d="M106 290.272C218.213 175.825 391.767 28.8262 558 139.272C684.022 63.9579 780.634 79.2868 998 290.272M106 290.272C174 438.272 257.91 567.864 534 604C810.09 640.136 1013.65 312.498 998 290.272M106 290.272L516 244.272C533.479 256.14 535.097 258.655 558 262.772C579.394 259.461 602.191 255.297 623 244.877L998 290.272M106 290.272C285.985 425.039 379.994 450.603 558 476.772C733.24 448.518 834.703 411.478 998 290.272" stroke="#1E1E1E" stroke-width="2"/>
</g>
<path d="M386.203 146.924C389.676 156.753 363.003 154.354 336.113 163.855C309.223 173.356 292.298 191.159 288.825 181.33C285.352 171.501 304.335 155.831 331.226 146.33C358.116 136.829 382.73 137.095 386.203 146.924Z" fill="#ED97A0"/>
<path d="M278.523 185.938C283.133 188.113 280.782 191.942 278.894 195.942C278.82 196.1 276.081 200.793 271.472 198.618C266.862 196.443 264.872 193.243 266.76 189.243C268.647 185.243 273.914 183.763 278.523 185.938Z" fill="#ED979E"/>
<path d="M556.199 437L553.431 796.989" stroke="black" stroke-width="10" stroke-linecap="round"/>
<path d="M419 731.827L514.795 437" stroke="black" stroke-width="10" stroke-linecap="round"/>
<path d="M595.045 436.985L690.841 731.813" stroke="black" stroke-width="10" stroke-linecap="round"/>
<defs>
<filter id="filter0_d_26_388" x="100.804" y="96.9995" width="903.042" height="518.782" filterUnits="userSpaceOnUse" color-interpolation-filters="sRGB">
<feFlood flood-opacity="0" result="BackgroundImageFix"/>
<feColorMatrix in="SourceAlpha" type="matrix" values="0 0 0 0 0 0 0 0 0 0 0 0 0 0 0 0 0 0 127 0" result="hardAlpha"/>
<feOffset dy="4"/>
<feGaussianBlur stdDeviation="2"/>
<feComposite in2="hardAlpha" operator="out"/>
<feColorMatrix type="matrix" values="0 0 0 0 0 0 0 0 0 0 0 0 0 0 0 0 0 0 0.25 0"/>
<feBlend mode="normal" in2="BackgroundImageFix" result="effect1_dropShadow_26_388"/>
<feBlend mode="normal" in="SourceGraphic" in2="effect1_dropShadow_26_388" result="shape"/>
</filter>
</defs>
</svg>
