<svg width="874" height="815" viewBox="0 0 874 815" fill="none" xmlns="http://www.w3.org/2000/svg">
<circle cx="438" cy="408" r="378.5" fill="white" stroke="#595959" stroke-width="3"/>
<path d="M743 599.537C728.564 583.376 717.414 571.1 707.565 552.679M495.972 75C554.72 92.7798 584.152 119.014 631.997 187.368C659.454 247.474 668.209 327.615 682.494 479.89C686.71 497.375 690.82 511.603 695.019 523.563M631.997 545.4C655.504 549.678 669.448 543.23 695.019 523.563M695.019 523.563C699.06 535.074 703.184 544.484 707.565 552.679M631.997 589.074C660.716 565.488 677.228 557.122 707.565 552.679" stroke="#595959" stroke-width="4" stroke-linecap="round"/>
<path d="M125.202 337.496C148.338 278.253 136.893 260.859 102 239.231C110.586 217.898 117.941 208.162 133.39 192.828C145.328 183.576 186.01 185.141 313.999 198.742C415.311 195.101 456.011 190.103 517.808 179.18C569.116 191.928 607.948 248.667 587.413 279.265C508.077 271.678 496.537 152.163 216 299.078C215.089 337.19 214.881 366.289 204 365.5C192.931 359.09 189.125 339.838 185.253 315.659C178.052 359.693 170.183 373.718 146.583 372.071C131.351 367.363 125.476 361.307 125.202 337.496Z" fill="white"/>
<path d="M185.253 315.659C178.052 359.693 170.183 373.718 146.583 372.071C131.351 367.363 125.476 361.307 125.202 337.496C148.338 278.253 136.893 260.859 102 239.231C110.586 217.898 117.941 208.162 133.39 192.828C145.328 183.576 186.01 185.141 313.999 198.742C415.311 195.101 456.011 190.103 517.808 179.18C569.116 191.928 607.948 248.667 587.413 279.265C508.077 271.678 496.537 152.163 216 299.078M185.253 315.659C189.125 339.838 192.931 359.09 204 365.5C214.881 366.289 215.089 337.19 216 299.078M185.253 315.659C195.847 309.789 206.091 304.268 216 299.078" stroke="#595959" stroke-width="4" stroke-linecap="round"/>
<path d="M332.431 433.323C344.278 452.522 342.062 475.29 332.431 488.936C367.823 523.856 401.855 522.547 450.489 523C483.559 522.434 520.98 514.132 597 480.05C593.477 421.471 594.543 397.206 552.251 350.212C525.497 320.482 441.597 295.413 377.732 295.413C350.691 295.413 251.729 278.357 241 334.934C247.323 356.074 291.675 413.797 332.431 433.323Z" fill="white"/>
<path d="M332.431 433.323C344.278 452.522 342.062 475.29 332.431 488.936C367.823 523.856 401.855 522.547 450.489 523C483.559 522.434 520.98 514.132 597 480.05C593.477 421.471 594.543 397.206 552.251 350.212C525.497 320.482 441.597 295.413 377.732 295.413C350.691 295.413 251.729 278.357 241 334.934C247.323 356.074 291.675 413.797 332.431 433.323ZM332.431 433.323L350.691 439.984" stroke="#FDB209" stroke-width="4" stroke-linecap="round"/>
<path d="M192.029 483.048C151.375 432.786 144.656 413.985 161.858 397.993C189.435 389.625 205.045 392.476 233.908 449.026C223.777 416.838 221.646 403.43 224.451 388.372C232.257 381.382 251.62 383.282 278.702 444.955C286.76 445.58 295.661 446.92 306.407 449.026C347.821 478.872 367.943 498.858 426.64 510.528C462.017 513.751 486.538 512.063 577.944 473.452C616.527 463.197 624.671 473.145 627.929 503.985C627.694 591.207 629.922 639.043 659 712.917L616.221 742.577C531.682 660.909 485.628 627.511 409.979 627.861C303.3 642.956 248.727 648.818 224.451 623.063C203.572 616.72 200.239 563.909 192.029 483.048Z" fill="white"/>
<path d="M233.908 449.026C205.045 392.476 189.435 389.625 161.858 397.993C144.656 413.985 151.375 432.786 192.029 483.048C200.239 563.909 203.572 616.72 224.451 623.063C248.727 648.818 303.3 642.956 409.979 627.861C485.628 627.511 531.682 660.909 616.221 742.577L659 712.917C629.922 639.043 627.694 591.207 627.929 503.985C624.671 473.145 616.527 463.197 577.944 473.452C486.538 512.063 462.017 513.751 426.64 510.528C367.943 498.858 347.821 478.872 306.407 449.026C295.661 446.92 286.76 445.58 278.702 444.955M233.908 449.026C223.777 416.838 221.646 403.43 224.451 388.372C232.257 381.382 251.62 383.282 278.702 444.955M233.908 449.026C250.559 445.221 263.037 443.738 278.702 444.955" stroke="#595959" stroke-width="4" stroke-linecap="round"/>
<path d="M326.199 282.492C327.575 282.382 328.602 281.178 328.492 279.801C328.382 278.425 327.178 277.398 325.801 277.508L326.199 282.492ZM237.5 306.999L236.108 304.923L235.472 305.349L235.184 306.059L237.5 306.999ZM224.5 368.999L226.282 370.752L227.05 369.972L226.997 368.879L224.5 368.999ZM99 390.999L124.213 405.058L123.782 376.193L99 390.999ZM104.425 393.418C105.805 393.372 106.887 392.217 106.842 390.837C106.796 389.457 105.641 388.375 104.261 388.42L104.425 393.418ZM114.847 387.856C113.469 387.951 112.43 389.145 112.524 390.522C112.619 391.9 113.813 392.939 115.19 392.845L114.847 387.856ZM125.901 391.99C127.276 391.867 128.291 390.653 128.168 389.278C128.045 387.902 126.831 386.887 125.455 387.01L125.901 391.99ZM136.084 385.972C134.711 386.117 133.715 387.347 133.86 388.72C134.005 390.093 135.236 391.089 136.609 390.944L136.084 385.972ZM147.273 389.739C148.643 389.574 149.621 388.329 149.456 386.959C149.291 385.588 148.046 384.61 146.675 384.775L147.273 389.739ZM157.255 383.424C155.887 383.609 154.928 384.868 155.113 386.236C155.298 387.605 156.558 388.564 157.926 388.378L157.255 383.424ZM168.563 386.852C169.928 386.645 170.867 385.37 170.659 384.005C170.452 382.64 169.177 381.701 167.812 381.909L168.563 386.852ZM178.333 380.209C176.972 380.443 176.059 381.735 176.293 383.096C176.527 384.457 177.82 385.37 179.18 385.136L178.333 380.209ZM189.767 383.185C191.121 382.917 192.001 381.601 191.733 380.247C191.465 378.893 190.15 378.012 188.795 378.28L189.767 383.185ZM199.164 376.044C197.82 376.362 196.988 377.708 197.306 379.052C197.623 380.396 198.97 381.228 200.314 380.91L199.164 376.044ZM210.806 378.118C212.127 377.716 212.872 376.319 212.47 374.998C212.068 373.677 210.672 372.932 209.351 373.334L210.806 378.118ZM218.985 369.701C217.749 370.318 217.248 371.819 217.864 373.055C218.481 374.29 219.982 374.792 221.218 374.175L218.985 369.701ZM226.83 363.628C226.81 362.247 225.675 361.144 224.294 361.164C222.914 361.184 221.811 362.319 221.83 363.699L226.83 363.628ZM222.136 352.824C222.032 354.201 223.065 355.401 224.442 355.504C225.818 355.608 227.018 354.575 227.122 353.199L222.136 352.824ZM228.45 342.893C228.7 341.535 227.802 340.231 226.444 339.981C225.086 339.731 223.783 340.628 223.532 341.986L228.45 342.893ZM226.045 331.381C225.665 332.708 226.433 334.092 227.761 334.472C229.088 334.852 230.472 334.083 230.852 332.756L226.045 331.381ZM234.093 322.762C234.557 321.462 233.879 320.032 232.579 319.568C231.278 319.104 229.848 319.781 229.384 321.082L234.093 322.762ZM233.188 311.033C232.68 312.317 233.309 313.77 234.592 314.277C235.876 314.785 237.329 314.156 237.837 312.873L233.188 311.033ZM242.961 306.334C244.105 305.56 244.404 304.005 243.63 302.862C242.856 301.719 241.301 301.419 240.158 302.194L242.961 306.334ZM248.122 296.748C246.986 297.533 246.701 299.09 247.486 300.226C248.27 301.362 249.828 301.646 250.964 300.862L248.122 296.748ZM258.9 295.323C260.029 294.528 260.299 292.969 259.504 291.84C258.709 290.711 257.15 290.44 256.021 291.236L258.9 295.323ZM263.882 285.677C262.753 286.472 262.483 288.032 263.279 289.16C264.074 290.289 265.634 290.559 266.763 289.763L263.882 285.677ZM274.606 284.538C275.804 283.851 276.218 282.324 275.532 281.126C274.846 279.928 273.318 279.513 272.12 280.199L274.606 284.538ZM282.682 277.678C281.303 277.61 280.13 278.673 280.062 280.052C279.994 281.431 281.057 282.604 282.436 282.672L282.682 277.678ZM292.049 283.351C293.428 283.425 294.605 282.367 294.678 280.988C294.752 279.609 293.694 278.432 292.315 278.358L292.049 283.351ZM301.827 278.596C300.446 278.597 299.328 279.717 299.329 281.098C299.33 282.479 300.451 283.597 301.831 283.596L301.827 278.596ZM311.564 283.387C312.944 283.332 314.018 282.169 313.963 280.79C313.908 279.41 312.745 278.336 311.365 278.391L311.564 283.387ZM320.958 277.867C319.581 277.96 318.54 279.153 318.634 280.531C318.728 281.908 319.921 282.949 321.298 282.855L320.958 277.867ZM115.19 392.845C118.515 392.616 122.109 392.329 125.901 391.99L125.455 387.01C121.694 387.347 118.134 387.63 114.847 387.856L115.19 392.845ZM136.609 390.944C140.083 390.577 143.652 390.175 147.273 389.739L146.675 384.775C143.079 385.208 139.534 385.608 136.084 385.972L136.609 390.944ZM157.926 388.378C161.477 387.898 165.036 387.388 168.563 386.852L167.812 381.909C164.314 382.441 160.781 382.946 157.255 383.424L157.926 388.378ZM179.18 385.136C182.806 384.513 186.351 383.862 189.767 383.185L188.795 378.28C185.425 378.948 181.922 379.591 178.333 380.209L179.18 385.136ZM200.314 380.91C204.103 380.015 207.632 379.083 210.806 378.118L209.351 373.334C206.302 374.261 202.879 375.167 199.164 376.044L200.314 380.91ZM221.218 374.175C223.252 373.16 225.024 372.032 226.282 370.752L222.718 367.246C222.017 367.958 220.804 368.793 218.985 369.701L221.218 374.175ZM226.997 368.879C226.91 367.07 226.854 365.323 226.83 363.628L221.83 363.699C221.855 365.455 221.913 367.259 222.003 369.12L226.997 368.879ZM227.122 353.199C227.388 349.654 227.829 346.261 228.45 342.893L223.532 341.986C222.879 345.532 222.415 349.102 222.136 352.824L227.122 353.199ZM230.852 332.756C231.767 329.556 232.845 326.259 234.093 322.762L229.384 321.082C228.108 324.656 226.996 328.056 226.045 331.381L230.852 332.756ZM237.837 312.873C238.468 311.277 239.128 309.636 239.816 307.94L235.184 306.059C234.491 307.765 233.825 309.421 233.188 311.033L237.837 312.873ZM238.892 309.076C240.303 308.13 241.658 307.216 242.961 306.334L240.158 302.194C238.861 303.072 237.512 303.981 236.108 304.923L238.892 309.076ZM250.964 300.862C253.942 298.804 256.569 296.965 258.9 295.323L256.021 291.236C253.699 292.871 251.085 294.701 248.122 296.748L250.964 300.862ZM266.763 289.763C270.297 287.272 272.7 285.63 274.606 284.538L272.12 280.199C269.978 281.427 267.385 283.207 263.882 285.677L266.763 289.763ZM282.436 282.672C283.545 282.727 284.807 282.834 286.401 282.963C287.979 283.09 289.832 283.233 292.049 283.351L292.315 278.358C290.166 278.244 288.367 278.105 286.803 277.979C285.257 277.854 283.89 277.738 282.682 277.678L282.436 282.672ZM301.831 283.596C304.682 283.593 307.903 283.533 311.564 283.387L311.365 278.391C307.766 278.534 304.61 278.593 301.827 278.596L301.831 283.596ZM321.298 282.855C322.868 282.748 324.5 282.627 326.199 282.492L325.801 277.508C324.122 277.642 322.508 277.761 320.958 277.867L321.298 282.855Z" fill="#007AFF"/>
<path d="M326.199 282.492C327.575 282.382 328.602 281.178 328.492 279.801C328.382 278.425 327.178 277.398 325.801 277.508L326.199 282.492ZM237.5 306.999L236.108 304.923L235.472 305.349L235.184 306.059L237.5 306.999ZM224.5 368.999L226.282 370.752L227.05 369.972L226.997 368.879L224.5 368.999ZM99 390.999L124.213 405.058L123.782 376.193L99 390.999ZM104.425 393.418C105.805 393.372 106.887 392.217 106.842 390.837C106.796 389.457 105.641 388.375 104.261 388.42L104.425 393.418ZM114.847 387.856C113.469 387.951 112.43 389.145 112.524 390.522C112.619 391.9 113.813 392.939 115.19 392.845L114.847 387.856ZM125.901 391.99C127.276 391.867 128.291 390.653 128.168 389.278C128.045 387.902 126.831 386.887 125.455 387.01L125.901 391.99ZM136.084 385.972C134.711 386.117 133.715 387.347 133.86 388.72C134.005 390.093 135.236 391.089 136.609 390.944L136.084 385.972ZM147.273 389.739C148.643 389.574 149.621 388.329 149.456 386.959C149.291 385.588 148.046 384.61 146.675 384.775L147.273 389.739ZM157.255 383.424C155.887 383.609 154.928 384.868 155.113 386.236C155.298 387.605 156.558 388.564 157.926 388.378L157.255 383.424ZM168.563 386.852C169.928 386.645 170.867 385.37 170.659 384.005C170.452 382.64 169.177 381.701 167.812 381.909L168.563 386.852ZM178.333 380.209C176.972 380.443 176.059 381.735 176.293 383.096C176.527 384.457 177.82 385.37 179.18 385.136L178.333 380.209ZM189.767 383.185C191.121 382.917 192.001 381.601 191.733 380.247C191.465 378.893 190.15 378.012 188.795 378.28L189.767 383.185ZM199.164 376.044C197.82 376.362 196.988 377.708 197.306 379.052C197.623 380.396 198.97 381.228 200.314 380.91L199.164 376.044ZM210.806 378.118C212.127 377.716 212.872 376.319 212.47 374.998C212.068 373.677 210.672 372.932 209.351 373.334L210.806 378.118ZM218.985 369.701C217.749 370.318 217.248 371.819 217.864 373.055C218.481 374.29 219.982 374.792 221.218 374.175L218.985 369.701ZM226.83 363.628C226.81 362.247 225.675 361.144 224.294 361.164C222.914 361.184 221.811 362.319 221.83 363.699L226.83 363.628ZM222.136 352.824C222.032 354.201 223.065 355.401 224.442 355.504C225.818 355.608 227.018 354.575 227.122 353.199L222.136 352.824ZM228.45 342.893C228.7 341.535 227.802 340.231 226.444 339.981C225.086 339.731 223.783 340.628 223.532 341.986L228.45 342.893ZM226.045 331.381C225.665 332.708 226.433 334.092 227.761 334.472C229.088 334.852 230.472 334.083 230.852 332.756L226.045 331.381ZM234.093 322.762C234.557 321.462 233.879 320.032 232.579 319.568C231.278 319.104 229.848 319.781 229.384 321.082L234.093 322.762ZM233.188 311.033C232.68 312.317 233.309 313.77 234.592 314.277C235.876 314.785 237.329 314.156 237.837 312.873L233.188 311.033ZM242.961 306.334C244.105 305.56 244.404 304.005 243.63 302.862C242.856 301.719 241.301 301.419 240.158 302.194L242.961 306.334ZM248.122 296.748C246.986 297.533 246.701 299.09 247.486 300.226C248.27 301.362 249.828 301.646 250.964 300.862L248.122 296.748ZM258.9 295.323C260.029 294.528 260.299 292.969 259.504 291.84C258.709 290.711 257.15 290.44 256.021 291.236L258.9 295.323ZM263.882 285.677C262.753 286.472 262.483 288.032 263.279 289.16C264.074 290.289 265.634 290.559 266.763 289.763L263.882 285.677ZM274.606 284.538C275.804 283.851 276.218 282.324 275.532 281.126C274.846 279.928 273.318 279.513 272.12 280.199L274.606 284.538ZM282.682 277.678C281.303 277.61 280.13 278.673 280.062 280.052C279.994 281.431 281.057 282.604 282.436 282.672L282.682 277.678ZM292.049 283.351C293.428 283.425 294.605 282.367 294.678 280.988C294.752 279.609 293.694 278.432 292.315 278.358L292.049 283.351ZM301.827 278.596C300.446 278.597 299.328 279.717 299.329 281.098C299.33 282.479 300.451 283.597 301.831 283.596L301.827 278.596ZM311.564 283.387C312.944 283.332 314.018 282.169 313.963 280.79C313.908 279.41 312.745 278.336 311.365 278.391L311.564 283.387ZM320.958 277.867C319.581 277.96 318.54 279.153 318.634 280.531C318.728 281.908 319.921 282.949 321.298 282.855L320.958 277.867ZM115.19 392.845C118.515 392.616 122.109 392.329 125.901 391.99L125.455 387.01C121.694 387.347 118.134 387.63 114.847 387.856L115.19 392.845ZM136.609 390.944C140.083 390.577 143.652 390.175 147.273 389.739L146.675 384.775C143.079 385.208 139.534 385.608 136.084 385.972L136.609 390.944ZM157.926 388.378C161.477 387.898 165.036 387.388 168.563 386.852L167.812 381.909C164.314 382.441 160.781 382.946 157.255 383.424L157.926 388.378ZM179.18 385.136C182.806 384.513 186.351 383.862 189.767 383.185L188.795 378.28C185.425 378.948 181.922 379.591 178.333 380.209L179.18 385.136ZM200.314 380.91C204.103 380.015 207.632 379.083 210.806 378.118L209.351 373.334C206.302 374.261 202.879 375.167 199.164 376.044L200.314 380.91ZM221.218 374.175C223.252 373.16 225.024 372.032 226.282 370.752L222.718 367.246C222.017 367.958 220.804 368.793 218.985 369.701L221.218 374.175ZM226.997 368.879C226.91 367.07 226.854 365.323 226.83 363.628L221.83 363.699C221.855 365.455 221.913 367.259 222.003 369.12L226.997 368.879ZM227.122 353.199C227.388 349.654 227.829 346.261 228.45 342.893L223.532 341.986C222.879 345.532 222.415 349.102 222.136 352.824L227.122 353.199ZM230.852 332.756C231.767 329.556 232.845 326.259 234.093 322.762L229.384 321.082C228.108 324.656 226.996 328.056 226.045 331.381L230.852 332.756ZM237.837 312.873C238.468 311.277 239.128 309.636 239.816 307.94L235.184 306.059C234.491 307.765 233.825 309.421 233.188 311.033L237.837 312.873ZM238.892 309.076C240.303 308.13 241.658 307.216 242.961 306.334L240.158 302.194C238.861 303.072 237.512 303.981 236.108 304.923L238.892 309.076ZM250.964 300.862C253.942 298.804 256.569 296.965 258.9 295.323L256.021 291.236C253.699 292.871 251.085 294.701 248.122 296.748L250.964 300.862ZM266.763 289.763C270.297 287.272 272.7 285.63 274.606 284.538L272.12 280.199C269.978 281.427 267.385 283.207 263.882 285.677L266.763 289.763ZM282.436 282.672C283.545 282.727 284.807 282.834 286.401 282.963C287.979 283.09 289.832 283.233 292.049 283.351L292.315 278.358C290.166 278.244 288.367 278.105 286.803 277.979C285.257 277.854 283.89 277.738 282.682 277.678L282.436 282.672ZM301.831 283.596C304.682 283.593 307.903 283.533 311.564 283.387L311.365 278.391C307.766 278.534 304.61 278.593 301.827 278.596L301.831 283.596ZM321.298 282.855C322.868 282.748 324.5 282.627 326.199 282.492L325.801 277.508C324.122 277.642 322.508 277.761 320.958 277.867L321.298 282.855Z" fill="#007AFF"/>
<path d="M261.215 290.426C261.676 291.013 261.792 291.91 261.451 293.143C261.111 294.367 260.34 295.834 259.178 297.452C256.858 300.682 253.042 304.42 248.277 307.882C243.511 311.344 238.731 313.852 234.866 315.115C232.931 315.747 231.254 316.059 229.937 316.037C228.611 316.016 227.747 315.663 227.286 315.076C226.825 314.488 226.709 313.592 227.051 312.359C227.391 311.134 228.161 309.667 229.323 308.049C231.644 304.819 235.46 301.082 240.225 297.619C244.991 294.157 249.771 291.65 253.635 290.386C255.57 289.754 257.248 289.443 258.565 289.464C259.89 289.485 260.755 289.838 261.215 290.426Z" fill="#FDB209" stroke="#FDB209"/>
<path d="M258.769 292.312C259.121 292.762 259.218 293.471 258.925 294.489C258.634 295.497 257.983 296.714 257.001 298.063C255.04 300.757 251.827 303.886 247.822 306.796C243.816 309.707 239.808 311.823 236.579 312.9C234.961 313.439 233.567 313.708 232.48 313.701C231.383 313.694 230.7 313.41 230.347 312.961C229.995 312.511 229.898 311.801 230.191 310.784C230.482 309.776 231.133 308.559 232.115 307.21C234.076 304.516 237.289 301.387 241.294 298.476C245.3 295.566 249.308 293.45 252.537 292.373C254.155 291.834 255.549 291.564 256.636 291.571C257.733 291.578 258.416 291.863 258.769 292.312Z" fill="#DE9A00" stroke="#FDB209"/>
<path d="M266.43 286.549C267.056 287.352 267.183 288.565 266.707 290.19C266.235 291.806 265.192 293.734 263.64 295.852C260.539 300.085 255.478 304.986 249.187 309.535C242.895 314.084 236.596 317.398 231.51 319.084C228.964 319.929 226.75 320.356 225.007 320.342C223.254 320.329 222.08 319.873 221.453 319.07C220.827 318.267 220.7 317.054 221.175 315.429C221.648 313.813 222.691 311.885 224.243 309.766C227.343 305.534 232.404 300.633 238.696 296.084C244.988 291.534 251.287 288.221 256.373 286.535C258.918 285.69 261.132 285.263 262.875 285.277C264.629 285.29 265.803 285.746 266.43 286.549Z" stroke="black"/>
</svg>
