<svg width="874" height="815" viewBox="0 0 874 815" fill="none" xmlns="http://www.w3.org/2000/svg">
<circle cx="438" cy="408" r="378.5" fill="white" stroke="#595959" stroke-width="3"/>
<path d="M743 599.537C728.564 583.376 717.414 571.1 707.565 552.679M495.972 75C554.72 92.7798 584.152 119.014 631.997 187.368C659.454 247.474 668.209 327.615 682.494 479.89C686.71 497.375 690.82 511.603 695.019 523.563M631.997 545.4C655.504 549.678 669.448 543.23 695.019 523.563M695.019 523.563C699.06 535.074 703.184 544.484 707.565 552.679M631.997 589.074C660.716 565.488 677.228 557.122 707.565 552.679" stroke="#595959" stroke-width="4" stroke-linecap="round"/>
<path d="M125.202 337.496C148.338 278.253 136.893 260.859 102 239.231C110.586 217.898 117.941 208.162 133.39 192.828C145.328 183.576 186.01 185.141 313.999 198.742C415.311 195.101 456.011 190.103 517.808 179.18C569.116 191.928 607.948 248.667 587.413 279.265C508.077 271.678 496.537 152.163 216 299.078C215.089 337.19 214.881 366.289 204 365.5C192.931 359.09 189.125 339.838 185.253 315.659C178.052 359.693 170.183 373.718 146.583 372.071C131.351 367.363 125.476 361.307 125.202 337.496Z" fill="white"/>
<path d="M185.253 315.659C178.052 359.693 170.183 373.718 146.583 372.071C131.351 367.363 125.476 361.307 125.202 337.496C148.338 278.253 136.893 260.859 102 239.231C110.586 217.898 117.941 208.162 133.39 192.828C145.328 183.576 186.01 185.141 313.999 198.742C415.311 195.101 456.011 190.103 517.808 179.18C569.116 191.928 607.948 248.667 587.413 279.265C508.077 271.678 496.537 152.163 216 299.078M185.253 315.659C189.125 339.838 192.931 359.09 204 365.5C214.881 366.289 215.089 337.19 216 299.078M185.253 315.659C195.847 309.789 206.091 304.268 216 299.078" stroke="#595959" stroke-width="4" stroke-linecap="round"/>
<path d="M286 285.5L314.636 281.85L297.157 258.876L286 285.5ZM597.194 348.966C597.728 350.24 599.192 350.84 600.466 350.306C601.739 349.773 602.339 348.308 601.806 347.034L597.194 348.966ZM291.586 284.392C292.693 283.567 292.922 282.001 292.097 280.893C291.272 279.786 289.706 279.557 288.599 280.382L291.586 284.392ZM296.931 274.436C295.79 275.215 295.497 276.77 296.276 277.911C297.054 279.051 298.61 279.344 299.75 278.565L296.931 274.436ZM308.21 273.049C309.382 272.32 309.742 270.778 309.013 269.606C308.284 268.433 306.742 268.074 305.57 268.803L308.21 273.049ZM314.43 263.559C313.227 264.236 312.8 265.76 313.476 266.963C314.153 268.167 315.677 268.594 316.881 267.917L314.43 263.559ZM325.747 263.192C326.98 262.57 327.476 261.067 326.854 259.834C326.232 258.601 324.729 258.106 323.496 258.727L325.747 263.192ZM332.767 254.319C331.506 254.883 330.942 256.361 331.505 257.622C332.069 258.882 333.548 259.447 334.808 258.883L332.767 254.319ZM344.107 254.986C345.393 254.482 346.027 253.032 345.524 251.747C345.021 250.461 343.571 249.826 342.285 250.329L344.107 254.986ZM351.967 246.807C350.659 247.248 349.955 248.665 350.395 249.974C350.836 251.283 352.254 251.986 353.562 251.546L351.967 246.807ZM363.161 248.575C364.49 248.199 365.262 246.817 364.886 245.489C364.51 244.16 363.129 243.388 361.8 243.764L363.161 248.575ZM371.765 241.209C370.42 241.519 369.58 242.86 369.89 244.206C370.199 245.551 371.541 246.391 372.887 246.082L371.765 241.209ZM382.726 244.074C384.085 243.831 384.991 242.533 384.749 241.174C384.506 239.815 383.208 238.909 381.849 239.151L382.726 244.074ZM392.044 237.596C390.674 237.77 389.705 239.022 389.879 240.391C390.053 241.761 391.304 242.731 392.674 242.557L392.044 237.596ZM402.678 241.54C404.054 241.435 405.085 240.234 404.98 238.857C404.875 237.48 403.673 236.449 402.297 236.555L402.678 241.54ZM412.584 236.027C411.204 236.063 410.114 237.211 410.151 238.592C410.187 239.972 411.336 241.061 412.716 241.025L412.584 236.027ZM422.765 241.01C424.146 241.042 425.291 239.949 425.323 238.569C425.355 237.189 424.262 236.043 422.882 236.011L422.765 241.01ZM433.165 236.505C431.788 236.405 430.591 237.44 430.491 238.817C430.39 240.194 431.426 241.392 432.803 241.492L433.165 236.505ZM442.804 242.466C444.175 242.634 445.422 241.659 445.589 240.288C445.756 238.917 444.781 237.671 443.411 237.503L442.804 242.466ZM453.596 238.999C452.236 238.766 450.943 239.679 450.709 241.04C450.476 242.401 451.389 243.694 452.75 243.927L453.596 238.999ZM462.622 245.869C463.97 246.168 465.305 245.317 465.604 243.969C465.903 242.621 465.052 241.286 463.704 240.987L462.622 245.869ZM473.703 243.457C472.371 243.094 470.996 243.88 470.633 245.212C470.27 246.544 471.056 247.918 472.388 248.281L473.703 243.457ZM482.029 251.156C483.342 251.582 484.752 250.862 485.178 249.549C485.604 248.235 484.884 246.825 483.571 246.4L482.029 251.156ZM493.287 249.806C491.995 249.318 490.553 249.97 490.065 251.262C489.578 252.554 490.23 253.996 491.522 254.484L493.287 249.806ZM500.847 258.256C502.114 258.803 503.586 258.22 504.134 256.953C504.681 255.685 504.098 254.214 502.831 253.666L500.847 258.256ZM512.181 257.973C510.941 257.365 509.444 257.879 508.837 259.119C508.23 260.359 508.743 261.856 509.983 262.463L512.181 257.973ZM518.909 267.098C520.119 267.764 521.639 267.322 522.304 266.112C522.969 264.902 522.528 263.382 521.318 262.717L518.909 267.098ZM530.218 267.893C529.042 267.17 527.502 267.538 526.78 268.715C526.057 269.891 526.425 271.431 527.602 272.153L530.218 267.893ZM536.039 277.621C537.179 278.4 538.734 278.107 539.513 276.967C540.292 275.827 540 274.272 538.86 273.493L536.039 277.621ZM547.217 279.513C546.117 278.678 544.549 278.893 543.715 279.993C542.88 281.093 543.095 282.661 544.195 283.496L547.217 279.513ZM552.042 289.771C553.098 290.661 554.675 290.526 555.565 289.471C556.455 288.415 556.32 286.838 555.264 285.948L552.042 289.771ZM562.97 292.795C561.962 291.851 560.38 291.902 559.436 292.909C558.492 293.917 558.543 295.499 559.55 296.443L562.97 292.795ZM566.686 303.506C567.64 304.504 569.222 304.54 570.22 303.585C571.218 302.631 571.254 301.049 570.3 300.051L566.686 303.506ZM577.216 307.713C576.321 306.661 574.743 306.535 573.692 307.43C572.641 308.325 572.514 309.902 573.409 310.954L577.216 307.713ZM579.675 318.781C580.504 319.885 582.072 320.107 583.176 319.278C584.279 318.448 584.502 316.881 583.672 315.777L579.675 318.781ZM589.616 324.238C588.86 323.083 587.31 322.76 586.155 323.516C585 324.273 584.677 325.822 585.433 326.977L589.616 324.238ZM590.625 335.53C591.299 336.735 592.823 337.164 594.027 336.49C595.232 335.815 595.662 334.292 594.987 333.087L590.625 335.53ZM599.715 342.309C599.132 341.057 597.644 340.515 596.393 341.098C595.141 341.681 594.6 343.169 595.183 344.42L599.715 342.309ZM299.75 278.565C302.561 276.646 305.381 274.808 308.21 273.049L305.57 268.803C302.68 270.6 299.8 272.477 296.931 274.436L299.75 278.565ZM316.881 267.917C319.83 266.259 322.786 264.685 325.747 263.192L323.496 258.727C320.467 260.254 317.445 261.864 314.43 263.559L316.881 267.917ZM334.808 258.883C337.904 257.498 341.005 256.2 344.107 254.986L342.285 250.329C339.108 251.572 335.935 252.902 332.767 254.319L334.808 258.883ZM353.562 251.546C356.762 250.469 359.962 249.48 363.161 248.575L361.8 243.764C358.523 244.69 355.245 245.704 351.967 246.807L353.562 251.546ZM372.887 246.082C376.171 245.326 379.452 244.657 382.726 244.074L381.849 239.151C378.493 239.749 375.131 240.434 371.765 241.209L372.887 246.082ZM392.674 242.557C396.018 242.132 399.353 241.794 402.678 241.54L402.297 236.555C398.89 236.815 395.471 237.161 392.044 237.596L392.674 242.557ZM412.716 241.025C416.081 240.936 419.431 240.932 422.765 241.01L422.882 236.011C419.466 235.932 416.032 235.936 412.584 236.027L412.716 241.025ZM432.803 241.492C436.158 241.736 439.492 242.062 442.804 242.466L443.411 237.503C440.018 237.089 436.602 236.755 433.165 236.505L432.803 241.492ZM452.75 243.927C456.068 244.497 459.36 245.145 462.622 245.869L463.704 240.987C460.365 240.247 456.994 239.583 453.596 238.999L452.75 243.927ZM472.388 248.281C475.636 249.166 478.851 250.126 482.029 251.156L483.571 246.4C480.318 245.345 477.028 244.363 473.703 243.457L472.388 248.281ZM491.522 254.484C494.672 255.672 497.782 256.931 500.847 258.256L502.831 253.666C499.694 252.31 496.511 251.022 493.287 249.806L491.522 254.484ZM509.983 262.463C513.009 263.944 515.985 265.491 518.909 267.098L521.318 262.717C518.325 261.071 515.278 259.489 512.181 257.973L509.983 262.463ZM527.602 272.153C530.474 273.917 533.288 275.741 536.039 277.621L538.86 273.493C536.041 271.567 533.16 269.699 530.218 267.893L527.602 272.153ZM544.195 283.496C546.881 285.534 549.498 287.628 552.042 289.771L555.264 285.948C552.654 283.749 549.971 281.602 547.217 279.513L544.195 283.496ZM559.55 296.443C562.012 298.75 564.392 301.106 566.686 303.506L570.3 300.051C567.942 297.584 565.497 295.164 562.97 292.795L559.55 296.443ZM573.409 310.954C575.596 313.523 577.686 316.133 579.675 318.781L583.672 315.777C581.621 313.047 579.467 310.357 577.216 307.713L573.409 310.954ZM585.433 326.977C587.279 329.796 589.011 332.649 590.625 335.53L594.987 333.087C593.316 330.103 591.524 327.152 589.616 324.238L585.433 326.977ZM595.183 344.42C595.886 345.93 596.557 347.446 597.194 348.966L601.806 347.034C601.143 345.452 600.446 343.877 599.715 342.309L595.183 344.42Z" fill="#007AFF"/>
<path d="M340.944 410.752C352.858 430.197 346.686 465.756 337 479.577C372.592 514.944 406.815 513.618 455.721 514.077C488.978 513.504 533.553 505.595 610 471.077C606.457 411.748 601.272 358.7 558.743 311.104C531.838 280.994 448.035 235.954 386 252.577C337.708 265.517 276.789 293.277 266 350.577C272.359 371.987 299.96 390.976 340.944 410.752Z" fill="white"/>
<path d="M340.944 410.752C352.858 430.197 346.686 465.756 337 479.577C372.592 514.944 406.815 513.618 455.721 514.077C488.978 513.504 533.553 505.595 610 471.077C606.457 411.748 601.272 358.7 558.743 311.104C531.838 280.994 448.035 235.954 386 252.577C337.708 265.517 276.789 293.277 266 350.577C272.359 371.987 299.96 390.976 340.944 410.752ZM340.944 410.752L359.308 417.498" stroke="#FDB209" stroke-width="4" stroke-linecap="round"/>
<path d="M192.029 483.048C151.375 432.786 144.656 413.985 161.858 397.993C189.435 389.625 205.045 392.476 233.908 449.026C223.777 416.838 221.646 403.43 224.451 388.372C232.257 381.382 251.62 383.282 278.702 444.955C286.76 445.58 295.661 446.92 306.407 449.026C347.821 478.872 367.943 498.858 426.64 510.528C462.017 513.751 486.538 512.063 577.944 473.452C616.527 463.197 624.671 473.145 627.929 503.985C627.694 591.207 629.922 639.043 659 712.917L616.221 742.577C531.682 660.909 485.628 627.511 409.979 627.861C303.3 642.956 248.727 648.818 224.451 623.063C203.572 616.72 200.239 563.909 192.029 483.048Z" fill="white"/>
<path d="M233.908 449.026C205.045 392.476 189.435 389.625 161.858 397.993C144.656 413.985 151.375 432.786 192.029 483.048C200.239 563.909 203.572 616.72 224.451 623.063C248.727 648.818 303.3 642.956 409.979 627.861C485.628 627.511 531.682 660.909 616.221 742.577L659 712.917C629.922 639.043 627.694 591.207 627.929 503.985C624.671 473.145 616.527 463.197 577.944 473.452C486.538 512.063 462.017 513.751 426.64 510.528C367.943 498.858 347.821 478.872 306.407 449.026C295.661 446.92 286.76 445.58 278.702 444.955M233.908 449.026C223.777 416.838 221.646 403.43 224.451 388.372C232.257 381.382 251.62 383.282 278.702 444.955M233.908 449.026C250.559 445.221 263.037 443.738 278.702 444.955" stroke="#595959" stroke-width="4" stroke-linecap="round"/>
<path d="M412.315 237.927C412.429 238.687 412.132 239.536 411.359 240.446C410.587 241.355 409.38 242.274 407.805 243.141C404.659 244.872 400.139 246.342 394.994 247.12C389.849 247.898 385.097 247.83 381.579 247.106C379.818 246.744 378.394 246.223 377.388 245.583C376.38 244.942 375.845 244.219 375.73 243.459C375.615 242.699 375.913 241.85 376.686 240.94C377.458 240.031 378.664 239.112 380.239 238.246C383.386 236.514 387.906 235.044 393.051 234.266C398.196 233.488 402.948 233.556 406.466 234.28C408.227 234.643 409.651 235.164 410.657 235.804C411.664 236.445 412.2 237.167 412.315 237.927Z" fill="#FDB209" stroke="#FDB209"/>
<path d="M409.622 238.423C409.711 239.01 409.477 239.685 408.833 240.429C408.19 241.17 407.181 241.926 405.859 242.642C403.217 244.073 399.42 245.294 395.097 245.948C390.773 246.602 386.785 246.557 383.839 245.971C382.363 245.678 381.177 245.254 380.343 244.736C379.508 244.217 379.084 243.641 378.996 243.053C378.907 242.466 379.141 241.791 379.785 241.048C380.428 240.306 381.437 239.551 382.759 238.834C385.401 237.404 389.198 236.182 393.521 235.528C397.845 234.874 401.833 234.919 404.779 235.505C406.255 235.798 407.441 236.222 408.275 236.74C409.11 237.26 409.534 237.835 409.622 238.423Z" fill="#DE9A00" stroke="#FDB209"/>
<path d="M417.991 236.996C418.144 238.025 417.722 239.157 416.681 240.349C415.642 241.538 414.03 242.732 411.942 243.855C407.769 246.097 401.794 247.998 395.007 249.007C388.22 250.015 381.95 249.934 377.305 249.002C374.981 248.535 373.092 247.861 371.752 247.025C370.409 246.188 369.676 245.228 369.523 244.199C369.37 243.17 369.793 242.038 370.833 240.846C371.873 239.657 373.484 238.463 375.573 237.34C379.745 235.098 385.721 233.197 392.508 232.188C399.294 231.18 405.565 231.261 410.209 232.193C412.533 232.66 414.423 233.334 415.763 234.17C417.105 235.007 417.838 235.967 417.991 236.996Z" stroke="black"/>
</svg>
