<svg width="874" height="815" viewBox="0 0 874 815" fill="none" xmlns="http://www.w3.org/2000/svg">
<circle cx="437" cy="408" r="378.5" fill="#EBEBEB" stroke="#595959" stroke-width="3"/>
<path d="M742 599.537C727.564 583.376 716.414 571.1 706.565 552.679M494.972 75C553.72 92.7798 583.152 119.014 630.997 187.368C658.454 247.474 667.209 327.615 681.494 479.89C685.71 497.375 689.82 511.603 694.019 523.563M630.997 545.4C654.504 549.678 668.448 543.23 694.019 523.563M694.019 523.563C698.06 535.074 702.184 544.484 706.565 552.679M630.997 589.074C659.716 565.488 676.228 557.122 706.565 552.679" stroke="#595959" stroke-width="4" stroke-linecap="round"/>
<path d="M321.5 427C334.191 445.09 345.283 458.169 334.965 471.028C372.878 503.93 397.961 513.573 450.057 514C485.482 513.466 525.567 499.278 607 467.165C603.226 411.969 578.302 391.78 533 347.5C504.341 319.487 435.77 286.164 369.689 301.629C318.247 313.668 227.493 315.691 216 369C222.774 388.918 268.452 368.497 321.5 427Z" fill="white" stroke="#FDB209" stroke-width="4" stroke-linecap="round"/>
<path d="M132.201 325.042C155.336 263.656 143.892 245.633 109 223.223C117.586 201.119 124.94 191.031 140.39 175.142C152.327 165.555 193.008 167.177 320.994 181.27C422.303 177.497 463.003 172.319 524.798 161C576.104 174.21 614.936 233.001 594.401 264.705C515.067 256.844 503.527 133.006 222.997 285.235C222.086 324.725 221.878 354.876 210.998 354.059C199.929 347.417 196.123 327.469 192.251 302.416C185.051 348.042 177.181 362.574 153.582 360.868C138.351 355.989 132.475 349.714 132.201 325.042Z" fill="white"/>
<path d="M192.251 302.416C185.051 348.042 177.181 362.574 153.582 360.868C138.351 355.989 132.475 349.714 132.201 325.042C155.336 263.656 143.892 245.633 109 223.223C117.586 201.119 124.94 191.031 140.39 175.142C152.327 165.555 193.008 167.177 320.994 181.27C422.303 177.497 463.003 172.319 524.798 161C576.104 174.21 614.936 233.001 594.401 264.705C515.067 256.844 503.527 133.006 222.997 285.235M192.251 302.416C196.123 327.469 199.929 347.417 210.998 354.059C221.878 354.876 222.086 324.725 222.997 285.235M192.251 302.416C202.845 296.333 213.089 290.612 222.997 285.235" stroke="#595959" stroke-width="4" stroke-linecap="round"/>
<path d="M188.414 480.017C147.359 429.474 140.574 410.567 157.945 394.485C185.795 386.071 201.56 388.938 230.707 445.804C220.476 413.436 218.324 399.953 221.157 384.81C229.04 377.781 248.594 379.692 275.944 441.71C284.081 442.339 293.071 443.687 303.923 445.804C345.746 475.818 366.067 495.916 425.344 507.651C461.071 510.892 485.834 509.194 578.143 470.367C617.107 460.054 625.332 470.058 628.622 501.071C628.385 588.782 630.635 636.886 660 711.173L616.798 741C531.424 658.874 484.915 625.289 408.518 625.641C300.785 640.821 245.673 646.716 221.157 620.816C200.072 614.438 196.706 561.331 188.414 480.017Z" fill="white"/>
<path d="M230.707 445.804C201.56 388.938 185.795 386.071 157.945 394.485C140.574 410.567 147.359 429.474 188.414 480.017C196.706 561.331 200.072 614.438 221.157 620.816C245.673 646.716 300.785 640.821 408.518 625.641C484.915 625.289 531.424 658.874 616.798 741L660 711.173C630.635 636.886 628.385 588.782 628.622 501.071C625.332 470.058 617.107 460.054 578.143 470.367C485.834 509.194 461.071 510.892 425.344 507.651C366.067 495.916 345.746 475.818 303.923 445.804C293.071 443.687 284.081 442.339 275.944 441.71M230.707 445.804C220.476 413.436 218.324 399.953 221.157 384.81C229.04 377.781 248.594 379.692 275.944 441.71M230.707 445.804C247.523 441.978 260.124 440.487 275.944 441.71" stroke="#595959" stroke-width="4" stroke-linecap="round"/>
</svg>
