<svg width="1104" height="873" viewBox="0 0 1104 873" fill="none" xmlns="http://www.w3.org/2000/svg">
<path d="M988 292C988 352.199 776.407 442 545 442C313.593 442 120 352.199 120 292C120 231.801 313.593 224 545 224C776.407 224 988 231.801 988 292Z" fill="#713937"/>
<path d="M228.5 374C239.733 369.753 253.707 365.636 268 368C279.215 378.813 292.926 378.538 285.67 400.05C289.582 391.305 300.644 383.394 312.134 383.936C359.809 384.028 356.767 388.024 367.319 393.036C386.862 380.017 445.041 386.208 448.762 392.43C487.5 383.936 536.831 388.964 539.831 394.5C542.831 400.036 541 430.5 539.831 473.5C542 428.5 540.283 397.454 550.5 390.359C563.59 378.541 598.5 393.036 636.5 393.036C639.917 394.195 641.348 402.649 642.026 417.351C642.135 402.028 643.906 392.2 651.5 390.359C665.081 387.068 715.998 391.487 714.5 394.5C719.711 396.491 720.005 412.228 721.682 441.062C719.411 402 721.301 391.965 730 390.359C738.699 388.753 759.44 382.9 782 385.5C788.91 384.777 793.61 400.243 797.995 412.933C791.152 393.129 795.235 378.589 804 376C836.144 365.35 848.506 366.912 868 374L797.995 412.933L721.682 441.062L642.823 462.619L583.275 476L539.831 473.5L448.355 456.731L367.319 432.644L284.723 402.67C262.733 390.517 242.895 382.043 228.5 374Z" fill="#D9D9D9"/>
<path d="M284.723 402.67C294 378.5 279.653 379.234 268 368C253.707 365.636 239.733 369.753 228.5 374C242.895 382.043 262.733 390.517 284.723 402.67ZM284.723 402.67L367.319 432.644M284.723 402.67C287.392 392.957 299.504 383.34 312.134 383.936C359.809 384.028 356.767 388.024 367.319 393.036M367.319 432.644C366.401 418.226 368.784 407.512 367.319 393.036M367.319 432.644L448.355 456.731M367.319 393.036C386.862 380.017 445.041 386.208 448.762 392.43M448.355 456.731C447.6 432.777 447.294 417.249 448.762 392.43M448.355 456.731L539.831 473.5M448.762 392.43C487.5 383.936 536.831 388.964 539.831 394.5C542.831 400.036 541 430.5 539.831 473.5M539.831 473.5C542 428.5 540.283 397.454 550.5 390.359C563.59 378.541 598.5 393.036 636.5 393.036C642.58 395.099 642.372 420.256 642.823 462.619M539.831 473.5L583.275 476L642.823 462.619M642.823 462.619L721.682 441.062M642.823 462.619C642.964 422.491 637.919 393.651 651.5 390.359C665.081 387.068 715.998 391.487 714.5 394.5C719.711 396.491 720.005 412.228 721.682 441.062M721.682 441.062L797.995 412.933M721.682 441.062C719.411 402 721.301 391.965 730 390.359C738.699 388.753 759.44 382.9 782 385.5C788.91 384.777 793.61 400.243 797.995 412.933M797.995 412.933L868 374C848.506 366.912 836.144 365.35 804 376C795.235 378.589 791.152 393.129 797.995 412.933Z" stroke="black"/>
<path d="M198 341.272C192.065 336.656 184.078 315.327 173 280.272L243 270.272L320.5 262.272L415.5 250.272L516.5 241.272L536 252.772L554.5 258.772H571L595 252.772L622.5 241.272L704 252.772L788.5 262.272L865.5 271.272L937.5 279.772C936.305 295.828 934.245 311.709 925 335.772C921.398 341.978 915.571 345.788 903 352.772C882.768 355.899 872.193 356.38 856 352.772C850.405 359.9 847.122 363.796 836 367.272C822.748 371.185 811.001 371.774 783 370.272C776.5 380.772 776.5 380.772 766 385.272C755.5 389.772 726.175 385.739 699 377.272C668.5 396.772 585 398.772 554.5 377.272C516 395.272 438 403.772 415.5 377.272C388.852 387.621 373.528 396.399 349 390.272C339.971 389.426 335.951 386.841 329.5 380.772C314.991 385.578 305.852 387.129 278.5 377.272C269.227 366.741 263.391 361.63 258 346.272C258 346.272 215.337 350.153 198 341.272Z" fill="#D9D9D9"/>
<path d="M258 346.272C258 346.272 215.337 350.153 198 341.272C192.065 336.656 184.078 315.327 173 280.272L243 270.272M258 346.272C251.726 319.88 246.773 305.323 243 270.272M258 346.272C263.391 361.63 269.227 366.741 278.5 377.272C305.852 387.129 314.991 385.578 329.5 380.772M243 270.272L320.5 262.272M329.5 380.772L320.5 262.272M329.5 380.772C335.951 386.841 339.971 389.426 349 390.272C373.528 396.399 388.852 387.621 415.5 377.272M320.5 262.272L415.5 250.272M415.5 377.272V250.272M415.5 377.272C438 403.772 516 395.272 554.5 377.272M415.5 250.272L516.5 241.272L536 252.772L554.5 258.772M554.5 377.272V258.772M554.5 377.272C585 398.772 668.5 396.772 699 377.272M554.5 258.772H571L595 252.772L622.5 241.272L704 252.772M699 377.272L704 252.772M699 377.272C726.175 385.739 755.5 389.772 766 385.272C776.5 380.772 776.5 380.772 783 370.272M704 252.772L788.5 262.272M783 370.272L788.5 262.272M783 370.272C811.001 371.774 822.748 371.185 836 367.272C847.122 363.796 850.405 359.9 856 352.772M788.5 262.272L865.5 271.272M856 352.772L865.5 271.272M856 352.772C872.193 356.38 882.768 355.899 903 352.772C915.571 345.788 921.398 341.978 925 335.772C934.245 311.709 936.305 295.828 937.5 279.772L865.5 271.272" stroke="black"/>
<g filter="url(#filter0_d_26_322)">
<path d="M558 137.272C391.767 26.8262 218.213 173.825 106 288.272L516 242.272C533.479 254.14 535.097 256.655 558 260.772C579.394 257.461 602.191 253.297 623 242.877L998 288.272C780.634 77.2868 684.022 61.9579 558 137.272Z" fill="#D77C86"/>
<path d="M998 288.272C834.703 409.478 733.24 446.518 558 474.772C379.994 448.603 285.985 423.039 106 288.272C174 436.272 257.91 565.864 534 602C810.09 638.136 1013.65 310.498 998 288.272Z" fill="#D77C86"/>
<path d="M106 288.272C218.213 173.825 391.767 26.8262 558 137.272C684.022 61.9579 780.634 77.2868 998 288.272M106 288.272C174 436.272 257.91 565.864 534 602C810.09 638.136 1013.65 310.498 998 288.272M106 288.272L516 242.272C533.479 254.14 535.097 256.655 558 260.772C579.394 257.461 602.191 253.297 623 242.877L998 288.272M106 288.272C285.985 423.039 379.994 448.603 558 474.772C733.24 446.518 834.703 409.478 998 288.272" stroke="#1E1E1E" stroke-width="2"/>
</g>
<path d="M386.203 144.924C389.676 154.753 363.003 152.354 336.113 161.855C309.223 171.356 292.298 189.159 288.825 179.33C285.352 169.501 304.335 153.831 331.226 144.33C358.116 134.829 382.73 135.095 386.203 144.924Z" fill="#ED97A0"/>
<path d="M278.523 183.938C283.133 186.113 280.782 189.942 278.894 193.942C278.82 194.1 276.081 198.793 271.472 196.618C266.862 194.443 264.872 191.243 266.76 187.243C268.647 183.243 273.914 181.763 278.523 183.938Z" fill="#ED979E"/>
<path d="M556.199 435L554 604.986" stroke="black" stroke-width="10" stroke-linecap="round"/>
<path d="M481 575.59L526.68 435" stroke="black" stroke-width="10" stroke-linecap="round"/>
<path d="M583 435L628.68 575.59" stroke="black" stroke-width="10" stroke-linecap="round"/>
<defs>
<filter id="filter0_d_26_322" x="100.804" y="94.9995" width="903.042" height="518.782" filterUnits="userSpaceOnUse" color-interpolation-filters="sRGB">
<feFlood flood-opacity="0" result="BackgroundImageFix"/>
<feColorMatrix in="SourceAlpha" type="matrix" values="0 0 0 0 0 0 0 0 0 0 0 0 0 0 0 0 0 0 127 0" result="hardAlpha"/>
<feOffset dy="4"/>
<feGaussianBlur stdDeviation="2"/>
<feComposite in2="hardAlpha" operator="out"/>
<feColorMatrix type="matrix" values="0 0 0 0 0 0 0 0 0 0 0 0 0 0 0 0 0 0 0.25 0"/>
<feBlend mode="normal" in2="BackgroundImageFix" result="effect1_dropShadow_26_322"/>
<feBlend mode="normal" in="SourceGraphic" in2="effect1_dropShadow_26_322" result="shape"/>
</filter>
</defs>
</svg>
