<svg width="874" height="815" viewBox="0 0 874 815" fill="none" xmlns="http://www.w3.org/2000/svg">
<circle cx="437" cy="408" r="378.5" fill="#EBEBEB" stroke="#595959" stroke-width="3"/>
<path d="M742 599.537C727.564 583.376 716.414 571.1 706.565 552.679M494.972 75C553.72 92.7798 583.152 119.014 630.997 187.368C658.454 247.474 667.209 327.615 681.494 479.89C685.71 497.375 689.82 511.603 694.019 523.563M630.997 545.4C654.504 549.678 668.448 543.23 694.019 523.563M694.019 523.563C698.06 535.074 702.184 544.484 706.565 552.679M630.997 589.074C659.716 565.488 676.228 557.122 706.565 552.679" stroke="#595959" stroke-width="4" stroke-linecap="round"/>
<path d="M321.5 427C334.191 445.09 345.283 458.169 334.965 471.028C372.878 503.93 397.961 513.573 450.057 514C485.482 513.466 525.567 499.278 607 467.165C603.226 411.969 578.302 391.78 533 347.5C504.341 319.487 435.77 286.164 369.689 301.629C318.247 313.668 227.493 315.691 216 369C222.774 388.918 268.452 368.497 321.5 427Z" fill="white" stroke="#FDB209" stroke-width="4" stroke-linecap="round"/>
<path d="M132.201 325.042C155.336 263.656 143.892 245.633 109 223.223C117.586 201.119 124.94 191.031 140.39 175.142C152.327 165.555 193.008 167.177 320.994 181.27C422.303 177.497 463.003 172.319 524.798 161C576.104 174.21 614.936 233.001 594.401 264.705C515.067 256.844 503.527 133.006 222.997 285.235C222.086 324.725 221.878 354.876 210.998 354.059C199.929 347.417 196.123 327.469 192.251 302.416C185.051 348.042 177.181 362.574 153.582 360.868C138.351 355.989 132.475 349.714 132.201 325.042Z" fill="white"/>
<path d="M192.251 302.416C185.051 348.042 177.181 362.574 153.582 360.868C138.351 355.989 132.475 349.714 132.201 325.042C155.336 263.656 143.892 245.633 109 223.223C117.586 201.119 124.94 191.031 140.39 175.142C152.327 165.555 193.008 167.177 320.994 181.27C422.303 177.497 463.003 172.319 524.798 161C576.104 174.21 614.936 233.001 594.401 264.705C515.067 256.844 503.527 133.006 222.997 285.235M192.251 302.416C196.123 327.469 199.929 347.417 210.998 354.059C221.878 354.876 222.086 324.725 222.997 285.235M192.251 302.416C202.845 296.333 213.089 290.612 222.997 285.235" stroke="#595959" stroke-width="4" stroke-linecap="round"/>
<path d="M188.414 480.017C147.359 429.474 140.574 410.567 157.945 394.485C185.795 386.071 201.56 388.938 230.707 445.804C220.476 413.436 218.324 399.953 221.157 384.81C229.04 377.781 248.594 379.692 275.944 441.71C284.081 442.339 293.071 443.687 303.923 445.804C345.746 475.818 366.067 495.916 425.344 507.651C461.071 510.892 485.834 509.194 578.143 470.367C617.107 460.054 625.332 470.058 628.622 501.071C628.385 588.782 630.635 636.886 660 711.173L616.798 741C531.424 658.874 484.915 625.289 408.518 625.641C300.785 640.821 245.673 646.716 221.157 620.816C200.072 614.438 196.706 561.331 188.414 480.017Z" fill="white"/>
<path d="M230.707 445.804C201.56 388.938 185.795 386.071 157.945 394.485C140.574 410.567 147.359 429.474 188.414 480.017C196.706 561.331 200.072 614.438 221.157 620.816C245.673 646.716 300.785 640.821 408.518 625.641C484.915 625.289 531.424 658.874 616.798 741L660 711.173C630.635 636.886 628.385 588.782 628.622 501.071C625.332 470.058 617.107 460.054 578.143 470.367C485.834 509.194 461.071 510.892 425.344 507.651C366.067 495.916 345.746 475.818 303.923 445.804C293.071 443.687 284.081 442.339 275.944 441.71M230.707 445.804C220.476 413.436 218.324 399.953 221.157 384.81C229.04 377.781 248.594 379.692 275.944 441.71M230.707 445.804C247.523 441.978 260.124 440.487 275.944 441.71" stroke="#595959" stroke-width="4" stroke-linecap="round"/>
<path d="M230.5 328.5L258.442 321.248L238.191 300.676L230.5 328.5ZM243.523 319.942C246.111 317.8 248.801 315.712 251.586 313.681L248.639 309.642C245.776 311.73 243.005 313.88 240.336 316.09L243.523 319.942ZM259.996 307.902C262.828 306.067 265.739 304.287 268.722 302.563L266.22 298.234C263.166 299.999 260.183 301.824 257.278 303.705L259.996 307.902ZM277.699 297.655C280.708 296.099 283.778 294.597 286.904 293.151L284.804 288.613C281.614 290.089 278.478 291.623 275.403 293.213L277.699 297.655ZM296.289 289.043C299.43 287.744 302.618 286.499 305.846 285.31L304.118 280.618C300.829 281.829 297.581 283.098 294.378 284.423L296.289 289.043ZM315.532 281.95C318.772 280.894 322.045 279.893 325.347 278.949L323.972 274.141C320.612 275.102 317.281 276.121 313.983 277.196L315.532 281.95ZM335.263 276.304C338.577 275.484 341.914 274.72 345.268 274.014L344.238 269.121C340.827 269.839 337.433 270.616 334.061 271.451L335.263 276.304ZM355.349 272.077C358.719 271.491 362.102 270.964 365.491 270.498L364.809 265.544C361.361 266.019 357.921 266.555 354.492 267.151L355.349 272.077ZM375.681 269.279C379.09 268.934 382.5 268.65 385.907 268.43L385.585 263.441C382.116 263.665 378.645 263.953 375.177 264.305L375.681 269.279ZM396.156 267.961C399.583 267.869 403.002 267.843 406.406 267.884L406.467 262.885C402.997 262.843 399.513 262.869 396.021 262.963L396.156 267.961ZM416.656 268.216C420.083 268.398 423.49 268.651 426.87 268.976L427.349 263.999C423.895 263.667 420.417 263.409 416.92 263.223L416.656 268.216ZM437.038 270.186C438.73 270.427 440.414 270.687 442.089 270.966L442.911 266.034C441.197 265.748 439.474 265.482 437.743 265.236L437.038 270.186Z" fill="#007AFF"/>
<path d="M146 380L146.043 382.5L146.533 382.443L146 380ZM79 387L106.09 396.974L101.183 368.527L79 387ZM96.0326 386.617C99.8523 385.987 103.436 385.435 107.07 384.956L106.416 379.999C102.711 380.488 99.0708 381.049 95.2187 381.684L96.0326 386.617ZM118.129 383.753C121.536 383.461 125.186 383.217 129.253 383.019L129.01 378.025C124.888 378.226 121.177 378.474 117.702 378.771L118.129 383.753ZM140.438 382.617C142.228 382.572 144.093 382.533 146.043 382.5L145.957 377.5C143.996 377.534 142.117 377.573 140.312 377.619L140.438 382.617ZM146.533 382.443C148.828 381.942 150.385 381.602 151.548 381.347L150.478 376.463C149.317 376.718 147.763 377.057 145.467 377.557L146.533 382.443ZM161.542 379.087C163.867 378.558 167.044 377.838 171.548 376.82L170.446 371.943C165.94 372.961 162.76 373.682 160.433 374.212L161.542 379.087ZM181.513 374.573C183.089 374.218 184.765 373.84 186.549 373.439L185.451 368.561C183.667 368.962 181.99 369.34 180.415 369.695L181.513 374.573Z" fill="#007AFF"/>
</svg>
