<svg width="874" height="815" viewBox="0 0 874 815" fill="none" xmlns="http://www.w3.org/2000/svg">
<circle cx="438" cy="408" r="378.5" fill="white" stroke="#595959" stroke-width="3"/>
<path d="M695.019 523.563C669.448 543.23 651.507 549.278 628 545L630 589.5C658.719 565.914 677.228 557.122 707.566 552.679C703.184 544.484 699.06 535.074 695.019 523.563Z" fill="#007AFF"/>
<path d="M743 599.537C728.564 583.376 717.414 571.1 707.566 552.679M495.972 75C554.72 92.7799 584.152 119.014 631.997 187.368C659.454 247.474 668.209 327.615 682.494 479.89C686.71 497.375 690.82 511.603 695.019 523.563M695.019 523.563C669.448 543.23 651.507 549.278 628 545L630 589.5C658.719 565.914 677.228 557.122 707.566 552.679M695.019 523.563C699.06 535.074 703.184 544.484 707.566 552.679" stroke="#595959" stroke-width="4" stroke-linecap="round"/>
<path d="M125.202 337.496C148.338 278.253 136.893 260.859 102 239.231C110.586 217.898 117.941 208.162 133.39 192.828C145.328 183.576 186.01 185.141 313.999 198.742C415.311 195.101 456.011 190.103 517.808 179.18C569.116 191.928 607.948 248.667 587.413 279.265C508.077 271.678 496.537 152.163 216 299.078C215.089 337.19 214.881 366.289 204 365.5C192.931 359.09 189.125 339.838 185.253 315.659C178.052 359.693 170.183 373.718 146.583 372.071C131.351 367.363 125.476 361.307 125.202 337.496Z" fill="white"/>
<path d="M185.253 315.659C178.052 359.693 170.183 373.718 146.583 372.071C131.351 367.363 125.476 361.307 125.202 337.496C148.338 278.253 136.893 260.859 102 239.231C110.586 217.898 117.941 208.162 133.39 192.828C145.328 183.576 186.01 185.141 313.999 198.742C415.311 195.101 456.011 190.103 517.808 179.18C569.116 191.928 607.948 248.667 587.413 279.265C508.077 271.678 496.537 152.163 216 299.078M185.253 315.659C189.125 339.838 192.931 359.09 204 365.5C214.881 366.289 215.089 337.19 216 299.078M185.253 315.659C195.847 309.789 206.091 304.268 216 299.078" stroke="#595959" stroke-width="4" stroke-linecap="round"/>
<path d="M336.431 431.867C348.278 451.065 346.062 473.833 336.431 487.479C371.823 522.399 405.855 521.09 454.489 521.543C487.559 520.977 524.98 512.676 601 478.593C597.477 420.014 596.5 349.911 558.5 333.477C520.5 317.044 414.5 289.61 365.5 326.043C319.354 360.355 255.729 269.467 245 326.043C251.323 347.183 295.675 412.341 336.431 431.867Z" fill="white"/>
<path d="M336.431 431.867C348.278 451.065 346.062 473.833 336.431 487.479C371.823 522.399 405.855 521.09 454.489 521.543C487.559 520.977 524.98 512.676 601 478.593C597.477 420.014 596.5 349.911 558.5 333.477C520.5 317.044 414.5 289.61 365.5 326.043C319.354 360.355 255.729 269.467 245 326.043C251.323 347.183 295.675 412.341 336.431 431.867ZM336.431 431.867L354.691 438.528" stroke="#FDB209" stroke-width="4" stroke-linecap="round"/>
<path d="M192.029 483.049C151.375 432.787 144.656 413.986 161.858 397.994C189.435 389.626 205.045 392.477 233.908 449.027C223.777 416.839 221.646 403.431 224.451 388.373C232.257 381.383 251.62 383.283 278.702 444.956C286.76 445.581 295.661 446.921 306.407 449.027C347.821 478.873 367.943 498.859 426.64 510.529C462.017 513.752 486.538 512.064 577.944 473.453C616.527 463.198 624.671 473.146 627.929 503.986C627.694 591.208 629.922 639.044 659 712.918L616.221 742.578C531.682 660.91 485.628 627.512 409.979 627.862C303.3 642.957 248.727 648.819 224.451 623.064C203.572 616.721 200.239 563.91 192.029 483.049Z" fill="white"/>
<path d="M233.908 449.027C205.045 392.477 189.435 389.626 161.858 397.994C144.656 413.986 151.375 432.787 192.029 483.049C200.239 563.91 203.572 616.721 224.451 623.064C248.727 648.819 303.3 642.957 409.979 627.862C485.628 627.512 531.682 660.91 616.221 742.578L659 712.918C629.922 639.044 627.694 591.208 627.929 503.986C624.671 473.146 616.527 463.198 577.944 473.453C486.538 512.064 462.017 513.752 426.64 510.529C367.943 498.859 347.821 478.873 306.407 449.027C295.661 446.921 286.76 445.581 278.702 444.956M233.908 449.027C223.777 416.839 221.646 403.431 224.451 388.373C232.257 381.383 251.62 383.283 278.702 444.956M233.908 449.027C250.559 445.222 263.037 443.739 278.702 444.956" stroke="#595959" stroke-width="4" stroke-linecap="round"/>
<path d="M261.215 290.425C261.676 291.012 261.792 291.909 261.451 293.142C261.111 294.366 260.34 295.833 259.178 297.451C256.858 300.681 253.042 304.419 248.277 307.881C243.511 311.343 238.731 313.851 234.866 315.114C232.931 315.746 231.254 316.058 229.937 316.036C228.611 316.015 227.747 315.662 227.286 315.075C226.825 314.487 226.709 313.591 227.051 312.358C227.391 311.133 228.161 309.666 229.323 308.048C231.644 304.818 235.46 301.081 240.225 297.618C244.991 294.156 249.771 291.649 253.635 290.385C255.57 289.753 257.248 289.442 258.565 289.463C259.89 289.484 260.755 289.837 261.215 290.425Z" fill="#FDB209" stroke="#FDB209"/>
<path d="M258.769 292.31C259.121 292.76 259.218 293.469 258.925 294.487C258.634 295.495 257.983 296.712 257.001 298.061C255.04 300.755 251.827 303.884 247.822 306.794C243.816 309.705 239.808 311.821 236.579 312.898C234.961 313.437 233.567 313.706 232.48 313.7C231.383 313.693 230.7 313.408 230.347 312.959C229.995 312.509 229.898 311.8 230.191 310.782C230.482 309.774 231.133 308.557 232.115 307.208C234.076 304.514 237.289 301.385 241.294 298.475C245.3 295.564 249.308 293.448 252.537 292.371C254.155 291.832 255.549 291.563 256.636 291.569C257.733 291.576 258.416 291.861 258.769 292.31Z" fill="#DE9A00" stroke="#FDB209"/>
<path d="M266.43 286.548C267.056 287.351 267.183 288.564 266.707 290.189C266.235 291.805 265.192 293.733 263.64 295.852C260.539 300.084 255.478 304.985 249.187 309.534C242.895 314.084 236.596 317.397 231.51 319.083C228.964 319.928 226.75 320.355 225.007 320.341C223.254 320.328 222.08 319.872 221.453 319.069C220.827 318.266 220.7 317.053 221.175 315.428C221.648 313.812 222.691 311.884 224.243 309.765C227.343 305.533 232.404 300.632 238.696 296.083C244.988 291.533 251.287 288.22 256.373 286.534C258.918 285.689 261.132 285.262 262.875 285.276C264.629 285.289 265.803 285.745 266.43 286.548Z" stroke="black"/>
</svg>
